# Blender v2.80 (sub 75) OBJ File: 'cashRegister.blend'
# www.blender.org
mtllib cashRegister.mtl
o base_Cube
v 0.515496 0.136836 -1.035979
v 0.515496 -0.136836 -1.035979
v 0.515496 0.136836 0.666084
v 0.515496 -0.136836 0.666084
v -0.515496 0.136836 -1.035979
v -0.515496 -0.136836 -1.035979
v -0.515496 0.136836 0.666084
v -0.515496 -0.136836 0.666084
v 0.515496 0.098135 -1.035979
v -0.515496 0.098135 0.666084
v 0.515496 0.098135 0.666084
v -0.515496 0.098135 -1.035979
v 0.515496 -0.102281 -1.035979
v 0.515496 -0.102281 0.666084
v -0.515496 -0.102281 -1.035979
v -0.515496 -0.102281 0.666084
v -0.515496 -0.136836 0.630251
v 0.515496 0.136836 0.630251
v -0.515496 0.136836 0.630251
v 0.515496 -0.136836 0.630251
v 0.515496 0.098135 0.630251
v -0.515496 0.098135 0.630251
v -0.515496 -0.102281 0.630251
v 0.515496 -0.102281 0.630251
v -0.515496 0.136836 -0.994150
v 0.515496 -0.136836 -0.994150
v -0.515496 0.098135 -0.994150
v -0.515496 -0.102281 -0.994150
v -0.515496 -0.136836 -0.994150
v 0.515496 0.136836 -0.994150
v 0.515496 0.098135 -0.994150
v 0.515496 -0.102281 -0.994150
vt 0.375000 0.244737
vt 0.625000 0.244737
vt 0.625000 0.250000
vt 0.375000 0.250000
vt 0.589646 0.250000
vt 0.625000 0.250000
vt 0.625000 0.500000
vt 0.589646 0.500000
vt 0.589646 0.743856
vt 0.625000 0.743856
vt 0.625000 0.750000
vt 0.589646 0.750000
vt 0.375000 0.994737
vt 0.625000 0.994737
vt 0.625000 1.000000
vt 0.375000 1.000000
vt 0.339646 0.744737
vt 0.375000 0.744737
vt 0.375000 0.750000
vt 0.339646 0.750000
vt 0.839646 0.500000
vt 0.875000 0.500000
vt 0.875000 0.750000
vt 0.839646 0.750000
vt 0.656566 0.500000
vt 0.656566 0.750000
vt 0.156566 0.744737
vt 0.156566 0.750000
vt 0.406566 0.743856
vt 0.406566 0.750000
vt 0.406566 0.250000
vt 0.406566 0.500000
vt 0.375000 0.250000
vt 0.375000 0.500000
vt 0.375000 0.743856
vt 0.375000 0.750000
vt 0.125000 0.744737
vt 0.125000 0.750000
vt 0.625000 0.500000
vt 0.625000 0.750000
vt 0.125000 0.506144
vt 0.156566 0.506144
vt 0.406566 0.505263
vt 0.375000 0.505263
vt 0.589646 0.505263
vt 0.339646 0.506144
vt 0.375000 0.506144
vt 0.375000 0.756144
vt 0.625000 0.756144
vt 0.625000 0.505263
vt 0.375000 0.006144
vt 0.625000 0.006144
vt 0.375000 0.000000
vt 0.625000 0.000000
vt 0.339646 0.500000
vt 0.375000 0.500000
vt 0.156566 0.500000
vt 0.125000 0.500000
vn 0.0000 1.0000 0.0000
vn 0.0000 0.0000 1.0000
vn -1.0000 0.0000 0.0000
vn 0.0000 -1.0000 0.0000
vn 1.0000 0.0000 0.0000
vn 0.0000 0.0000 -1.0000
usemtl Material
s off
f 18/1/1 19/2/1 7/3/1 3/4/1
f 11/5/2 3/6/2 7/7/2 10/8/2
f 27/9/3 25/10/3 5/11/3 12/12/3
f 17/13/4 20/14/4 4/15/4 8/16/4
f 21/17/5 18/18/5 3/19/5 11/20/5
f 12/21/6 5/22/6 1/23/6 9/24/6
f 15/25/6 12/21/6 9/24/6 13/26/6
f 24/27/5 21/17/5 11/20/5 14/28/5
f 28/29/3 27/9/3 12/12/3 15/30/3
f 14/31/2 11/5/2 10/8/2 16/32/2
f 4/33/2 14/31/2 16/32/2 8/34/2
f 29/35/3 28/29/3 15/30/3 6/36/3
f 20/37/5 24/27/5 14/28/5 4/38/5
f 6/39/6 15/25/6 13/26/6 2/40/6
f 26/41/5 32/42/5 24/27/5 20/37/5
f 8/34/3 16/32/3 23/43/3 17/44/3
f 16/32/3 10/8/3 22/45/3 23/43/3
f 32/42/5 31/46/5 21/17/5 24/27/5
f 31/46/5 30/47/5 18/18/5 21/17/5
f 29/48/4 26/49/4 20/14/4 17/13/4
f 10/8/3 7/7/3 19/50/3 22/45/3
f 30/51/1 25/52/1 19/2/1 18/1/1
f 1/53/1 5/54/1 25/52/1 30/51/1
f 6/36/4 2/40/4 26/49/4 29/48/4
f 9/55/5 1/56/5 30/47/5 31/46/5
f 13/57/5 9/55/5 31/46/5 32/42/5
f 2/58/5 13/57/5 32/42/5 26/41/5
f 17/44/3 23/43/3 28/29/3 29/35/3
f 22/45/3 19/50/3 25/10/3 27/9/3
o main_screen_Cube.001
v -0.344170 0.130800 0.562071
v -0.365753 0.170557 0.562071
v -0.344170 0.130800 -0.245716
v -0.365753 0.170557 -0.245716
v 0.365753 0.516196 0.562071
v 0.344170 0.555952 0.562071
v 0.365753 0.516196 -0.245716
v 0.344170 0.555952 -0.245716
v -0.335774 0.186831 0.527960
v -0.335774 0.186831 -0.211605
v 0.314192 0.539678 -0.211605
v 0.314192 0.539678 0.527960
v -0.319235 0.174113 0.520971
v -0.319235 0.174113 -0.218594
v 0.330731 0.526960 -0.218594
v 0.330731 0.526960 0.520971
vt 0.375000 0.000000
vt 0.625000 0.000000
vt 0.625000 0.250000
vt 0.375000 0.250000
vt 0.625000 0.500000
vt 0.375000 0.500000
vt 0.625000 0.750000
vt 0.375000 0.750000
vt 0.625000 1.000000
vt 0.375000 1.000000
vt 0.125000 0.500000
vt 0.125000 0.750000
vt 0.625000 0.250000
vt 0.625000 0.500000
vt 0.625000 0.750000
vt 0.625000 0.500000
vt 0.625000 0.750000
vt 0.625000 0.000000
vt 0.625000 1.000000
vt 0.625000 0.000000
vt 0.625000 0.250000
vt 0.625000 1.000000
vt 0.875000 0.500000
vt 0.875000 0.750000
vn -0.8788 -0.4771 -0.0000
vn 0.0000 0.0000 -1.0000
vn 0.8788 0.4771 0.0000
vn 0.0000 -0.0000 1.0000
vn 0.4771 -0.8788 0.0000
vn -0.4771 0.8788 -0.0000
vn -0.6096 -0.7927 -0.0000
vn 0.6096 0.7927 0.0000
vn -0.1642 0.3024 -0.9389
vn 0.1642 -0.3024 0.9389
usemtl baseColor
s off
f 33/59/7 34/60/7 36/61/7 35/62/7
f 35/62/8 36/61/8 40/63/8 39/64/8
f 39/64/9 40/63/9 38/65/9 37/66/9
f 37/66/10 38/65/10 34/67/10 33/68/10
f 35/69/11 39/64/11 37/66/11 33/70/11
f 40/63/12 36/61/12 42/71/12 43/72/12
f 44/73/13 43/72/13 47/74/13 48/75/13
f 38/65/12 40/63/12 43/72/12 44/73/12
f 36/61/12 34/60/12 41/76/12 42/71/12
f 34/67/12 38/65/12 44/73/12 41/77/12
f 42/71/14 41/76/14 45/78/14 46/79/14
f 41/77/15 44/73/15 48/75/15 45/80/15
f 43/72/16 42/71/16 46/79/16 47/74/16
usemtl screenGlow
f 47/74/12 46/81/12 45/82/12 48/75/12
o Cube.002
v -0.513638 0.135549 -0.447534
v -0.513638 0.327635 -0.447534
v -0.513638 0.135549 -1.035071
v -0.513638 0.327635 -1.035071
v 0.513638 0.135549 -0.447534
v 0.513638 0.327635 -0.447534
v 0.513638 0.135549 -1.035071
v 0.513638 0.327635 -1.035071
vt 0.375000 0.000000
vt 0.625000 0.000000
vt 0.625000 0.250000
vt 0.375000 0.250000
vt 0.625000 0.500000
vt 0.375000 0.500000
vt 0.625000 0.750000
vt 0.375000 0.750000
vt 0.625000 1.000000
vt 0.375000 1.000000
vt 0.125000 0.500000
vt 0.125000 0.750000
vt 0.875000 0.500000
vt 0.875000 0.750000
vn -1.0000 0.0000 0.0000
vn 0.0000 0.0000 -1.0000
vn 1.0000 0.0000 0.0000
vn 0.0000 0.0000 1.0000
vn 0.0000 -1.0000 0.0000
vn 0.0000 1.0000 0.0000
usemtl Material.001
s off
f 49/83/17 50/84/17 52/85/17 51/86/17
f 51/86/18 52/85/18 56/87/18 55/88/18
f 55/88/19 56/87/19 54/89/19 53/90/19
f 53/90/20 54/89/20 50/91/20 49/92/20
f 51/93/21 55/88/21 53/90/21 49/94/21
f 56/87/22 52/95/22 50/96/22 54/89/22
o Cylinder
v 0.322195 0.327584 -0.821425
v 0.322195 0.393921 -0.821425
v 0.327323 0.327584 -0.820920
v 0.327323 0.393921 -0.820920
v 0.332254 0.327584 -0.819424
v 0.332254 0.393921 -0.819424
v 0.336798 0.327584 -0.816995
v 0.336798 0.393921 -0.816995
v 0.340781 0.327584 -0.813726
v 0.340781 0.393921 -0.813726
v 0.344049 0.327584 -0.809743
v 0.344049 0.393921 -0.809743
v 0.346478 0.327584 -0.805199
v 0.346478 0.393921 -0.805199
v 0.347974 0.327584 -0.800269
v 0.347974 0.393921 -0.800269
v 0.348479 0.327584 -0.795141
v 0.348479 0.393921 -0.795141
v 0.347974 0.327584 -0.790013
v 0.347974 0.393921 -0.790013
v 0.346478 0.327584 -0.785082
v 0.346478 0.393921 -0.785082
v 0.344049 0.327584 -0.780538
v 0.344049 0.393921 -0.780538
v 0.340781 0.327584 -0.776555
v 0.340781 0.393921 -0.776555
v 0.336798 0.327584 -0.773287
v 0.336798 0.393921 -0.773287
v 0.332254 0.327584 -0.770858
v 0.332254 0.393921 -0.770858
v 0.327323 0.327584 -0.769362
v 0.327323 0.393921 -0.769362
v 0.322195 0.327584 -0.768857
v 0.322195 0.393921 -0.768857
v 0.317067 0.327584 -0.769362
v 0.317067 0.393921 -0.769362
v 0.312137 0.327584 -0.770858
v 0.312137 0.393921 -0.770858
v 0.307592 0.327584 -0.773287
v 0.307592 0.393921 -0.773287
v 0.303609 0.327584 -0.776555
v 0.303609 0.393921 -0.776555
v 0.300341 0.327584 -0.780538
v 0.300341 0.393921 -0.780538
v 0.297912 0.327584 -0.785082
v 0.297912 0.393921 -0.785082
v 0.296416 0.327584 -0.790013
v 0.296416 0.393921 -0.790013
v 0.295911 0.327584 -0.795141
v 0.295911 0.393921 -0.795141
v 0.296416 0.327584 -0.800269
v 0.296416 0.393921 -0.800269
v 0.297912 0.327584 -0.805199
v 0.297912 0.393921 -0.805199
v 0.300341 0.327584 -0.809744
v 0.300341 0.393921 -0.809744
v 0.303609 0.327584 -0.813726
v 0.303609 0.393921 -0.813726
v 0.307592 0.327584 -0.816995
v 0.307592 0.393921 -0.816995
v 0.312137 0.327584 -0.819424
v 0.312137 0.393921 -0.819424
v 0.317067 0.327584 -0.820920
v 0.317067 0.393921 -0.820920
vt 1.000000 0.500000
vt 1.000000 1.000000
vt 0.968750 1.000000
vt 0.968750 0.500000
vt 0.937500 1.000000
vt 0.937500 0.500000
vt 0.906250 1.000000
vt 0.906250 0.500000
vt 0.875000 1.000000
vt 0.875000 0.500000
vt 0.843750 1.000000
vt 0.843750 0.500000
vt 0.812500 1.000000
vt 0.812500 0.500000
vt 0.781250 1.000000
vt 0.781250 0.500000
vt 0.750000 1.000000
vt 0.750000 0.500000
vt 0.718750 1.000000
vt 0.718750 0.500000
vt 0.687500 1.000000
vt 0.687500 0.500000
vt 0.656250 1.000000
vt 0.656250 0.500000
vt 0.625000 1.000000
vt 0.625000 0.500000
vt 0.593750 1.000000
vt 0.593750 0.500000
vt 0.562500 1.000000
vt 0.562500 0.500000
vt 0.531250 1.000000
vt 0.531250 0.500000
vt 0.500000 1.000000
vt 0.500000 0.500000
vt 0.468750 1.000000
vt 0.468750 0.500000
vt 0.437500 1.000000
vt 0.437500 0.500000
vt 0.406250 1.000000
vt 0.406250 0.500000
vt 0.375000 1.000000
vt 0.375000 0.500000
vt 0.343750 1.000000
vt 0.343750 0.500000
vt 0.312500 1.000000
vt 0.312500 0.500000
vt 0.281250 1.000000
vt 0.281250 0.500000
vt 0.250000 1.000000
vt 0.250000 0.500000
vt 0.218750 1.000000
vt 0.218750 0.500000
vt 0.187500 1.000000
vt 0.187500 0.500000
vt 0.156250 1.000000
vt 0.156250 0.500000
vt 0.125000 1.000000
vt 0.125000 0.500000
vt 0.093750 1.000000
vt 0.093750 0.500000
vt 0.062500 1.000000
vt 0.062500 0.500000
vt 0.296822 0.485388
vt 0.250000 0.490000
vt 0.203179 0.485389
vt 0.158156 0.471731
vt 0.116663 0.449553
vt 0.080295 0.419706
vt 0.050447 0.383337
vt 0.028269 0.341844
vt 0.014612 0.296822
vt 0.010000 0.250000
vt 0.014611 0.203179
vt 0.028269 0.158156
vt 0.050447 0.116663
vt 0.080294 0.080294
vt 0.116663 0.050447
vt 0.158156 0.028269
vt 0.203178 0.014612
vt 0.250000 0.010000
vt 0.296822 0.014612
vt 0.341844 0.028269
vt 0.383337 0.050447
vt 0.419706 0.080294
vt 0.449553 0.116663
vt 0.471731 0.158156
vt 0.485388 0.203178
vt 0.490000 0.250000
vt 0.485388 0.296822
vt 0.471731 0.341844
vt 0.449553 0.383337
vt 0.419706 0.419706
vt 0.383337 0.449553
vt 0.341844 0.471731
vt 0.031250 1.000000
vt 0.031250 0.500000
vt 0.000000 1.000000
vt 0.000000 0.500000
vt 0.750000 0.490000
vt 0.796822 0.485388
vt 0.841844 0.471731
vt 0.883337 0.449553
vt 0.919706 0.419706
vt 0.949553 0.383337
vt 0.971731 0.341844
vt 0.985388 0.296822
vt 0.990000 0.250000
vt 0.985388 0.203178
vt 0.971731 0.158156
vt 0.949553 0.116663
vt 0.919706 0.080294
vt 0.883337 0.050447
vt 0.841844 0.028269
vt 0.796822 0.014612
vt 0.750000 0.010000
vt 0.703178 0.014612
vt 0.658156 0.028269
vt 0.616663 0.050447
vt 0.580294 0.080294
vt 0.550447 0.116663
vt 0.528269 0.158156
vt 0.514611 0.203179
vt 0.510000 0.250000
vt 0.514612 0.296822
vt 0.528269 0.341844
vt 0.550447 0.383337
vt 0.580295 0.419706
vt 0.616663 0.449553
vt 0.658156 0.471731
vt 0.703179 0.485389
vn 0.0980 0.0000 -0.9952
vn 0.2903 0.0000 -0.9569
vn 0.4714 0.0000 -0.8819
vn 0.6344 0.0000 -0.7730
vn 0.7730 0.0000 -0.6344
vn 0.8819 0.0000 -0.4714
vn 0.9569 0.0000 -0.2903
vn 0.9952 0.0000 -0.0980
vn 0.9952 0.0000 0.0980
vn 0.9569 0.0000 0.2903
vn 0.8819 0.0000 0.4714
vn 0.7730 0.0000 0.6344
vn 0.6344 0.0000 0.7730
vn 0.4714 0.0000 0.8819
vn 0.2903 0.0000 0.9569
vn 0.0980 0.0000 0.9952
vn -0.0980 0.0000 0.9952
vn -0.2903 0.0000 0.9569
vn -0.4714 0.0000 0.8819
vn -0.6344 0.0000 0.7730
vn -0.7730 0.0000 0.6344
vn -0.8819 0.0000 0.4714
vn -0.9569 0.0000 0.2903
vn -0.9952 0.0000 0.0980
vn -0.9952 0.0000 -0.0980
vn -0.9569 0.0000 -0.2903
vn -0.8819 0.0000 -0.4714
vn -0.7730 0.0000 -0.6344
vn -0.6344 0.0000 -0.7730
vn -0.4714 0.0000 -0.8819
vn 0.0000 1.0000 -0.0000
vn -0.2903 0.0000 -0.9569
vn -0.0980 0.0000 -0.9952
vn 0.0000 -1.0000 -0.0000
usemtl Material.005
s off
f 57/97/23 58/98/23 60/99/23 59/100/23
f 59/100/24 60/99/24 62/101/24 61/102/24
f 61/102/25 62/101/25 64/103/25 63/104/25
f 63/104/26 64/103/26 66/105/26 65/106/26
f 65/106/27 66/105/27 68/107/27 67/108/27
f 67/108/28 68/107/28 70/109/28 69/110/28
f 69/110/29 70/109/29 72/111/29 71/112/29
f 71/112/30 72/111/30 74/113/30 73/114/30
f 73/114/31 74/113/31 76/115/31 75/116/31
f 75/116/32 76/115/32 78/117/32 77/118/32
f 77/118/33 78/117/33 80/119/33 79/120/33
f 79/120/34 80/119/34 82/121/34 81/122/34
f 81/122/35 82/121/35 84/123/35 83/124/35
f 83/124/36 84/123/36 86/125/36 85/126/36
f 85/126/37 86/125/37 88/127/37 87/128/37
f 87/128/38 88/127/38 90/129/38 89/130/38
f 89/130/39 90/129/39 92/131/39 91/132/39
f 91/132/40 92/131/40 94/133/40 93/134/40
f 93/134/41 94/133/41 96/135/41 95/136/41
f 95/136/42 96/135/42 98/137/42 97/138/42
f 97/138/43 98/137/43 100/139/43 99/140/43
f 99/140/44 100/139/44 102/141/44 101/142/44
f 101/142/45 102/141/45 104/143/45 103/144/45
f 103/144/46 104/143/46 106/145/46 105/146/46
f 105/146/47 106/145/47 108/147/47 107/148/47
f 107/148/48 108/147/48 110/149/48 109/150/48
f 109/150/49 110/149/49 112/151/49 111/152/49
f 111/152/50 112/151/50 114/153/50 113/154/50
f 113/154/51 114/153/51 116/155/51 115/156/51
f 115/156/52 116/155/52 118/157/52 117/158/52
f 60/159/53 58/160/53 120/161/53 118/162/53 116/163/53 114/164/53 112/165/53 110/166/53 108/167/53 106/168/53 104/169/53 102/170/53 100/171/53 98/172/53 96/173/53 94/174/53 92/175/53 90/176/53 88/177/53 86/178/53 84/179/53 82/180/53 80/181/53 78/182/53 76/183/53 74/184/53 72/185/53 70/186/53 68/187/53 66/188/53 64/189/53 62/190/53
f 117/158/54 118/157/54 120/191/54 119/192/54
f 119/192/55 120/191/55 58/193/55 57/194/55
f 57/195/56 59/196/56 61/197/56 63/198/56 65/199/56 67/200/56 69/201/56 71/202/56 73/203/56 75/204/56 77/205/56 79/206/56 81/207/56 83/208/56 85/209/56 87/210/56 89/211/56 91/212/56 93/213/56 95/214/56 97/215/56 99/216/56 101/217/56 103/218/56 105/219/56 107/220/56 109/221/56 111/222/56 113/223/56 115/224/56 117/225/56 119/226/56
o tiny_screen_Cube.003
v 0.376861 0.392865 -0.657375
v 0.376861 0.485450 -0.657375
v 0.221735 0.392865 -0.899780
v 0.221735 0.485450 -0.899780
v 0.426174 0.392865 -0.688933
v 0.426174 0.485450 -0.688933
v 0.271048 0.392865 -0.931338
v 0.271048 0.485450 -0.931338
v 0.229373 0.403133 -0.887844
v 0.369223 0.403133 -0.669311
v 0.369223 0.475183 -0.669311
v 0.229373 0.475183 -0.887844
v 0.235713 0.403133 -0.891901
v 0.375562 0.403133 -0.673368
v 0.375562 0.475183 -0.673368
v 0.235713 0.475183 -0.891901
vt 0.625000 0.250000
vt 0.375000 0.250000
vt 0.375000 0.250000
vt 0.625000 0.250000
vt 0.625000 0.500000
vt 0.375000 0.500000
vt 0.625000 0.750000
vt 0.375000 0.750000
vt 0.625000 1.000000
vt 0.375000 1.000000
vt 0.125000 0.500000
vt 0.125000 0.750000
vt 0.875000 0.500000
vt 0.875000 0.750000
vt 0.875000 0.750000
vt 0.875000 0.500000
vt 0.875000 0.500000
vt 0.875000 0.750000
vt 0.625000 1.000000
vt 0.375000 1.000000
vt 0.125000 0.750000
vt 0.125000 0.500000
vt 0.125000 0.750000
vt 0.125000 0.500000
vt 0.375000 0.250000
vt 0.625000 0.250000
vt 0.625000 1.000000
vt 0.375000 1.000000
vt 0.375000 0.000000
vt 0.625000 0.000000
vn -0.8423 0.0000 0.5390
vn -0.5390 0.0000 -0.8423
vn 0.8423 0.0000 -0.5390
vn 0.5390 0.0000 0.8423
vn 0.0000 -1.0000 0.0000
vn 0.0000 1.0000 -0.0000
usemtl Material.002
s off
f 124/227/57 123/228/57 129/229/57 132/230/57
f 123/228/58 124/227/58 128/231/58 127/232/58
f 127/232/59 128/231/59 126/233/59 125/234/59
f 125/234/60 126/233/60 122/235/60 121/236/60
f 123/237/61 127/232/61 125/234/61 121/238/61
f 128/231/62 124/239/62 122/240/62 126/233/62
f 131/241/61 132/242/61 136/243/61 135/244/61
f 121/236/57 122/235/57 131/245/57 130/246/57
f 122/240/57 124/239/57 132/242/57 131/241/57
f 123/237/57 121/238/57 130/247/57 129/248/57
f 129/248/62 130/247/62 134/249/62 133/250/62
f 132/230/60 129/229/60 133/251/60 136/252/60
f 130/246/58 131/245/58 135/253/58 134/254/58
usemtl miniScreenGlow
f 134/255/57 135/256/57 136/252/57 133/251/57
o Cube.003_Cube.004
v -0.523710 -0.104134 0.635280
v -0.523710 0.104134 0.635280
v -0.523710 -0.104134 -1.001167
v -0.523710 0.104134 -1.001167
v 0.496616 -0.104134 0.635280
v 0.496616 0.104134 0.635280
v 0.496616 -0.104134 -1.001167
v 0.496616 0.104134 -1.001167
v -0.492024 0.104134 0.597650
v -0.492024 0.104134 -0.963537
v 0.464931 0.104134 -0.963537
v 0.464931 0.104134 0.597650
v -0.492024 -0.078520 0.597650
v -0.492024 -0.078520 -0.963537
v 0.464931 -0.078520 -0.963537
v 0.464931 -0.078520 0.597650
vt 0.375000 0.000000
vt 0.625000 0.000000
vt 0.625000 0.250000
vt 0.375000 0.250000
vt 0.625000 0.500000
vt 0.375000 0.500000
vt 0.625000 0.750000
vt 0.375000 0.750000
vt 0.625000 1.000000
vt 0.375000 1.000000
vt 0.125000 0.500000
vt 0.125000 0.750000
vt 0.625000 0.250000
vt 0.625000 0.500000
vt 0.625000 0.750000
vt 0.625000 0.500000
vt 0.625000 0.750000
vt 0.625000 0.000000
vt 0.625000 1.000000
vt 0.875000 0.500000
vt 0.875000 0.750000
vt 0.625000 0.000000
vt 0.625000 0.250000
vt 0.625000 1.000000
vn -1.0000 0.0000 0.0000
vn 0.0000 0.0000 -1.0000
vn 1.0000 0.0000 0.0000
vn 0.0000 0.0000 1.0000
vn 0.0000 -1.0000 0.0000
vn 0.0000 1.0000 0.0000
usemtl Material.004
s off
f 137/257/63 138/258/63 140/259/63 139/260/63
f 139/260/64 140/259/64 144/261/64 143/262/64
f 143/262/65 144/261/65 142/263/65 141/264/65
f 141/264/66 142/263/66 138/265/66 137/266/66
f 139/267/67 143/262/67 141/264/67 137/268/67
f 144/261/68 140/259/68 146/269/68 147/270/68
f 148/271/63 147/270/63 151/272/63 152/273/63
f 142/263/68 144/261/68 147/270/68 148/271/68
f 140/259/68 138/258/68 145/274/68 146/269/68
f 138/265/68 142/263/68 148/271/68 145/275/68
f 151/272/68 150/276/68 149/277/68 152/273/68
f 146/269/65 145/274/65 149/278/65 150/279/65
f 145/275/64 148/271/64 152/273/64 149/280/64
f 147/270/66 146/269/66 150/279/66 151/272/66
