# Blender v2.80 (sub 75) OBJ File: 'cashierStand.blend'
# www.blender.org
mtllib cashierStand.mtl
o Cube
v 0.967995 0.589603 -2.572391
v 0.967995 -0.589603 -2.572391
v 0.967995 0.589603 1.601992
v 0.967995 -0.589603 1.601992
v -0.967995 0.589603 -2.572391
v -0.967995 -0.589603 -2.572391
v -0.967995 0.589603 1.601992
v -0.967995 -0.589603 1.601992
v -0.967995 -0.589603 0.725724
v 0.967995 0.589603 0.725724
v -0.967995 0.589603 0.725724
v 0.967995 -0.589603 0.725724
v -0.967995 0.589603 -1.104051
v 0.967995 -0.589603 -0.714038
v -0.967995 -0.589603 -1.104051
v 0.967995 0.589603 -0.714038
v -2.552225 -0.589603 0.725724
v -2.552225 -0.589603 1.601992
v -2.552225 0.589603 1.601992
v -2.552225 0.589603 -2.572391
v -2.552225 -0.589603 -2.572391
v -2.552225 0.589603 -1.104051
v -2.552225 0.589603 0.725724
v -2.552225 -0.589603 -1.104051
v 0.967995 0.442091 -2.572391
v -0.967995 0.442091 1.601992
v 0.967995 0.442091 1.601992
v -0.967995 0.442091 -2.572391
v 0.967995 0.442091 0.725724
v -0.967995 0.442091 0.725724
v 0.967995 0.442091 -0.714038
v -0.967995 0.442091 -1.104051
v -2.552225 0.442091 1.601992
v -2.552225 0.442091 -2.572391
v -2.552225 0.442091 0.725724
v -2.552225 0.442091 -1.104051
v -0.967995 0.442091 1.601992
v -0.967995 0.589603 1.601992
v 0.967995 0.589603 1.601992
v 0.967995 0.589603 0.725724
v -0.967995 0.589603 -2.572391
v 0.967995 0.589603 -2.572391
v 0.967995 0.589603 -0.714038
v -0.967995 0.589603 0.725724
v -0.967995 0.589603 -1.104051
v -2.552225 0.442091 1.601992
v -2.552225 0.589603 1.601992
v -2.552225 0.589603 -1.104051
v -2.552225 0.589603 -2.572391
v -2.552225 0.589603 0.725724
v 0.967995 0.442091 -2.572391
v 0.967995 0.442091 1.601992
v -0.967995 0.442091 -2.572391
v 0.967995 0.442091 0.725724
v -0.967995 0.442091 0.725724
v 0.967995 0.442091 -0.714038
v -0.967995 0.442091 -1.104051
v -2.552225 0.442091 -2.572391
v -2.552225 0.442091 0.725724
v -2.552225 0.442091 -1.104051
v -0.975402 0.438208 1.703587
v -0.975402 0.593486 1.703587
v 1.062510 0.593486 0.781187
v -0.975402 0.593486 -2.690561
v 1.062510 0.593486 -0.734372
v -2.643036 0.593486 -1.144918
v -2.643036 0.593486 0.781187
v -0.975402 0.438208 -2.690561
v 1.062510 0.438208 0.781187
v 1.062510 0.438208 -0.734372
v -2.643036 0.438208 0.781187
v -2.643036 0.438208 -1.144918
v -2.584352 0.585746 0.684687
v -2.502594 0.582250 0.634754
v -1.076310 0.582250 0.634754
v -1.076310 0.582250 -1.012595
v -2.502594 0.449444 0.634754
v -2.584352 0.445948 0.684687
v -2.502594 0.582250 -1.012595
v -2.502594 0.449444 -1.012595
v -2.584352 0.445948 -1.049388
v -1.076310 0.449444 0.634754
v -1.076310 0.449444 -1.012595
v -2.584352 0.585746 -1.049388
v -2.591640 0.438208 1.703587
v -2.643036 0.438208 1.618528
v -2.600528 0.440025 1.656031
v -2.627982 0.438208 1.678674
v -2.643036 0.593486 1.618528
v -2.591640 0.593486 1.703587
v -2.600528 0.591669 1.656031
v -2.627982 0.593486 1.678674
v 1.009225 0.596925 1.696674
v 1.070608 0.588984 1.612957
v 1.022097 0.591713 1.649391
v 1.049390 0.593562 1.674176
v 1.062572 0.434163 1.621750
v 1.001189 0.442104 1.705467
v 1.014253 0.440586 1.657974
v 1.041355 0.438741 1.682969
v 1.075187 0.593486 -2.583034
v 0.980300 0.593486 -2.681748
v 1.009878 0.591168 -2.616112
v 1.036703 0.593486 -2.659297
v 0.980300 0.438208 -2.681748
v 1.075187 0.438208 -2.583034
v 1.009878 0.440526 -2.616112
v 1.036703 0.438208 -2.659297
v -2.549062 0.593486 -2.680776
v -2.657024 0.593486 -2.566774
v -2.583794 0.590761 -2.603464
v -2.613546 0.593486 -2.654551
v -2.657024 0.438208 -2.566774
v -2.549062 0.438208 -2.680776
v -2.583794 0.440933 -2.603464
v -2.613546 0.438208 -2.654551
vt 0.375000 0.181627
vt 0.625000 0.181627
vt 0.625000 0.250000
vt 0.375000 0.250000
vt 0.343726 0.602339
vt 0.343726 0.500000
vt 0.343726 0.500000
vt 0.343726 0.602339
vt 0.625000 0.000000
vt 0.375000 0.000000
vt 0.375000 0.000000
vt 0.625000 0.000000
vt 0.375000 0.931627
vt 0.625000 0.931627
vt 0.625000 1.000000
vt 0.375000 1.000000
vt 0.625000 0.250000
vt 0.625000 0.181627
vt 0.625000 0.181627
vt 0.625000 0.250000
vt 0.593726 0.647661
vt 0.593726 0.568373
vt 0.593726 0.568373
vt 0.593726 0.647661
vt 0.625000 0.102339
vt 0.625000 0.000000
vt 0.625000 0.000000
vt 0.625000 0.102339
vt 0.375000 0.852339
vt 0.625000 0.852339
vt 0.375000 0.102339
vt 0.625000 0.102339
vt 0.375000 0.750000
vt 0.625000 0.750000
vt 0.375000 0.102339
vt 0.593726 0.750000
vt 0.593726 0.647661
vt 0.593726 0.647661
vt 0.593726 0.750000
vt 0.593726 0.500000
vt 0.593726 0.250000
vt 0.593726 0.250000
vt 0.593726 0.500000
vt 0.625000 0.250000
vt 0.375000 0.852339
vt 0.375000 0.750000
vt 0.375000 1.000000
vt 0.375000 0.931627
vt 0.375000 0.568373
vt 0.375000 0.568373
vt 0.593726 0.568373
vt 0.593726 0.500000
vt 0.593726 0.500000
vt 0.593726 0.568373
vt 0.843726 0.500000
vt 0.625000 0.500000
vt 0.625000 0.500000
vt 0.843726 0.500000
vt 0.375000 0.250000
vt 0.375000 0.181627
vt 0.375000 0.647661
vt 0.375000 0.647661
vt 0.375000 0.500000
vt 0.125000 0.500000
vt 0.125000 0.602339
vt 0.343726 0.681627
vt 0.125000 0.681627
vt 0.843726 0.750000
vt 0.343726 0.750000
vt 0.125000 0.750000
vt 0.375000 0.500000
vt 0.375000 0.250000
vt 0.343726 0.681627
vt 0.843726 0.500000
vt 0.843726 0.500000
vt 0.843726 0.750000
vt 0.625000 0.102339
vt 0.625000 0.181627
vt 0.343726 0.750000
vt 0.343726 0.602339
vt 0.343726 0.681627
vt 0.343726 0.743395
vt 0.343726 0.750000
vt 0.625000 0.102339
vt 0.625000 0.102339
vt 0.625000 0.102339
vt 0.875000 0.500000
vt 0.843726 0.500000
vt 0.843726 0.500000
vt 0.875000 0.500000
vt 0.843726 0.741313
vt 0.843726 0.750000
vt 0.593726 0.568373
vt 0.625000 0.568373
vt 0.625000 0.568373
vt 0.593726 0.568373
vt 0.593726 0.568373
vt 0.343726 0.500000
vt 0.343726 0.506131
vt 0.593726 0.647661
vt 0.593726 0.647661
vt 0.593726 0.647661
vt 0.625000 0.181627
vt 0.625000 0.181627
vt 0.625000 0.181627
vt 0.375000 0.250000
vt 0.375000 0.243395
vt 0.375000 0.181627
vt 0.593726 0.500000
vt 0.593726 0.500000
vt 0.593726 0.500000
vt 0.625000 0.250000
vt 0.381605 0.250000
vt 0.375000 0.102339
vt 0.375000 0.006131
vt 0.375000 0.000000
vt 0.375000 0.602339
vt 0.375000 0.681627
vt 0.875000 0.741313
vt 0.625000 0.000000
vt 0.625000 0.000000
vt 0.625000 0.000000
vt 0.593726 0.506305
vt 0.843726 0.500000
vt 0.625000 0.250000
vt 0.625000 0.250000
vt 0.593726 0.741102
vt 0.593726 0.750000
vt 0.375000 0.743395
vt 0.375000 0.506131
vt 0.593726 0.250000
vt 0.593726 0.256605
vt 0.625000 0.243695
vt 0.625000 0.008898
vt 0.625000 0.500000
vt 0.625000 0.500000
vt 0.625000 0.647661
vt 0.625000 0.647661
vt 0.625000 0.568373
vt 0.593726 0.568373
vt 0.625000 0.568373
vt 0.625000 0.647661
vt 0.593726 0.647661
vt 0.625000 0.647661
vt 0.625000 0.102339
vt 0.625000 0.181627
vt 0.593726 0.500000
vt 0.593726 0.500000
vt 0.625000 0.250000
vt 0.625000 0.500000
vt 0.625000 0.506305
vt 0.375000 0.250000
vt 0.375000 0.250000
vt 0.343726 0.750000
vt 0.343726 0.750000
vt 0.625000 0.256605
vt 0.593726 0.250000
vt 0.625000 0.250000
vt 0.375000 0.750000
vt 0.375000 0.000000
vt 0.375000 0.000000
vt 0.843726 0.747456
vt 0.843726 0.743079
vt 0.843726 0.750000
vt 0.343726 0.500000
vt 0.375000 0.500000
vt 0.875000 0.750000
vt 0.843726 0.750000
vt 0.383687 0.000000
vt 0.625000 0.000000
vt 0.625000 0.000000
vt 0.593726 0.750000
vt 0.593726 0.750000
vt 0.843726 0.500000
vt 0.875000 0.500000
vt 0.625000 0.750000
vt 0.625000 0.741102
vn 0.0000 1.0000 0.0000
vn 0.0000 0.0000 1.0000
vn 0.0000 -1.0000 0.0000
vn 0.0000 0.0000 -1.0000
vn -1.0000 0.0000 0.0000
vn 1.0000 -0.0000 0.0000
vn -0.0410 -0.9992 0.0000
vn -0.0623 -0.9981 -0.0009
vn 0.0087 0.9971 0.0755
vn -0.0062 0.0000 -1.0000
vn -0.0001 -0.9994 0.0341
vn -0.8544 0.0000 -0.5196
vn -0.0099 -0.9963 -0.0859
vn -0.0385 -0.9993 -0.0001
vn 0.0087 -0.9971 0.0755
vn -0.0099 0.9963 -0.0859
vn -0.0167 0.9999 0.0012
vn -0.0000 -0.9993 -0.0382
vn -0.0006 0.9984 -0.0572
vn -0.0385 0.9993 -0.0001
vn 0.0045 0.0000 -1.0000
vn 0.0001 0.9994 0.0343
vn 0.0427 -0.9991 -0.0000
vn 0.0001 -0.9994 0.0343
vn -0.0000 0.9993 -0.0382
vn 0.0397 -0.9992 -0.0002
vn 0.9996 -0.0260 -0.0050
vn 1.0000 0.0000 0.0069
vn 0.0006 -0.9998 -0.0187
vn -0.0410 0.9992 0.0000
vn 0.0427 0.9991 0.0000
vn 0.0397 0.9992 -0.0002
vn -0.4104 0.0000 0.9119
vn -0.5212 0.0000 -0.8534
vn 0.0000 -0.9968 0.0801
vn -0.8521 0.0000 0.5234
vn -0.0677 0.9977 0.0000
vn -0.0677 -0.9977 0.0000
vn 0.0000 -0.9967 -0.0806
vn 0.0000 0.9968 0.0801
vn 0.0000 0.9967 -0.0806
vn 0.0300 -0.9986 -0.0438
vn 0.0548 -0.9984 -0.0137
vn 0.0548 0.9984 -0.0137
vn 0.0300 0.9986 -0.0438
vn -0.5654 0.0000 0.8248
vn -0.9701 0.0000 0.2428
vn 0.0258 0.9944 -0.1026
vn 0.0001 0.9972 -0.0745
vn -0.1032 -0.9939 0.0386
vn -0.0776 -0.9969 0.0105
vn 0.4901 0.0241 0.8713
vn 0.9437 -0.0303 0.3293
vn 0.0012 0.0283 0.9996
vn -0.0476 0.9986 0.0240
vn -0.0171 0.9989 0.0430
vn -0.0171 -0.9989 0.0430
vn -0.0476 -0.9986 0.0240
vn 0.8928 0.0000 -0.4505
vn 0.3698 0.0000 -0.9291
vn -0.0001 0.9994 0.0341
vn 0.0175 0.9989 0.0431
vn 0.0494 0.9985 0.0245
vn 0.0494 -0.9985 0.0245
vn 0.0175 -0.9989 0.0431
vn -0.3767 0.0000 -0.9263
vn -0.8961 0.0000 -0.4439
vn -1.0000 0.0000 0.0098
usemtl Material
s off
f 10/1/1 11/2/1 7/3/1 3/4/1
f 31/5/2 25/6/2 51/7/2 56/8/2
f 5/9/2 1/10/2 42/11/2 41/12/2
f 9/13/3 12/14/3 4/15/3 8/16/3
f 19/17/2 23/18/2 50/19/2 47/20/2
f 32/21/2 30/22/2 55/23/2 57/24/2
f 22/25/2 20/26/2 49/27/2 48/28/2
f 15/29/3 14/30/3 12/14/3 9/13/3
f 7/3/1 11/2/1 23/18/1 19/17/1
f 16/31/1 13/32/1 11/2/1 10/1/1
f 1/10/1 5/9/1 13/32/1 16/31/1
f 6/33/3 2/34/3 14/30/3 15/29/3
f 1/10/2 16/31/2 43/35/2 42/11/2
f 34/36/2 36/37/2 60/38/2 58/39/2
f 26/40/2 27/41/2 52/42/2 37/43/2
f 7/3/2 19/17/2 47/20/2 38/44/2
f 6/33/3 15/29/3 24/45/3 21/46/3
f 9/13/3 8/16/3 18/47/3 17/48/3
f 13/32/1 5/9/1 20/26/1 22/25/1
f 30/22/4 9/49/4 17/50/4 35/51/4
f 35/51/2 33/52/2 46/53/2 59/54/2
f 28/55/4 6/56/4 21/57/4 34/58/4
f 10/1/2 3/4/2 39/59/2 40/60/2
f 15/61/2 32/21/2 36/37/2 24/62/2
f 33/52/2 26/40/2 37/43/2 46/53/2
f 18/63/5 33/52/5 35/51/5 17/50/5
f 24/62/5 36/37/5 34/36/5 21/46/5
f 9/49/5 30/22/5 32/21/5 15/61/5
f 2/64/6 25/6/6 31/5/6 14/65/6
f 14/65/6 31/5/6 29/66/6 12/67/6
f 6/56/4 28/55/4 25/68/4 2/34/4
f 12/67/6 29/66/6 27/69/6 4/70/6
f 8/71/2 26/40/2 33/52/2 18/63/2
f 4/72/2 27/41/2 26/40/2 8/71/2
f 29/66/2 31/5/2 56/8/2 54/73/2
f 28/55/2 34/58/2 58/74/2 53/75/2
f 25/68/2 28/55/2 53/75/2 51/76/2
f 20/26/2 5/9/2 41/12/2 49/27/2
f 36/37/2 32/21/2 57/24/2 60/38/2
f 11/2/2 13/32/2 45/77/2 44/78/2
f 16/31/2 10/1/2 40/60/2 43/35/2
f 27/69/2 29/66/2 54/73/2 52/79/2
f 3/4/2 7/3/2 38/44/2 39/59/2
f 13/32/2 22/25/2 48/28/2 45/77/2
f 30/22/2 35/51/2 59/54/2 55/23/2
f 23/18/2 11/2/2 44/78/2 50/19/2
usemtl standEdge
f 54/73/7 56/8/7 70/80/7 69/81/7
f 52/79/8 54/73/8 69/81/8 97/82/8 99/83/8
f 48/28/9 66/84/9 84/85/9 79/86/9
f 64/87/10 68/88/10 114/89/10 109/90/10
f 51/76/11 53/75/11 68/88/11 105/91/11 107/92/11
f 71/93/12 67/94/12 73/95/12 78/96/12
f 59/54/13 71/93/13 78/96/13 77/97/13
f 56/8/14 51/7/14 107/98/14 106/99/14 70/80/14
f 72/100/15 60/38/15 80/101/15 81/102/15
f 67/103/16 50/19/16 74/104/16 73/105/16
f 40/60/17 39/59/17 95/106/17 94/107/17 63/108/17
f 46/53/18 37/43/18 61/109/18 85/110/18 87/111/18
f 39/59/19 38/44/19 62/112/19 93/113/19 95/106/19
f 42/11/20 43/35/20 65/114/20 101/115/20 103/116/20
f 70/80/6 65/117/6 63/118/6 69/81/6
f 68/88/21 64/87/21 102/119/21 105/91/21
f 49/27/22 41/12/22 64/120/22 109/121/22 111/122/22
f 59/54/23 46/53/23 87/111/23 86/123/23 71/93/23
f 53/75/24 58/74/24 115/124/24 114/89/24 68/88/24
f 38/44/25 47/20/25 91/125/25 90/126/25 62/112/25
f 58/39/26 60/38/26 72/100/26 113/127/26 115/128/26
f 69/81/27 63/118/27 94/129/27 97/82/27
f 106/99/28 101/130/28 65/117/28 70/80/28
f 37/43/29 52/42/29 99/131/29 98/132/29 61/109/29
f 43/35/30 40/60/30 63/108/30 65/114/30
f 47/20/31 50/19/31 67/103/31 89/133/31 91/125/31
f 48/28/32 49/27/32 111/122/32 110/134/32 66/84/32
f 61/109/2 62/135/2 90/136/2 85/110/2
f 80/101/33 79/137/33 84/138/33 81/102/33
f 74/139/34 77/97/34 78/96/34 73/95/34
f 82/140/5 75/141/5 76/142/5 83/143/5
f 83/143/2 76/142/2 79/137/2 80/101/2
f 75/141/4 82/140/4 77/97/4 74/139/4
f 60/38/35 57/24/35 83/143/35 80/101/35
f 66/144/36 72/100/36 81/102/36 84/138/36
f 44/78/37 45/77/37 76/145/37 75/146/37
f 57/24/38 55/23/38 82/140/38 83/143/38
f 55/23/39 59/54/39 77/97/39 82/140/39
f 45/77/40 48/28/40 79/86/40 76/145/40
f 50/19/41 44/78/41 75/146/41 74/104/41
f 85/110/42 88/147/42 87/111/42
f 88/147/43 86/148/43 87/111/43
f 89/133/44 92/149/44 91/125/44
f 92/149/45 90/126/45 91/125/45
f 85/110/46 90/136/46 92/150/46 88/147/46
f 88/147/47 92/150/47 89/151/47 86/123/47
f 86/123/5 89/151/5 67/94/5 71/93/5
f 93/113/48 96/152/48 95/106/48
f 96/152/49 94/153/49 95/106/49
f 97/82/50 100/154/50 99/83/50
f 100/154/51 98/155/51 99/83/51
f 93/156/52 98/132/52 100/157/52 96/158/52
f 96/159/53 100/154/53 97/82/53 94/129/53
f 98/132/54 93/156/54 62/135/54 61/109/54
f 101/115/55 104/160/55 103/116/55
f 104/160/56 102/161/56 103/116/56
f 105/91/57 108/162/57 107/163/57
f 108/162/58 106/164/58 107/163/58
f 101/130/59 106/99/59 108/165/59 104/166/59
f 104/167/60 108/168/60 105/91/60 102/119/60
f 41/12/61 42/11/61 103/116/61 102/169/61 64/120/61
f 109/121/62 112/170/62 111/122/62
f 112/170/63 110/171/63 111/122/63
f 113/127/64 116/172/64 115/128/64
f 116/172/65 114/173/65 115/128/65
f 109/90/66 114/89/66 116/174/66 112/175/66
f 112/176/67 116/172/67 113/127/67 110/177/67
f 72/100/68 66/144/68 110/177/68 113/127/68
