# Blender v2.78 (sub 0) OBJ File: '20.blend'
# www.blender.org
mtllib Peach_01.mtl
o peach_Roundcube.006
v 2.886751 -2.886751 -2.886751
v 1.732051 -3.316625 -3.316625
v 0.577350 -3.511884 -3.511884
v -0.577350 -3.511884 -3.511884
v -1.732051 -3.316625 -3.316625
v 3.316625 -1.732051 -3.316625
v 1.989975 -1.989975 -4.132796
v 0.663325 -2.107131 -4.485532
v -0.663325 -2.107131 -4.485532
v -1.989975 -1.989975 -4.132796
v 3.511884 -0.577350 -3.511884
v 2.107131 -0.663325 -4.485532
v 0.702377 -0.702377 -4.900340
v -0.702377 -0.702377 -4.900340
v -2.107131 -0.663325 -4.485532
v 3.511884 0.578229 -3.511884
v 2.107131 0.680254 -4.485532
v 0.702377 0.720939 -4.900340
v -0.702377 0.720939 -4.900340
v -2.107131 0.680254 -4.485532
v 3.316625 1.819630 -3.316625
v 1.989975 2.177068 -4.132796
v 0.663325 2.314895 -4.485532
v -0.663325 2.314895 -4.485532
v -1.989975 2.177068 -4.132796
v -2.886751 -2.886751 -2.886751
v -3.316625 -3.316625 -1.732051
v -3.511884 -3.511884 -0.577350
v -3.511884 -3.511884 0.577350
v -3.316625 -3.316625 1.732051
v -3.316625 -1.732051 -3.316625
v -4.132796 -1.989975 -1.989975
v -4.485532 -2.107131 -0.663325
v -4.485532 -2.107131 0.663325
v -4.132796 -1.989975 1.989975
v -3.511884 -0.577350 -3.511884
v -4.485532 -0.663325 -2.107131
v -4.900340 -0.702377 -0.702377
v -4.900340 -0.702377 0.702377
v -4.485532 -0.663325 2.107131
v -3.511884 0.578229 -3.511884
v -4.485532 0.663325 -2.107131
v -4.900340 0.702377 -0.702377
v -4.900340 0.702377 0.702377
v -4.485532 0.663325 2.107131
v -3.316625 1.819630 -3.316625
v -4.132796 2.030207 -1.989975
v -4.485532 2.109630 -0.663325
v -4.485532 2.109630 0.663325
v -4.132796 2.030207 1.989975
v -2.886751 -2.886751 2.886751
v -1.732051 -3.316625 3.316625
v -0.577350 -3.511884 3.511884
v 0.577350 -3.511884 3.511884
v 1.732051 -3.316625 3.316625
v -3.316625 -1.732051 3.316625
v -1.989975 -1.989975 4.132796
v -0.663325 -2.107131 4.485532
v 0.663325 -2.107131 4.485532
v 1.989975 -1.989975 4.132796
v -3.511884 -0.577350 3.511884
v -2.107131 -0.663325 4.485532
v -0.702377 -0.702377 4.900340
v 0.702377 -0.702377 4.900340
v 2.107131 -0.663325 4.485532
v -3.511884 0.578229 3.511884
v -2.107131 0.680254 4.485532
v -0.702377 0.720939 4.900340
v 0.702377 0.720939 4.900340
v 2.107131 0.680254 4.485532
v -3.316625 1.819630 3.316625
v -1.989975 2.177068 4.132796
v -0.663325 2.314895 4.485532
v 0.663325 2.314895 4.485532
v 1.989975 2.177068 4.132796
v 2.886751 -2.886751 2.886751
v 3.316625 -3.316625 1.732051
v 3.511884 -3.511884 0.577350
v 3.511884 -3.511884 -0.577350
v 3.316625 -3.316625 -1.732051
v 3.316625 -1.732051 3.316625
v 4.132796 -1.989975 1.989975
v 4.485532 -2.107131 0.663325
v 4.485532 -2.107131 -0.663325
v 4.132796 -1.989975 -1.989975
v 3.511884 -0.577350 3.511884
v 4.485532 -0.663325 2.107131
v 4.900340 -0.702377 0.702377
v 4.900340 -0.702377 -0.702377
v 4.485532 -0.663325 -2.107131
v 3.511884 0.578229 3.511884
v 4.485532 0.663325 2.107131
v 4.900340 0.702377 0.702377
v 4.900340 0.702377 -0.702377
v 4.485532 0.663325 -2.107131
v 3.316625 1.819630 3.316625
v 4.132796 2.030207 1.989975
v 4.485532 2.109630 0.663325
v 4.485532 2.109630 -0.663325
v 4.132796 2.030207 -1.989975
v 1.989975 -4.132796 1.989975
v 0.663325 -4.485532 2.107131
v -0.663325 -4.485532 2.107131
v -1.989975 -4.132796 1.989975
v 2.107131 -4.485532 0.663325
v 0.702377 -4.900340 0.702377
v -0.702377 -4.900340 0.702377
v -2.107131 -4.485532 0.663325
v 2.107131 -4.485532 -0.663325
v 0.702377 -4.900340 -0.702377
v -0.702377 -4.900340 -0.702377
v -2.107131 -4.485532 -0.663325
v 1.989975 -4.132796 -1.989975
v 0.663325 -4.485532 -2.107131
v -0.663325 -4.485532 -2.107131
v -1.989975 -4.132796 -1.989975
v 2.886751 3.138265 -2.886751
v 1.732051 3.677224 -3.316625
v 0.577350 3.911122 -3.511884
v -0.577350 3.911122 -3.511884
v -1.732051 3.677224 -3.316625
v -2.886751 3.138265 -2.886751
v 3.316625 3.357212 -1.732051
v 1.989975 4.021032 -1.989975
v 0.663325 4.320046 -2.107131
v -0.663325 4.320046 -2.107131
v -1.989975 4.021032 -1.989975
v -3.316625 3.357212 -1.732051
v 3.511884 3.325907 -0.577350
v 2.107131 3.779311 -0.663325
v 0.702377 3.914020 -0.702377
v -0.702377 3.914020 -0.702377
v -2.107131 3.779311 -0.663325
v -3.511884 3.325907 -0.577350
v 3.511884 3.325907 0.577350
v 2.107131 3.779311 0.663325
v 0.702377 3.914020 0.702377
v -0.702377 3.914020 0.702377
v -2.107131 3.779311 0.663325
v -3.511884 3.325907 0.577350
v 3.316625 3.357212 1.732051
v 1.989975 4.021032 1.989975
v 0.663325 4.320046 2.107131
v -0.663325 4.320046 2.107131
v -1.989975 4.021032 1.989975
v -3.316625 3.357212 1.732051
v 2.886751 3.138265 2.886751
v 1.732051 3.677224 3.316625
v 0.577350 3.911122 3.511884
v -0.577350 3.911122 3.511884
v -1.732051 3.677224 3.316625
v -2.886751 3.138265 2.886751
v 4.485532 2.107131 0.000000
v 0.702377 -4.900340 0.000000
v -2.107131 3.595917 0.000000
v 4.900340 -0.702377 0.000000
v -4.485532 -2.107131 0.000000
v 3.511884 3.253715 0.000000
v -3.511884 -3.511884 0.000000
v 4.485532 -2.107131 0.000000
v -0.702377 -4.900340 0.000000
v -4.900340 -0.702377 0.000000
v -0.702377 3.664836 0.000000
v -4.900340 0.702377 0.000000
v -2.107131 -4.485532 0.000000
v 0.702377 3.664836 0.000000
v 3.511884 -3.511884 0.000000
v -4.485532 2.107131 0.000000
v -3.511884 3.253715 0.000000
v 2.107131 -4.485532 0.000000
v 4.900340 0.702377 0.000000
v 2.107131 3.595917 0.000000
v -0.459264 3.719667 0.000000
v -0.364853 3.845030 0.364853
v 0.364853 3.845030 -0.364853
v -0.364853 3.845030 -0.364853
v 0.459264 3.719667 0.000000
v 0.364853 3.845030 0.364853
v -0.373017 4.045115 0.041119
v -0.296336 3.988893 0.332073
v 0.296336 4.101338 -0.249834
v -0.296336 4.101338 -0.249834
v 0.373017 4.045115 0.041119
v 0.296336 3.988893 0.332073
v -0.335306 4.132221 0.037391
v -0.266377 4.113832 0.303133
v 0.266377 4.150609 -0.228350
v -0.266377 4.150609 -0.228350
v 0.335306 4.132221 0.037391
v 0.266377 4.113832 0.303133
vn 0.4956 -0.4956 -0.7133
vn 0.2455 -0.5527 -0.7964
vn 0.0000 -0.5697 -0.8219
vn -0.2455 -0.5527 -0.7964
vn -0.4956 -0.4956 -0.7133
vn 0.5527 -0.2455 -0.7964
vn 0.2747 -0.2747 -0.9215
vn 0.0000 -0.2832 -0.9591
vn -0.2747 -0.2747 -0.9215
vn -0.5527 -0.2455 -0.7964
vn 0.5697 0.0000 -0.8219
vn 0.2832 0.0000 -0.9591
vn 0.0000 0.0000 -1.0000
vn -0.2832 0.0000 -0.9591
vn -0.5697 0.0000 -0.8219
vn 0.5602 0.2235 -0.7976
vn 0.2771 0.2447 -0.9291
vn 0.0000 0.2518 -0.9678
vn -0.2771 0.2447 -0.9291
vn -0.5602 0.2235 -0.7976
vn 0.5252 0.4480 -0.7235
vn 0.2576 0.5048 -0.8239
vn 0.0000 0.5207 -0.8537
vn -0.2576 0.5048 -0.8239
vn -0.5252 0.4480 -0.7235
vn -0.7133 -0.4956 -0.4956
vn -0.7964 -0.5527 -0.2455
vn -0.8219 -0.5697 0.0000
vn -0.7964 -0.5527 0.2455
vn -0.7133 -0.4956 0.4956
vn -0.7964 -0.2455 -0.5527
vn -0.9215 -0.2747 -0.2747
vn -0.9591 -0.2832 0.0000
vn -0.9215 -0.2747 0.2747
vn -0.7964 -0.2455 0.5527
vn -0.8219 0.0000 -0.5697
vn -0.9591 0.0000 -0.2832
vn -1.0000 0.0000 0.0000
vn -0.9591 0.0000 0.2832
vn -0.8219 0.0000 0.5697
vn -0.8013 0.2343 -0.5504
vn -0.9236 0.2708 -0.2713
vn -0.9591 0.2830 -0.0005
vn -0.9236 0.2708 0.2713
vn -0.8013 0.2343 0.5504
vn -0.7516 0.4734 -0.4594
vn -0.7915 0.5822 -0.1861
vn -0.7718 0.6347 -0.0382
vn -0.7915 0.5822 0.1861
vn -0.7516 0.4734 0.4594
vn -0.4956 -0.4956 0.7133
vn -0.2455 -0.5527 0.7964
vn 0.0000 -0.5697 0.8219
vn 0.2455 -0.5527 0.7964
vn 0.4956 -0.4956 0.7133
vn -0.5527 -0.2455 0.7964
vn -0.2747 -0.2747 0.9215
vn 0.0000 -0.2832 0.9591
vn 0.2747 -0.2747 0.9215
vn 0.5527 -0.2455 0.7964
vn -0.5697 0.0000 0.8219
vn -0.2832 0.0000 0.9591
vn 0.0000 0.0000 1.0000
vn 0.2832 0.0000 0.9591
vn 0.5697 0.0000 0.8219
vn -0.5602 0.2235 0.7976
vn -0.2771 0.2447 0.9291
vn 0.0000 0.2518 0.9678
vn 0.2771 0.2447 0.9291
vn 0.5602 0.2235 0.7976
vn -0.5252 0.4480 0.7235
vn -0.2576 0.5048 0.8239
vn 0.0000 0.5207 0.8537
vn 0.2576 0.5048 0.8239
vn 0.5252 0.4480 0.7235
vn 0.7133 -0.4956 0.4956
vn 0.7964 -0.5527 0.2455
vn 0.8219 -0.5697 0.0000
vn 0.7964 -0.5527 -0.2455
vn 0.7133 -0.4956 -0.4956
vn 0.7964 -0.2455 0.5527
vn 0.9215 -0.2747 0.2747
vn 0.9591 -0.2832 0.0000
vn 0.9215 -0.2747 -0.2747
vn 0.7964 -0.2455 -0.5527
vn 0.8219 0.0000 0.5697
vn 0.9591 0.0000 0.2832
vn 1.0000 0.0000 0.0000
vn 0.9591 0.0000 -0.2832
vn 0.8219 0.0000 -0.5697
vn 0.8013 0.2343 0.5504
vn 0.9236 0.2708 0.2713
vn 0.9591 0.2830 0.0005
vn 0.9236 0.2708 -0.2713
vn 0.8013 0.2343 -0.5504
vn 0.7516 0.4734 0.4594
vn 0.7915 0.5822 0.1861
vn 0.7718 0.6347 0.0382
vn 0.7915 0.5822 -0.1861
vn 0.7516 0.4734 -0.4594
vn 0.4956 -0.7133 0.4956
vn 0.2455 -0.7964 0.5527
vn 0.0000 -0.8219 0.5697
vn -0.2455 -0.7964 0.5527
vn -0.4956 -0.7133 0.4956
vn 0.5527 -0.7964 0.2455
vn 0.2747 -0.9215 0.2747
vn 0.0000 -0.9591 0.2832
vn -0.2747 -0.9215 0.2747
vn -0.5527 -0.7964 0.2455
vn 0.5697 -0.8219 0.0000
vn 0.2832 -0.9591 0.0000
vn 0.0000 -1.0000 0.0000
vn -0.2832 -0.9591 0.0000
vn -0.5697 -0.8219 0.0000
vn 0.5527 -0.7964 -0.2455
vn 0.2747 -0.9215 -0.2747
vn 0.0000 -0.9591 -0.2832
vn -0.2747 -0.9215 -0.2747
vn -0.5527 -0.7964 -0.2455
vn 0.4956 -0.7133 -0.4956
vn 0.2455 -0.7964 -0.5527
vn 0.0000 -0.8219 -0.5697
vn -0.2455 -0.7964 -0.5527
vn -0.4956 -0.7133 -0.4956
vn 0.4835 0.8152 -0.3189
vn 0.2355 0.9290 -0.2857
vn 0.0000 0.9601 -0.2795
vn -0.2355 0.9290 -0.2857
vn -0.4835 0.8152 -0.3189
vn 0.3721 0.9266 0.0551
vn 0.1406 0.9651 0.2208
vn 0.0000 0.9607 0.2777
vn -0.1406 0.9651 0.2208
vn -0.3721 0.9266 0.0551
vn 0.2617 0.9453 -0.1947
vn 0.0648 0.9513 -0.3013
vn -0.1599 0.9358 0.3143
vn -0.0648 0.9513 -0.3013
vn -0.2617 0.9453 -0.1947
vn 0.3721 0.9266 -0.0551
vn 0.1406 0.9651 -0.2208
vn 0.0000 0.9607 -0.2777
vn -0.1406 0.9651 -0.2208
vn -0.3721 0.9266 -0.0551
vn 0.4835 0.8152 0.3189
vn 0.2355 0.9290 0.2857
vn 0.0000 0.9601 0.2795
vn -0.2355 0.9290 0.2857
vn -0.4835 0.8152 0.3189
vn -0.2617 0.9453 0.1947
vn -0.0648 0.9513 0.3013
vn -0.1599 0.9358 -0.3143
vn 0.0648 0.9513 0.3013
vn 0.2617 0.9453 0.1947
vn 0.7718 0.6347 -0.0382
vn 0.9591 0.2830 -0.0005
vn -0.7718 0.6347 0.0382
vn -0.9591 0.2830 0.0005
vn 0.1599 0.9358 -0.3143
vn 0.0000 0.9797 0.2003
vn 0.1599 0.9358 0.3143
vn 0.0000 0.9797 -0.2003
vn 0.9295 0.3028 0.2106
vn -0.9415 0.2945 -0.1641
vn 0.0000 0.3997 -0.9166
vn 0.0000 0.2257 0.9742
vn -0.9295 0.3028 0.2106
vn 0.9415 0.2945 -0.1641
vn 0.0000 0.2222 0.9750
vn 0.0000 0.4094 -0.9123
vn 0.0000 0.9976 0.0690
vn -0.8743 0.4556 -0.1676
vn 0.9012 0.3307 0.2801
vn -0.9012 0.3307 0.2801
vn 0.8743 0.4556 -0.1676
usemtl FF5722
s off
f 1//1 2//1 7//1 6//1
f 2//2 3//2 8//2 7//2
f 3//3 4//3 9//3 8//3
f 4//4 5//4 10//4 9//4
f 5//5 26//5 31//5 10//5
f 6//6 7//6 12//6 11//6
f 7//7 8//7 13//7 12//7
f 8//8 9//8 14//8 13//8
f 9//9 10//9 15//9 14//9
f 10//10 31//10 36//10 15//10
f 11//11 12//11 17//11 16//11
f 12//12 13//12 18//12 17//12
f 13//13 14//13 19//13 18//13
f 14//14 15//14 20//14 19//14
f 15//15 36//15 41//15 20//15
f 16//16 17//16 22//16 21//16
f 17//17 18//17 23//17 22//17
f 18//18 19//18 24//18 23//18
f 19//19 20//19 25//19 24//19
f 20//20 41//20 46//20 25//20
f 21//21 22//21 118//21 117//21
f 22//22 23//22 119//22 118//22
f 23//23 24//23 120//23 119//23
f 24//24 25//24 121//24 120//24
f 25//25 46//25 122//25 121//25
f 26//26 27//26 32//26 31//26
f 27//27 28//27 33//27 32//27
f 159//28 29//28 34//28 157//28
f 29//29 30//29 35//29 34//29
f 30//30 51//30 56//30 35//30
f 31//31 32//31 37//31 36//31
f 32//32 33//32 38//32 37//32
f 157//33 34//33 39//33 162//33
f 34//34 35//34 40//34 39//34
f 35//35 56//35 61//35 40//35
f 36//36 37//36 42//36 41//36
f 37//37 38//37 43//37 42//37
f 162//38 39//38 44//38 164//38
f 39//39 40//39 45//39 44//39
f 40//40 61//40 66//40 45//40
f 41//41 42//41 47//41 46//41
f 42//42 43//42 48//42 47//42
f 164//43 44//43 49//43 168//43
f 44//44 45//44 50//44 49//44
f 45//45 66//45 71//45 50//45
f 46//46 47//46 128//46 122//46
f 47//47 48//47 134//47 128//47
f 168//48 49//48 140//48 169//48
f 49//49 50//49 146//49 140//49
f 50//50 71//50 152//50 146//50
f 51//51 52//51 57//51 56//51
f 52//52 53//52 58//52 57//52
f 53//53 54//53 59//53 58//53
f 54//54 55//54 60//54 59//54
f 55//55 76//55 81//55 60//55
f 56//56 57//56 62//56 61//56
f 57//57 58//57 63//57 62//57
f 58//58 59//58 64//58 63//58
f 59//59 60//59 65//59 64//59
f 60//60 81//60 86//60 65//60
f 61//61 62//61 67//61 66//61
f 62//62 63//62 68//62 67//62
f 63//63 64//63 69//63 68//63
f 64//64 65//64 70//64 69//64
f 65//65 86//65 91//65 70//65
f 66//66 67//66 72//66 71//66
f 67//67 68//67 73//67 72//67
f 68//68 69//68 74//68 73//68
f 69//69 70//69 75//69 74//69
f 70//70 91//70 96//70 75//70
f 71//71 72//71 151//71 152//71
f 72//72 73//72 150//72 151//72
f 73//73 74//73 149//73 150//73
f 74//74 75//74 148//74 149//74
f 75//75 96//75 147//75 148//75
f 76//76 77//76 82//76 81//76
f 77//77 78//77 83//77 82//77
f 167//78 79//78 84//78 160//78
f 79//79 80//79 85//79 84//79
f 80//80 1//80 6//80 85//80
f 81//81 82//81 87//81 86//81
f 82//82 83//82 88//82 87//82
f 160//83 84//83 89//83 156//83
f 84//84 85//84 90//84 89//84
f 85//85 6//85 11//85 90//85
f 86//86 87//86 92//86 91//86
f 87//87 88//87 93//87 92//87
f 156//88 89//88 94//88 171//88
f 89//89 90//89 95//89 94//89
f 90//90 11//90 16//90 95//90
f 91//91 92//91 97//91 96//91
f 92//92 93//92 98//92 97//92
f 171//93 94//93 99//93 153//93
f 94//94 95//94 100//94 99//94
f 95//95 16//95 21//95 100//95
f 96//96 97//96 141//96 147//96
f 97//97 98//97 135//97 141//97
f 153//98 99//98 129//98 158//98
f 99//99 100//99 123//99 129//99
f 100//100 21//100 117//100 123//100
f 76//101 55//101 101//101 77//101
f 55//102 54//102 102//102 101//102
f 54//103 53//103 103//103 102//103
f 53//104 52//104 104//104 103//104
f 52//105 51//105 30//105 104//105
f 77//106 101//106 105//106 78//106
f 101//107 102//107 106//107 105//107
f 102//108 103//108 107//108 106//108
f 103//109 104//109 108//109 107//109
f 104//110 30//110 29//110 108//110
f 167//111 170//111 109//111 79//111
f 170//112 154//112 110//112 109//112
f 154//113 161//113 111//113 110//113
f 161//114 165//114 112//114 111//114
f 165//115 159//115 28//115 112//115
f 79//116 109//116 113//116 80//116
f 109//117 110//117 114//117 113//117
f 110//118 111//118 115//118 114//118
f 111//119 112//119 116//119 115//119
f 112//120 28//120 27//120 116//120
f 80//121 113//121 2//121 1//121
f 113//122 114//122 3//122 2//122
f 114//123 115//123 4//123 3//123
f 115//124 116//124 5//124 4//124
f 116//125 27//125 26//125 5//125
f 117//126 118//126 124//126 123//126
f 118//127 119//127 125//127 124//127
f 119//128 120//128 126//128 125//128
f 120//129 121//129 127//129 126//129
f 121//130 122//130 128//130 127//130
f 123//131 124//131 130//131 129//131
f 124//132 125//132 131//132 130//132
f 125//133 126//133 132//133 131//133
f 126//134 127//134 133//134 132//134
f 127//135 128//135 134//135 133//135
f 158//136 172//136 136//136 135//136
f 172//137 166//137 137//137 136//137
f 132//138 163//138 173//138 176//138
f 163//139 155//139 139//139 138//139
f 155//140 169//140 140//140 139//140
f 135//141 136//141 142//141 141//141
f 136//142 137//142 143//142 142//142
f 137//143 138//143 144//143 143//143
f 138//144 139//144 145//144 144//144
f 139//145 140//145 146//145 145//145
f 141//146 142//146 148//146 147//146
f 142//147 143//147 149//147 148//147
f 143//148 144//148 150//148 149//148
f 144//149 145//149 151//149 150//149
f 145//150 146//150 152//150 151//150
f 133//151 134//151 169//151 155//151
f 132//152 133//152 155//152 163//152
f 163//153 138//153 174//153 173//153
f 130//154 131//154 166//154 172//154
f 129//155 130//155 172//155 158//155
f 108//115 29//115 159//115 165//115
f 107//114 108//114 165//114 161//114
f 106//113 107//113 161//113 154//113
f 105//112 106//112 154//112 170//112
f 78//111 105//111 170//111 167//111
f 98//156 153//156 158//156 135//156
f 93//157 171//157 153//157 98//157
f 88//88 156//88 171//88 93//88
f 83//83 160//83 156//83 88//83
f 78//78 167//78 160//78 83//78
f 48//158 168//158 169//158 134//158
f 43//159 164//159 168//159 48//159
f 38//38 162//38 164//38 43//38
f 33//33 157//33 162//33 38//33
f 28//28 159//28 157//28 33//28
f 137//160 166//160 177//160 178//160
f 131//161 132//161 176//161 175//161
f 166//162 131//162 175//162 177//162
f 138//163 137//163 178//163 174//163
usemtl 795548
f 178//164 177//164 183//164 184//164
f 176//165 173//165 179//165 182//165
f 181//166 182//166 188//166 187//166
f 180//167 184//167 190//167 186//167
f 173//168 174//168 180//168 179//168
f 177//169 175//169 181//169 183//169
f 174//170 178//170 184//170 180//170
f 175//171 176//171 182//171 181//171
f 189//172 185//172 186//172 190//172
f 187//172 188//172 185//172 189//172
f 182//173 179//173 185//173 188//173
f 184//174 183//174 189//174 190//174
f 179//175 180//175 186//175 185//175
f 183//176 181//176 187//176 189//176
