# Blender v2.90.1 OBJ File: 'untitled.blend'
# www.blender.org
mtllib simplePeach.mtl
o peach_Roundcube.001
v 3.232236 -3.206668 -2.406603
v 1.732051 -3.316625 -3.316626
v 1.989975 -1.989974 -4.132796
v 3.881481 -1.913773 -2.764976
v 0.000000 -3.511883 -3.511884
v 0.000000 -2.107130 -4.485532
v -1.732051 -3.316625 -3.316626
v -1.989975 -1.989974 -4.132796
v -3.232236 -3.206668 -2.406603
v -3.881481 -1.913773 -2.764976
v 2.178236 -0.044370 -4.544074
v 4.214343 -0.016470 -2.972686
v 0.000000 -0.702376 -4.900340
v -2.178600 -0.032655 -4.539744
v -4.240991 0.014348 -2.942594
v 0.000000 0.720940 -4.900340
v 1.989975 2.177069 -4.132795
v 3.881481 2.031506 -2.764976
v 0.000000 2.314896 -4.485531
v -1.989975 2.177069 -4.132795
v -3.881481 2.031506 -2.764976
v 1.732051 3.677224 -3.316624
v 3.101688 3.247739 -2.309401
v 0.000000 3.911123 -3.511883
v -1.732051 3.677224 -3.316624
v -3.101688 3.247739 -2.309401
v -4.485532 -2.107131 -0.663325
v -3.536900 -3.581170 0.064082
v -4.485532 -2.107131 0.663325
v -3.232236 -3.206669 2.406602
v -3.881481 -1.913774 2.764976
v -4.900340 -0.702377 -0.702377
v -4.900340 -0.702377 0.702377
v -4.215924 -0.016712 2.971318
v -4.900340 0.702377 -0.702377
v -4.900340 0.702377 0.702377
v -4.485532 2.109630 -0.663325
v -4.485532 2.109630 0.663325
v -3.881481 2.031505 2.764976
v -3.593993 3.247839 0.062599
v -3.101688 3.247738 2.309402
v -1.732051 -3.316626 3.316625
v -1.989975 -1.989976 4.132795
v 0.000000 -3.511884 3.511883
v 0.000000 -2.107132 4.485531
v 1.732051 -3.316626 3.316625
v 1.989975 -1.989976 4.132795
v 3.232236 -3.206669 2.406602
v 3.881481 -1.913774 2.764976
v -2.107131 -0.663326 4.485532
v 0.000000 -0.702378 4.900340
v 2.178600 -0.032657 4.539744
v 4.258083 0.013706 2.928134
v -2.107131 0.680253 4.485532
v 0.000000 0.720938 4.900340
v -1.989975 2.177067 4.132796
v 0.000000 2.314894 4.485532
v 1.989975 2.177067 4.132796
v 3.881481 2.031505 2.764976
v -1.732051 3.677223 3.316626
v 0.000000 3.911122 3.511885
v 1.732051 3.677223 3.316626
v 3.101688 3.247738 2.309402
v 3.511884 -3.511884 0.577349
v 4.485532 -2.107131 0.883900
v 3.320937 -3.374230 -0.000001
v 3.511884 -3.511884 -0.577351
v 4.485532 -2.107131 -0.883901
v 4.254796 -2.026884 -0.000000
v 4.900340 -0.702377 1.065133
v 4.900340 -0.702377 -1.065133
v 4.652652 -0.679537 -0.000000
v 4.900340 0.702377 1.065133
v 4.900340 0.702377 -1.065133
v 4.652652 0.667810 0.000000
v 4.485532 2.109630 0.883901
v 4.485532 2.109630 -0.883900
v 4.254796 2.015157 0.000000
v 3.511884 3.325907 0.577351
v 3.511884 3.325907 -0.577349
v 3.320937 3.114885 0.000001
v 1.989975 -4.132796 1.989974
v 0.000000 -4.485532 2.107130
v -1.989975 -4.132796 1.989974
v 2.107131 -4.485532 0.208105
v 0.000000 -4.900340 -0.000001
v -2.089649 -4.527931 -0.000001
v 1.869833 -4.489656 -0.052707
v 1.989975 -4.132795 -1.989976
v 0.000000 -4.485531 -2.107132
v -1.989975 -4.132795 -1.989976
v 1.989975 4.021032 -1.989974
v 0.000000 4.320046 -2.107130
v -1.989975 4.021032 -1.989974
v 2.107131 3.779311 -0.663324
v 0.000000 3.914020 -0.702376
v -2.486399 3.572349 -0.026397
v 0.705768 3.663599 0.005109
v 2.107131 3.779311 0.663326
v 0.000000 3.914020 0.702378
v -0.526243 3.688227 0.102541
v -0.364853 3.845030 -0.364852
v 1.989975 4.021031 1.989976
v 0.000000 4.320045 2.107132
v -1.989975 4.021031 1.989976
v -0.314220 3.933881 0.356045
v 0.416786 3.791231 -0.306626
v 0.364853 3.845030 0.364854
v 0.315750 4.126627 0.265916
v -0.325694 4.156664 -0.184638
v 0.274010 4.147988 -0.229183
vn -0.2505 0.0252 -0.9678
vn -0.2155 -0.0755 -0.9736
vn -0.2497 -0.0281 -0.9679
vn -0.8143 0.5722 0.0971
vn -0.7872 0.6166 0.0000
vn -0.8121 0.5750 -0.0990
vn -0.9834 -0.0311 0.1789
vn -0.9845 0.0100 0.1753
vn -0.9845 -0.0095 0.1752
vn 0.2505 0.0252 0.9678
vn 0.2155 -0.0755 0.9736
vn 0.2497 -0.0281 0.9679
vn 0.9722 -0.0358 -0.2313
vn 0.9739 0.0118 -0.2266
vn 0.9739 -0.0112 -0.2265
vn 0.3824 -0.7711 0.5091
vn 0.3826 -0.7710 0.5091
vn -0.3826 -0.7710 0.5091
vn -0.3824 -0.7711 0.5091
vn 0.5596 -0.7452 0.3627
vn -0.8889 -0.4581 0.0079
vn -0.8006 -0.5978 0.0409
vn -0.8752 -0.4777 0.0761
vn 0.3824 -0.7711 -0.5091
vn 0.3826 -0.7710 -0.5091
vn -0.3824 -0.7711 -0.5091
vn -0.3826 -0.7710 -0.5091
vn 0.4835 0.8152 -0.3189
vn -0.4835 0.8152 -0.3189
vn -0.6462 -0.3878 -0.6573
vn -0.5839 -0.7091 0.3953
vn -0.6809 -0.6023 -0.4167
vn -0.0449 0.9355 -0.3504
vn -0.0092 0.9409 -0.3385
vn -0.0445 0.9356 -0.3504
vn 0.4835 0.8152 0.3189
vn -0.4835 0.8152 0.3189
vn -0.0489 0.9691 0.2417
vn -0.0843 0.9645 0.2503
vn -0.0791 0.9645 0.2520
vn 0.3061 -0.9505 -0.0536
vn 0.2682 -0.9591 -0.0904
vn 0.2185 -0.9545 -0.2029
vn 0.4707 -0.7310 0.4941
vn 0.2716 -0.6889 -0.6721
vn 0.4688 -0.8712 0.1457
vn 0.0480 0.9672 0.2496
vn 0.1303 0.9896 -0.0614
vn 0.4422 0.8790 -0.1783
vn 0.5426 0.8238 -0.1638
vn 0.6152 0.7811 -0.1068
vn 0.2958 0.9441 0.1459
vn 0.3037 0.9399 0.1561
vn -0.2947 0.9377 -0.1840
vn -0.2887 0.9472 -0.1397
vn -0.3077 0.9467 -0.0950
vn -0.5351 0.8349 0.1289
vn -0.5550 0.8233 0.1192
vn -0.5437 0.8308 0.1192
vn 0.2455 -0.5528 -0.7964
vn 0.2455 -0.5527 -0.7964
vn -0.2455 -0.5528 -0.7964
vn -0.2455 -0.5527 -0.7964
vn -0.4168 -0.4915 -0.7647
vn -0.4188 -0.4907 -0.7641
vn -0.4171 -0.4901 -0.7654
vn -0.4183 -0.4922 -0.7634
vn 0.4940 -0.2049 -0.8449
vn 0.4946 -0.2087 -0.8437
vn 0.4936 -0.2085 -0.8443
vn 0.4951 -0.2043 -0.8444
vn 0.2938 -0.2233 -0.9294
vn 0.2931 -0.2397 -0.9255
vn 0.2947 -0.2475 -0.9230
vn 0.2925 -0.2464 -0.9240
vn -0.2951 -0.2210 -0.9296
vn -0.2937 -0.2444 -0.9241
vn -0.2961 -0.2456 -0.9230
vn -0.2943 -0.2377 -0.9257
vn -0.4958 -0.2003 -0.8450
vn -0.4973 -0.1994 -0.8444
vn -0.4956 -0.2022 -0.8447
vn -0.4967 -0.2046 -0.8435
vn 0.4960 0.1819 -0.8491
vn 0.4971 0.1833 -0.8481
vn 0.4961 0.1816 -0.8491
vn 0.4974 0.1812 -0.8484
vn 0.4168 -0.4915 -0.7646
vn 0.4181 -0.4928 -0.7631
vn 0.4171 -0.4901 -0.7654
vn 0.4189 -0.4907 -0.7640
vn 0.2488 0.0248 -0.9682
vn 0.2477 -0.0286 -0.9684
vn 0.2133 -0.0758 -0.9740
vn 0.2980 0.2189 -0.9291
vn 0.2962 0.2097 -0.9318
vn 0.2960 0.1907 -0.9360
vn 0.2957 0.2178 -0.9301
vn -0.2983 0.2185 -0.9291
vn -0.2959 0.2175 -0.9301
vn -0.2964 0.1908 -0.9358
vn -0.2965 0.2095 -0.9318
vn -0.4963 0.1811 -0.8491
vn -0.4977 0.1804 -0.8484
vn -0.4964 0.1805 -0.8491
vn -0.4975 0.1813 -0.8483
vn 0.4734 0.5061 -0.7209
vn 0.4660 0.5054 -0.7263
vn 0.4724 0.5066 -0.7212
vn 0.4657 0.5056 -0.7263
vn 0.2576 0.5048 -0.8239
vn 0.2576 0.5049 -0.8239
vn -0.2576 0.5048 -0.8239
vn -0.2576 0.5049 -0.8239
vn -0.4734 0.5061 -0.7209
vn -0.4657 0.5056 -0.7263
vn -0.4725 0.5066 -0.7212
vn -0.4660 0.5053 -0.7263
vn -0.8222 -0.5540 -0.1305
vn -0.8076 -0.5741 -0.1349
vn -0.8090 -0.5731 -0.1307
vn -0.8208 -0.5554 -0.1335
vn -0.9934 0.0769 0.0845
vn -0.9931 0.1169 0.0014
vn -0.9937 0.0097 -0.1113
vn -0.9934 -0.0777 0.0838
vn -0.8230 -0.5512 0.1368
vn -0.8220 -0.5522 0.1394
vn -0.8122 -0.5669 0.1375
vn -0.8109 -0.5679 0.1408
vn -0.9437 -0.2577 -0.2073
vn -0.9372 -0.2749 -0.2146
vn -0.9466 -0.2475 -0.2067
vn -0.9459 -0.2473 -0.2099
vn -0.9442 -0.2553 0.2084
vn -0.9461 -0.2455 0.2112
vn -0.9468 -0.2456 0.2078
vn -0.9381 -0.2713 0.2154
vn -0.9500 0.2410 -0.1986
vn -0.9405 0.2697 -0.2066
vn -0.9466 0.2532 -0.1995
vn -0.9489 0.2424 -0.2018
vn -0.9843 -0.0343 -0.1732
vn -0.9856 -0.0101 -0.1686
vn -0.9856 0.0097 -0.1687
vn -0.9506 0.2352 0.2024
vn -0.9495 0.2367 0.2062
vn -0.9473 0.2478 0.2032
vn -0.9411 0.2643 0.2110
vn -0.7459 0.6594 -0.0937
vn -0.7450 0.6609 -0.0905
vn -0.7655 0.6370 -0.0903
vn -0.7622 0.6415 -0.0866
vn -0.7499 0.6539 0.1003
vn -0.7630 0.6398 0.0928
vn -0.7654 0.6362 0.0970
vn -0.7485 0.6561 0.0964
vn -0.4168 -0.4915 0.7646
vn -0.4181 -0.4928 0.7631
vn -0.4171 -0.4901 0.7654
vn -0.4189 -0.4907 0.7640
vn -0.2454 -0.5528 0.7964
vn -0.2455 -0.5528 0.7964
vn -0.2455 -0.5527 0.7964
vn 0.2454 -0.5528 0.7964
vn 0.2455 -0.5527 0.7964
vn 0.2455 -0.5528 0.7964
vn 0.4168 -0.4915 0.7646
vn 0.4189 -0.4907 0.7640
vn 0.4171 -0.4901 0.7654
vn 0.4183 -0.4922 0.7634
vn -0.4989 -0.2288 0.8359
vn -0.5019 -0.2457 0.8293
vn -0.4998 -0.2204 0.8376
vn -0.5027 -0.2191 0.8362
vn -0.2747 -0.2746 0.9215
vn -0.2746 -0.2746 0.9215
vn -0.2746 -0.2747 0.9215
vn 0.2951 -0.2209 0.9296
vn 0.2937 -0.2444 0.9241
vn 0.2961 -0.2456 0.9230
vn 0.2943 -0.2377 0.9257
vn 0.4961 -0.2001 0.8449
vn 0.4975 -0.1992 0.8443
vn 0.4958 -0.2019 0.8446
vn 0.4969 -0.2043 0.8434
vn -0.2832 0.0000 0.9591
vn -0.4856 -0.0287 0.8737
vn -0.4830 -0.0089 0.8756
vn -0.4830 0.0094 0.8756
vn -0.5039 0.1947 0.8415
vn -0.5057 0.2265 0.8324
vn -0.5025 0.2078 0.8392
vn -0.5066 0.1968 0.8394
vn -0.2771 0.2448 0.9291
vn -0.2771 0.2447 0.9292
vn 0.2983 0.2185 0.9291
vn 0.2959 0.2175 0.9301
vn 0.2964 0.1908 0.9358
vn 0.2965 0.2095 0.9318
vn 0.4965 0.1807 0.8490
vn 0.4979 0.1801 0.8483
vn 0.4966 0.1802 0.8490
vn 0.4978 0.1811 0.8482
vn -0.4734 0.5061 0.7209
vn -0.4660 0.5054 0.7263
vn -0.4724 0.5066 0.7212
vn -0.4657 0.5056 0.7263
vn -0.2576 0.5048 0.8239
vn -0.2576 0.5049 0.8239
vn 0.2576 0.5048 0.8239
vn 0.2576 0.5049 0.8239
vn 0.4734 0.5061 0.7209
vn 0.4657 0.5056 0.7263
vn 0.4724 0.5066 0.7212
vn 0.4660 0.5054 0.7263
vn 0.8116 -0.5602 0.1660
vn 0.8058 -0.5673 0.1698
vn 0.8072 -0.5663 0.1666
vn 0.8111 -0.5600 0.1688
vn 0.7977 -0.5187 0.3076
vn 0.8116 -0.5602 -0.1660
vn 0.8111 -0.5600 -0.1688
vn 0.8072 -0.5663 -0.1666
vn 0.8058 -0.5673 -0.1698
vn 0.9296 -0.2701 0.2506
vn 0.9190 -0.2954 0.2612
vn 0.9309 -0.2654 0.2508
vn 0.9315 -0.2588 0.2556
vn 0.9345 -0.2599 0.2431
vn 0.9303 -0.2651 -0.2535
vn 0.9317 -0.2545 -0.2591
vn 0.9313 -0.2612 -0.2538
vn 0.9204 -0.2886 -0.2639
vn 0.9740 -0.0000 0.2265
vn 0.9749 -0.0383 0.2192
vn 0.9768 -0.0121 0.2137
vn 0.9768 0.0116 0.2137
vn 0.9356 0.2577 0.2412
vn 0.9235 0.2893 0.2517
vn 0.9337 0.2649 0.2410
vn 0.9357 0.2530 0.2460
vn 0.9338 0.2593 0.2464
vn 0.9362 0.2495 -0.2474
vn 0.9359 0.2448 -0.2532
vn 0.9343 0.2569 -0.2472
vn 0.9242 0.2810 -0.2587
vn 0.7488 0.6482 0.1383
vn 0.7497 0.6485 0.1321
vn 0.7560 0.6404 0.1358
vn 0.7543 0.6435 0.1304
vn 0.7485 0.5720 0.3356
vn 0.7488 0.6482 -0.1383
vn 0.7543 0.6435 -0.1304
vn 0.7560 0.6404 -0.1358
vn 0.7497 0.6485 -0.1321
vn 0.2455 -0.7964 0.5528
vn 0.2455 -0.7964 0.5527
vn -0.2455 -0.7964 0.5528
vn -0.2455 -0.7964 0.5527
vn 0.5077 -0.8474 0.1552
vn 0.4977 -0.8522 0.1613
vn 0.4992 -0.8512 0.1619
vn 0.5041 -0.8494 0.1559
vn 0.3004 -0.9228 0.2410
vn 0.3024 -0.9198 0.2500
vn 0.2975 -0.9217 0.2489
vn 0.3102 -0.9232 0.2268
vn -0.3029 -0.9235 0.2355
vn -0.3138 -0.9251 0.2139
vn -0.2981 -0.9217 0.2481
vn -0.3037 -0.9199 0.2482
vn -0.5085 -0.8482 0.1482
vn -0.5070 -0.8493 0.1473
vn -0.5064 -0.8491 0.1503
vn -0.5050 -0.8501 0.1493
vn 0.4678 -0.8748 -0.1261
vn 0.4717 -0.8730 -0.1242
vn 0.4822 -0.8686 -0.1146
vn 0.4766 -0.8709 -0.1196
vn 0.3132 -0.9212 -0.2308
vn 0.3248 -0.9189 -0.2239
vn 0.3206 -0.9238 -0.2095
vn 0.3305 -0.9220 -0.2015
vn -0.2981 -0.9217 -0.2481
vn -0.3138 -0.9251 -0.2139
vn -0.3028 -0.9235 -0.2355
vn -0.3037 -0.9199 -0.2482
vn -0.5140 -0.8454 -0.1449
vn -0.5127 -0.8466 -0.1431
vn -0.5135 -0.8457 -0.1451
vn -0.5124 -0.8467 -0.1436
vn 0.2455 -0.7964 -0.5528
vn 0.2454 -0.7964 -0.5528
vn 0.2455 -0.7964 -0.5527
vn -0.2455 -0.7964 -0.5528
vn -0.2455 -0.7964 -0.5527
vn -0.2454 -0.7964 -0.5528
vn 0.2354 0.9290 -0.2856
vn 0.2355 0.9289 -0.2857
vn 0.2355 0.9290 -0.2856
vn 0.2355 0.9290 -0.2857
vn -0.2354 0.9290 -0.2856
vn -0.2355 0.9290 -0.2857
vn -0.2355 0.9290 -0.2856
vn -0.2355 0.9289 -0.2857
vn 0.1406 0.9651 0.2208
vn -0.1440 0.9608 0.2370
vn -0.1440 0.9634 0.2262
vn -0.1439 0.9645 0.2214
vn -0.1436 0.9637 0.2251
vn -0.3831 0.9203 0.0791
vn -0.3892 0.9176 0.0807
vn -0.3771 0.9232 0.0746
vn -0.3771 0.9233 0.0729
vn 0.2013 0.8513 -0.4845
vn 0.3721 0.9266 -0.0551
vn 0.3720 0.9266 -0.0551
vn 0.0757 0.9490 -0.3062
vn 0.0681 0.9479 -0.3112
vn 0.0402 0.9499 -0.3101
vn 0.1406 0.9651 -0.2208
vn -0.1419 0.9655 -0.2185
vn -0.1421 0.9644 -0.2231
vn -0.1418 0.9617 -0.2347
vn -0.1416 0.9646 -0.2225
vn 0.2355 0.9290 0.2856
vn 0.2355 0.9289 0.2857
vn 0.2354 0.9290 0.2856
vn 0.2355 0.9290 0.2857
vn -0.2355 0.9290 0.2856
vn -0.2355 0.9290 0.2857
vn -0.2354 0.9290 0.2856
vn -0.2355 0.9289 0.2857
vn 0.2027 0.8521 0.4826
vn -0.6335 0.5280 0.5656
vn -0.5872 0.6742 0.4479
vn -0.8410 0.4362 0.3201
vn 0.0404 0.9511 0.3063
vn 0.0681 0.9491 0.3074
vn 0.0759 0.9502 0.3023
vn -0.9762 -0.2019 0.0788
vn -0.9846 -0.1746 0.0088
vn -0.9594 -0.2656 -0.0946
vn -0.9353 -0.3441 0.0820
vn 0.5776 -0.7072 -0.4078
vn 0.7485 0.5720 -0.3356
vn 0.9338 0.2593 -0.2464
vn 0.9740 0.0000 -0.2265
vn 0.9345 -0.2599 -0.2431
vn 0.7977 -0.5187 -0.3076
vn -0.9765 0.2008 0.0780
vn -0.9292 0.3630 0.0693
vn -0.9292 0.3631 -0.0693
vn -0.9516 0.2841 -0.1168
vn -0.3000 0.8876 -0.3494
vn 0.2908 0.7912 -0.5379
vn -0.0413 0.6943 -0.7185
vn 0.4610 -0.0297 -0.8869
vn 0.7342 0.1381 -0.6648
vn 0.7937 -0.0814 -0.6029
vn -0.8397 0.4956 0.2220
vn 0.0175 0.9990 0.0416
vn 0.0269 0.3576 -0.9335
vn 0.0256 0.3630 -0.9314
vn 0.0258 0.3583 -0.9333
vn 0.9795 0.1920 0.0604
vn -0.9371 0.2553 -0.2379
vn 0.9220 0.3823 -0.0612
vn 0.0318 0.3362 0.9412
vn 0.0301 0.3364 0.9413
vn 0.0330 0.3374 0.9408
vn -0.2216 0.8999 0.3755
usemtl FF5722.001
s off
f 13//1 14//2 16//3
f 38//4 40//5 37//6
f 34//7 36//8 33//9
f 51//10 52//11 55//12
f 12//13 74//14 71//15
f 48//16 46//17 82//16
f 42//18 30//19 84//19
f 66//20 88//20 67//20
f 27//21 28//22 29//23
f 1//24 89//24 2//25
f 91//26 9//26 7//27
f 23//28 22//28 92//28
f 25//29 26//29 94//29
f 96//30 101//31 102//32
f 101//33 97//34 100//35
f 63//36 103//36 62//36
f 105//37 41//37 60//37
f 97//38 101//39 96//40
f 85//41 86//42 88//43
f 100//44 107//45 108//46
f 96//47 102//47 107//47
f 100//48 108//48 106//48
f 23//49 92//50 80//51
f 95//52 80//52 92//53
f 97//54 40//55 105//56
f 41//57 105//58 40//59
f 6//60 3//60 2//61 5//61
f 6//62 5//63 7//63 8//62
f 8//64 7//65 9//66 10//67
f 11//68 12//69 4//70 3//71
f 13//72 11//73 3//74 6//75
f 13//76 6//77 8//78 14//79
f 14//80 8//81 10//82 15//83
f 18//84 12//85 11//86 17//87
f 3//88 4//89 1//90 2//91
f 13//92 16//93 11//94
f 17//95 11//96 16//97 19//98
f 20//99 19//100 16//101 14//102
f 21//103 20//104 14//105 15//106
f 23//107 18//108 17//109 22//110
f 22//111 17//112 19//111 24//111
f 25//113 24//113 19//113 20//114
f 26//115 25//116 20//117 21//118
f 27//119 10//120 9//121 28//122
f 36//123 35//124 32//125 33//126
f 29//127 28//128 30//129 31//130
f 32//131 15//132 10//133 27//134
f 33//135 29//136 31//137 34//138
f 21//139 15//140 35//141 37//142
f 15//143 32//144 35//145
f 39//146 38//147 36//148 34//149
f 26//150 21//151 37//152 40//153
f 41//154 40//155 38//156 39//157
f 43//158 31//159 30//160 42//161
f 45//162 43//163 42//163 44//164
f 45//165 44//166 46//167 47//167
f 47//168 46//169 48//170 49//171
f 50//172 34//173 31//174 43//175
f 51//176 50//177 43//177 45//178
f 51//179 45//180 47//181 52//182
f 52//183 47//184 49//185 53//186
f 54//187 50//187 51//187 55//187
f 34//188 50//189 54//190
f 39//191 34//192 54//193 56//194
f 56//195 54//195 55//196 57//196
f 58//197 57//198 55//199 52//200
f 59//201 58//202 52//203 53//204
f 41//205 39//206 56//207 60//208
f 60//209 56//210 57//209 61//209
f 62//211 61//211 57//211 58//212
f 63//213 62//214 58//215 59//216
f 65//217 49//218 48//219 64//220
f 69//221 66//221 67//221 68//221
f 68//222 67//223 1//224 4//225
f 70//226 53//227 49//228 65//229
f 72//230 69//230 68//230 71//230
f 71//231 68//232 4//233 12//234
f 75//235 72//235 71//235 74//235
f 53//236 70//237 73//238
f 59//239 53//240 73//241 76//242
f 77//243 78//243 75//243 74//243
f 18//244 77//245 74//246 12//247
f 63//248 59//249 76//250 79//251
f 80//252 81//252 78//252 77//252
f 23//253 80//254 77//255 18//256
f 83//257 82//257 46//258 44//258
f 83//259 44//260 42//260 84//259
f 64//261 48//262 82//263 85//264
f 85//265 82//266 83//267 86//268
f 87//269 86//270 83//271 84//272
f 28//273 87//274 84//275 30//276
f 89//277 1//278 67//279 88//280
f 90//281 89//282 88//283 86//284
f 90//285 86//286 87//287 91//288
f 91//289 87//290 28//291 9//292
f 2//293 89//293 90//294 5//295
f 7//296 5//297 90//298 91//296
f 93//299 92//300 22//301 24//302
f 93//303 24//304 25//305 94//306
f 96//307 95//307 92//307 93//307
f 96//308 93//309 94//310 97//311
f 97//312 94//313 26//314 40//315
f 99//316 79//316 81//316 98//316
f 63//317 79//317 99//317 103//318
f 98//319 100//320 99//321
f 103//322 99//322 100//322 104//322
f 105//323 104//324 100//325 97//326
f 62//327 103//328 104//329 61//330
f 60//331 61//332 104//333 105//334
f 81//335 80//335 95//335 98//335
f 101//336 100//337 106//338
f 95//339 96//340 98//341
f 33//342 32//343 27//344 29//345
f 66//346 64//346 85//346 88//346
f 79//347 76//347 78//347 81//347
f 76//348 73//348 75//348 78//348
f 75//349 73//349 70//349 72//349
f 72//350 70//350 65//350 69//350
f 69//351 65//351 64//351 66//351
f 36//352 38//353 37//354 35//355
f 100//356 98//357 107//358
f 98//359 96//360 107//361
usemtl 795548.001
f 106//362 110//362 101//362
f 110//363 109//363 111//363
f 111//364 107//365 102//365 110//366
f 108//367 107//367 109//367
f 102//368 101//368 110//368
f 107//369 111//369 109//369
f 108//370 109//371 106//372
f 110//373 106//373 109//373
