# Blender v2.90.1 OBJ File: 'apple.blend'
# www.blender.org
mtllib SmoothPeachobj.mtl
o peach_Roundcube.006
v 2.886751 -2.886750 -2.886751
v 1.732051 -3.316625 -3.316626
v 1.989975 -1.989974 -4.132796
v 3.316625 -1.732050 -3.316625
v 0.577350 -3.511883 -3.511884
v 0.663325 -2.107130 -4.485532
v -0.577350 -3.511883 -3.511884
v -0.663325 -2.107130 -4.485532
v -1.732051 -3.316625 -3.316626
v -1.989975 -1.989974 -4.132796
v -2.886751 -2.886750 -2.886751
v -3.316625 -1.732050 -3.316625
v 2.107131 -0.663324 -4.485532
v 3.511884 -0.577349 -3.511884
v 0.702377 -0.702376 -4.900340
v -0.702377 -0.702376 -4.900340
v -2.107131 -0.663324 -4.485532
v -3.511884 -0.577349 -3.511884
v 2.107131 0.680255 -4.485532
v 3.511884 0.578230 -3.511884
v 0.702377 0.720940 -4.900340
v -0.702377 0.720940 -4.900340
v -2.107131 0.680255 -4.485532
v -3.511884 0.578230 -3.511884
v 1.989975 2.177069 -4.132795
v 3.316625 1.819631 -3.316625
v 0.663325 2.314896 -4.485531
v -0.663325 2.314896 -4.485531
v -1.989975 2.177069 -4.132795
v -3.316625 1.819631 -3.316625
v 1.732051 3.677224 -3.316624
v 2.886751 3.138265 -2.886750
v 0.577350 3.911123 -3.511883
v -0.577350 3.911123 -3.511883
v -1.732051 3.677224 -3.316624
v -2.886751 3.138265 -2.886750
v -3.316625 -3.316625 -1.732052
v -4.132796 -1.989975 -1.989975
v -3.511884 -3.511884 -0.577351
v -4.485532 -2.107131 -0.663325
v -3.511884 -3.511884 -0.000001
v -3.511884 -3.511884 0.577349
v -4.485532 -2.107131 0.663325
v -4.485532 -2.107131 -0.000000
v -3.316625 -3.316625 1.732050
v -4.132796 -1.989975 1.989975
v -2.886751 -2.886751 2.886750
v -3.316625 -1.732052 3.316625
v -4.485532 -0.663325 -2.107131
v -4.900340 -0.702377 -0.702377
v -4.900340 -0.702377 0.702377
v -4.900340 -0.702377 -0.000000
v -4.485532 -0.663325 2.107131
v -3.511884 -0.577351 3.511884
v -4.485532 0.663325 -2.107131
v -4.900340 0.702377 -0.702377
v -4.900340 0.702377 0.702377
v -4.900340 0.702377 0.000000
v -4.485532 0.663325 2.107131
v -3.511884 0.578228 3.511884
v -4.132796 2.030207 -1.989975
v -4.485532 2.109630 -0.663325
v -4.485532 2.109630 0.663325
v -4.485532 2.107131 0.000000
v -4.132796 2.030207 1.989975
v -3.316625 1.819629 3.316625
v -3.316625 3.357212 -1.732050
v -3.511884 3.325907 -0.577349
v -3.511884 3.325907 0.577351
v -3.511884 3.253715 0.000001
v -3.316625 3.357212 1.732052
v -2.886751 3.138264 2.886751
v -1.732051 -3.316626 3.316625
v -1.989975 -1.989976 4.132795
v -0.577350 -3.511884 3.511883
v -0.663325 -2.107132 4.485531
v 0.577350 -3.511884 3.511883
v 0.663325 -2.107132 4.485531
v 1.732051 -3.316626 3.316625
v 1.989975 -1.989976 4.132795
v 2.886751 -2.886751 2.886750
v 3.316625 -1.732052 3.316625
v -2.107131 -0.663326 4.485532
v -0.702377 -0.702378 4.900340
v 0.702377 -0.702378 4.900340
v 2.107131 -0.663326 4.485532
v 3.511884 -0.577351 3.511884
v -2.107131 0.680253 4.485532
v -0.702377 0.720938 4.900340
v 0.702377 0.720938 4.900340
v 2.107131 0.680253 4.485532
v 3.511884 0.578228 3.511884
v -1.989975 2.177067 4.132796
v -0.663325 2.314894 4.485532
v 0.663325 2.314894 4.485532
v 1.989975 2.177067 4.132796
v 3.316625 1.819629 3.316625
v -1.732051 3.677223 3.316626
v -0.577350 3.911122 3.511885
v 0.577350 3.911122 3.511885
v 1.732051 3.677223 3.316626
v 2.886751 3.138264 2.886751
v 3.316625 -3.316625 1.732050
v 4.132796 -1.989975 1.989975
v 3.511884 -3.511884 0.577349
v 4.485532 -2.107131 0.663325
v 3.511884 -3.511884 -0.000001
v 3.511884 -3.511884 -0.577351
v 4.485532 -2.107131 -0.663325
v 4.485532 -2.107131 -0.000000
v 3.316625 -3.316625 -1.732052
v 4.132796 -1.989975 -1.989975
v 4.485532 -0.663325 2.107131
v 4.900340 -0.702377 0.702377
v 4.900340 -0.702377 -0.702377
v 4.900340 -0.702377 -0.000000
v 4.485532 -0.663325 -2.107131
v 4.485532 0.663325 2.107131
v 4.900340 0.702377 0.702377
v 4.900340 0.702377 -0.702377
v 4.900340 0.702377 0.000000
v 4.485532 0.663325 -2.107131
v 4.132796 2.030207 1.989975
v 4.485532 2.109630 0.663325
v 4.485532 2.109630 -0.663325
v 4.485532 2.107131 0.000000
v 4.132796 2.030207 -1.989975
v 3.316625 3.357212 1.732052
v 3.511884 3.325907 0.577351
v 3.511884 3.325907 -0.577349
v 3.511884 3.253715 0.000001
v 3.316625 3.357212 -1.732050
v 1.989975 -4.132796 1.989974
v 0.663325 -4.485532 2.107130
v -0.663325 -4.485532 2.107130
v -1.989975 -4.132796 1.989974
v 2.107131 -4.485532 0.663324
v 0.702377 -4.900340 0.702376
v -0.702377 -4.900340 0.702376
v -2.107131 -4.485532 0.663324
v 2.107131 -4.485532 -0.000001
v 2.107131 -4.485532 -0.663326
v 0.702377 -4.900340 -0.000001
v 0.702377 -4.900340 -0.702378
v -0.702377 -4.900340 -0.000001
v -0.702377 -4.900340 -0.702378
v -2.107131 -4.485532 -0.000001
v -2.107131 -4.485532 -0.663326
v 1.989975 -4.132795 -1.989976
v 0.663325 -4.485531 -2.107132
v -0.663325 -4.485531 -2.107132
v -1.989975 -4.132795 -1.989976
v 1.989975 4.021032 -1.989974
v 0.663325 4.320046 -2.107130
v -0.663325 4.320046 -2.107130
v -1.989975 4.021032 -1.989974
v 2.107131 3.779311 -0.663324
v 0.702377 3.914020 -0.702376
v -0.702377 3.914020 -0.702376
v -2.107131 3.779311 -0.663324
v 2.107131 3.595917 0.000001
v 2.107131 3.779311 0.663326
v 0.702377 3.664836 0.000001
v 0.702377 3.914020 0.702378
v -0.702377 3.664836 0.000001
v -0.459264 3.719667 0.000001
v -0.364853 3.845030 -0.364852
v -2.107131 3.595917 0.000001
v -2.107131 3.779311 0.663326
v -0.702377 3.914020 0.702378
v 1.989975 4.021031 1.989976
v 0.663325 4.320045 2.107132
v -0.663325 4.320045 2.107132
v -1.989975 4.021031 1.989976
v -0.364853 3.845030 0.364854
v 0.459264 3.719667 0.000001
v 0.364853 3.845030 0.364854
v 0.364853 3.845030 -0.364852
v 0.373017 4.045115 0.041120
v 0.296336 3.988893 0.332074
v -0.373017 4.045115 0.041120
v -0.296336 4.101338 -0.249833
v 0.296336 4.101338 -0.249833
v -0.266377 4.150609 -0.228349
v 0.266377 4.150609 -0.228349
v -0.296336 3.988893 0.332074
v 0.266377 4.113832 0.303134
v -0.266377 4.113832 0.303134
v 0.335306 4.132221 0.037392
v -0.335306 4.132221 0.037392
vn 0.5774 -0.5774 -0.5774
vn 0.3598 -0.6597 -0.6597
vn 0.3984 -0.3984 -0.8261
vn 0.6597 -0.3598 -0.6597
vn 0.1200 -0.7020 -0.7020
vn 0.1320 -0.4275 -0.8943
vn -0.1200 -0.7020 -0.7020
vn -0.1320 -0.4275 -0.8943
vn -0.3598 -0.6597 -0.6597
vn -0.3984 -0.3984 -0.8261
vn -0.5774 -0.5774 -0.5774
vn -0.6597 -0.3598 -0.6597
vn 0.4275 -0.1320 -0.8943
vn 0.7020 -0.1200 -0.7020
vn 0.1417 -0.1417 -0.9797
vn -0.1417 -0.1417 -0.9797
vn -0.4275 -0.1320 -0.8943
vn -0.7020 -0.1200 -0.7020
vn 0.4295 0.1191 -0.8952
vn 0.7043 0.1115 -0.7011
vn 0.1420 0.1261 -0.9818
vn -0.1420 0.1261 -0.9818
vn -0.4295 0.1191 -0.8952
vn -0.7043 0.1115 -0.7011
vn 0.4109 0.3625 -0.8365
vn 0.6783 0.3344 -0.6543
vn 0.1355 0.3877 -0.9118
vn -0.1355 0.3877 -0.9118
vn -0.4109 0.3625 -0.8365
vn -0.6783 0.3344 -0.6543
vn 0.3723 0.7279 -0.5758
vn 0.6029 0.6042 -0.5210
vn 0.1245 0.7858 -0.6059
vn -0.1245 0.7858 -0.6059
vn -0.3723 0.7279 -0.5758
vn -0.6029 0.6042 -0.5210
vn -0.6597 -0.6597 -0.3598
vn -0.8261 -0.3984 -0.3984
vn -0.7020 -0.7020 -0.1200
vn -0.8943 -0.4275 -0.1320
vn -0.7071 -0.7071 0.0000
vn -0.7020 -0.7020 0.1200
vn -0.8943 -0.4275 0.1320
vn -0.9019 -0.4319 -0.0000
vn -0.6597 -0.6597 0.3598
vn -0.8261 -0.3984 0.3984
vn -0.5774 -0.5774 0.5774
vn -0.6597 -0.3598 0.6597
vn -0.8943 -0.1320 -0.4275
vn -0.9797 -0.1417 -0.1417
vn -0.9797 -0.1417 0.1417
vn -0.9897 -0.1431 -0.0000
vn -0.8943 -0.1320 0.4275
vn -0.7020 -0.1200 0.7020
vn -0.8957 0.1281 -0.4259
vn -0.9800 0.1406 -0.1406
vn -0.9800 0.1406 0.1406
vn -0.9897 0.1429 0.0000
vn -0.8957 0.1281 0.4259
vn -0.7043 0.1115 0.7011
vn -0.8381 0.3971 -0.3741
vn -0.8861 0.4509 -0.1072
vn -0.8861 0.4509 0.1072
vn -0.8837 0.4680 0.0000
vn -0.8381 0.3971 0.3741
vn -0.6783 0.3344 0.6543
vn -0.6278 0.7487 -0.2129
vn -0.5838 0.8115 0.0259
vn -0.5838 0.8115 -0.0259
vn -0.5576 0.8301 -0.0000
vn -0.6278 0.7487 0.2129
vn -0.6029 0.6042 0.5210
vn -0.3598 -0.6597 0.6597
vn -0.3984 -0.3984 0.8261
vn -0.1200 -0.7020 0.7020
vn -0.1320 -0.4275 0.8943
vn 0.1200 -0.7020 0.7020
vn 0.1320 -0.4275 0.8943
vn 0.3598 -0.6597 0.6597
vn 0.3984 -0.3984 0.8261
vn 0.5774 -0.5774 0.5774
vn 0.6597 -0.3598 0.6597
vn -0.4275 -0.1320 0.8943
vn -0.1417 -0.1417 0.9797
vn 0.1417 -0.1417 0.9797
vn 0.4275 -0.1320 0.8943
vn 0.7020 -0.1200 0.7020
vn -0.4295 0.1191 0.8952
vn -0.1420 0.1261 0.9818
vn 0.1420 0.1261 0.9818
vn 0.4295 0.1191 0.8952
vn 0.7043 0.1115 0.7011
vn -0.4109 0.3625 0.8365
vn -0.1355 0.3877 0.9118
vn 0.1355 0.3877 0.9118
vn 0.4109 0.3625 0.8365
vn 0.6783 0.3344 0.6543
vn -0.3723 0.7279 0.5758
vn -0.1245 0.7858 0.6059
vn 0.1245 0.7858 0.6059
vn 0.3723 0.7279 0.5758
vn 0.6029 0.6042 0.5210
vn 0.6597 -0.6597 0.3598
vn 0.8261 -0.3984 0.3984
vn 0.7020 -0.7020 0.1200
vn 0.8943 -0.4275 0.1320
vn 0.7071 -0.7071 0.0000
vn 0.7020 -0.7020 -0.1200
vn 0.8943 -0.4275 -0.1320
vn 0.9019 -0.4319 -0.0000
vn 0.6597 -0.6597 -0.3598
vn 0.8261 -0.3984 -0.3984
vn 0.8943 -0.1320 0.4275
vn 0.9797 -0.1417 0.1417
vn 0.9797 -0.1417 -0.1417
vn 0.9897 -0.1431 -0.0000
vn 0.8943 -0.1320 -0.4275
vn 0.8957 0.1281 0.4259
vn 0.9800 0.1406 0.1406
vn 0.9800 0.1406 -0.1406
vn 0.9897 0.1429 0.0000
vn 0.8957 0.1281 -0.4259
vn 0.8381 0.3971 0.3741
vn 0.8861 0.4509 0.1072
vn 0.8861 0.4509 -0.1072
vn 0.8837 0.4680 0.0000
vn 0.8381 0.3971 -0.3741
vn 0.6278 0.7487 0.2129
vn 0.5838 0.8115 -0.0259
vn 0.5838 0.8115 0.0259
vn 0.5576 0.8301 0.0000
vn 0.6278 0.7487 -0.2129
vn 0.3984 -0.8261 0.3984
vn 0.1320 -0.8943 0.4275
vn -0.1320 -0.8943 0.4275
vn -0.3984 -0.8261 0.3984
vn 0.4275 -0.8943 0.1320
vn 0.1417 -0.9797 0.1417
vn -0.1417 -0.9797 0.1417
vn -0.4275 -0.8943 0.1320
vn 0.4319 -0.9019 0.0000
vn 0.4275 -0.8943 -0.1320
vn 0.1431 -0.9897 0.0000
vn 0.1417 -0.9797 -0.1417
vn -0.1431 -0.9897 0.0000
vn -0.1417 -0.9797 -0.1417
vn -0.4319 -0.9019 0.0000
vn -0.4275 -0.8943 -0.1320
vn 0.3984 -0.8261 -0.3984
vn 0.1320 -0.8943 -0.4275
vn -0.1320 -0.8943 -0.4275
vn -0.3984 -0.8261 -0.3984
vn 0.3203 0.9436 -0.0841
vn 0.0992 0.9948 -0.0239
vn -0.0992 0.9948 -0.0239
vn -0.3203 0.9436 -0.0841
vn 0.2165 0.9574 0.1912
vn 0.0727 0.9618 0.2640
vn -0.0727 0.9618 0.2640
vn -0.2165 0.9574 0.1912
vn 0.1720 0.9851 0.0000
vn 0.2165 0.9574 -0.1912
vn 0.1167 0.9932 0.0000
vn 0.0727 0.9618 -0.2640
vn -0.1167 0.9932 0.0000
vn -0.5577 0.8300 0.0021
vn -0.3205 0.9454 -0.0594
vn -0.1720 0.9851 0.0000
vn -0.2165 0.9574 -0.1912
vn -0.0727 0.9618 -0.2640
vn 0.3203 0.9436 0.0841
vn 0.0992 0.9948 0.0239
vn -0.0992 0.9948 0.0239
vn -0.3203 0.9436 0.0841
vn -0.3632 0.9296 0.0630
vn 0.5577 0.8300 0.0021
vn 0.3632 0.9296 0.0630
vn 0.3205 0.9454 -0.0594
vn 0.9363 0.3474 0.0514
vn 0.5436 0.3295 0.7720
vn -0.9363 0.3474 0.0514
vn -0.5979 0.4824 -0.6402
vn 0.5955 0.4815 -0.6431
vn -0.3531 0.8016 -0.4824
vn 0.3531 0.8016 -0.4824
vn -0.5423 0.3307 0.7724
vn 0.4008 0.6998 0.5913
vn -0.4008 0.6998 0.5913
vn 0.5984 0.7985 0.0656
vn -0.5984 0.7985 0.0656
usemtl FF5722.001
s 1
f 1//1 2//2 3//3 4//4
f 2//2 5//5 6//6 3//3
f 5//5 7//7 8//8 6//6
f 7//7 9//9 10//10 8//8
f 9//9 11//11 12//12 10//10
f 4//4 3//3 13//13 14//14
f 3//3 6//6 15//15 13//13
f 6//6 8//8 16//16 15//15
f 8//8 10//10 17//17 16//16
f 10//10 12//12 18//18 17//17
f 14//14 13//13 19//19 20//20
f 13//13 15//15 21//21 19//19
f 15//15 16//16 22//22 21//21
f 16//16 17//17 23//23 22//22
f 17//17 18//18 24//24 23//23
f 20//20 19//19 25//25 26//26
f 19//19 21//21 27//27 25//25
f 21//21 22//22 28//28 27//27
f 22//22 23//23 29//29 28//28
f 23//23 24//24 30//30 29//29
f 26//26 25//25 31//31 32//32
f 25//25 27//27 33//33 31//31
f 27//27 28//28 34//34 33//33
f 28//28 29//29 35//35 34//34
f 29//29 30//30 36//36 35//35
f 11//11 37//37 38//38 12//12
f 37//37 39//39 40//40 38//38
f 41//41 42//42 43//43 44//44
f 42//42 45//45 46//46 43//43
f 45//45 47//47 48//48 46//46
f 12//12 38//38 49//49 18//18
f 38//38 40//40 50//50 49//49
f 44//44 43//43 51//51 52//52
f 43//43 46//46 53//53 51//51
f 46//46 48//48 54//54 53//53
f 18//18 49//49 55//55 24//24
f 49//49 50//50 56//56 55//55
f 52//52 51//51 57//57 58//58
f 51//51 53//53 59//59 57//57
f 53//53 54//54 60//60 59//59
f 24//24 55//55 61//61 30//30
f 55//55 56//56 62//62 61//61
f 58//58 57//57 63//63 64//64
f 57//57 59//59 65//65 63//63
f 59//59 60//60 66//66 65//65
f 30//30 61//61 67//67 36//36
f 61//61 62//62 68//68 67//67
f 64//64 63//63 69//69 70//70
f 63//63 65//65 71//71 69//69
f 65//65 66//66 72//72 71//71
f 47//47 73//73 74//74 48//48
f 73//73 75//75 76//76 74//74
f 75//75 77//77 78//78 76//76
f 77//77 79//79 80//80 78//78
f 79//79 81//81 82//82 80//80
f 48//48 74//74 83//83 54//54
f 74//74 76//76 84//84 83//83
f 76//76 78//78 85//85 84//84
f 78//78 80//80 86//86 85//85
f 80//80 82//82 87//87 86//86
f 54//54 83//83 88//88 60//60
f 83//83 84//84 89//89 88//88
f 84//84 85//85 90//90 89//89
f 85//85 86//86 91//91 90//90
f 86//86 87//87 92//92 91//91
f 60//60 88//88 93//93 66//66
f 88//88 89//89 94//94 93//93
f 89//89 90//90 95//95 94//94
f 90//90 91//91 96//96 95//95
f 91//91 92//92 97//97 96//96
f 66//66 93//93 98//98 72//72
f 93//93 94//94 99//99 98//98
f 94//94 95//95 100//100 99//99
f 95//95 96//96 101//101 100//100
f 96//96 97//97 102//102 101//101
f 81//81 103//103 104//104 82//82
f 103//103 105//105 106//106 104//104
f 107//107 108//108 109//109 110//110
f 108//108 111//111 112//112 109//109
f 111//111 1//1 4//4 112//112
f 82//82 104//104 113//113 87//87
f 104//104 106//106 114//114 113//113
f 110//110 109//109 115//115 116//116
f 109//109 112//112 117//117 115//115
f 112//112 4//4 14//14 117//117
f 87//87 113//113 118//118 92//92
f 113//113 114//114 119//119 118//118
f 116//116 115//115 120//120 121//121
f 115//115 117//117 122//122 120//120
f 117//117 14//14 20//20 122//122
f 92//92 118//118 123//123 97//97
f 118//118 119//119 124//124 123//123
f 121//121 120//120 125//125 126//126
f 120//120 122//122 127//127 125//125
f 122//122 20//20 26//26 127//127
f 97//97 123//123 128//128 102//102
f 123//123 124//124 129//129 128//128
f 126//126 125//125 130//130 131//131
f 125//125 127//127 132//132 130//130
f 127//127 26//26 32//32 132//132
f 81//81 79//79 133//133 103//103
f 79//79 77//77 134//134 133//133
f 77//77 75//75 135//135 134//134
f 75//75 73//73 136//136 135//135
f 73//73 47//47 45//45 136//136
f 103//103 133//133 137//137 105//105
f 133//133 134//134 138//138 137//137
f 134//134 135//135 139//139 138//138
f 135//135 136//136 140//140 139//139
f 136//136 45//45 42//42 140//140
f 107//107 141//141 142//142 108//108
f 141//141 143//143 144//144 142//142
f 143//143 145//145 146//146 144//144
f 145//145 147//147 148//148 146//146
f 147//147 41//41 39//39 148//148
f 108//108 142//142 149//149 111//111
f 142//142 144//144 150//150 149//149
f 144//144 146//146 151//151 150//150
f 146//146 148//148 152//152 151//151
f 148//148 39//39 37//37 152//152
f 111//111 149//149 2//2 1//1
f 149//149 150//150 5//5 2//2
f 150//150 151//151 7//7 5//5
f 151//151 152//152 9//9 7//7
f 152//152 37//37 11//11 9//9
f 32//32 31//31 153//153 132//132
f 31//31 33//33 154//154 153//153
f 33//33 34//34 155//155 154//154
f 34//34 35//35 156//156 155//155
f 35//35 36//36 67//67 156//156
f 132//132 153//153 157//157 130//130
f 153//153 154//154 158//158 157//157
f 154//154 155//155 159//159 158//158
f 155//155 156//156 160//160 159//159
f 156//156 67//67 68//68 160//160
f 131//131 161//161 162//162 129//129
f 161//161 163//163 164//164 162//162
f 159//159 165//165 166//166 167//167
f 165//165 168//168 169//169 170//170
f 168//168 70//70 69//69 169//169
f 129//129 162//162 171//171 128//128
f 162//162 164//164 172//172 171//171
f 164//164 170//170 173//173 172//172
f 170//170 169//169 174//174 173//173
f 169//169 69//69 71//71 174//174
f 128//128 171//171 101//101 102//102
f 171//171 172//172 100//100 101//101
f 172//172 173//173 99//99 100//100
f 173//173 174//174 98//98 99//99
f 174//174 71//71 72//72 98//98
f 160//160 68//68 70//70 168//168
f 159//159 160//160 168//168 165//165
f 165//165 170//170 175//175 166//166
f 157//157 158//158 163//163 161//161
f 130//130 157//157 161//161 131//131
f 140//140 42//42 41//41 147//147
f 139//139 140//140 147//147 145//145
f 138//138 139//139 145//145 143//143
f 137//137 138//138 143//143 141//141
f 105//105 137//137 141//141 107//107
f 124//124 126//126 131//131 129//129
f 119//119 121//121 126//126 124//124
f 114//114 116//116 121//121 119//119
f 106//106 110//110 116//116 114//114
f 105//105 107//107 110//110 106//106
f 62//62 64//64 70//70 68//68
f 56//56 58//58 64//64 62//62
f 50//50 52//52 58//58 56//56
f 40//40 44//44 52//52 50//50
f 39//39 41//41 44//44 40//40
f 164//164 163//163 176//176 177//177
f 158//158 159//159 167//167 178//178
f 163//163 158//158 178//178 176//176
f 170//170 164//164 177//177 175//175
usemtl 795548.002
f 177//177 176//176 179//179 180//180
f 167//167 166//166 181//181 182//182
f 183//183 182//182 184//184 185//185
f 186//186 180//180 187//187 188//188
f 166//166 175//175 186//186 181//181
f 176//176 178//178 183//183 179//179
f 175//175 177//177 180//180 186//186
f 178//178 167//167 182//182 183//183
f 189//189 190//190 188//188 187//187
f 185//185 184//184 190//190 189//189
f 182//182 181//181 190//190 184//184
f 180//180 179//179 189//189 187//187
f 181//181 186//186 188//188 190//190
f 179//179 183//183 185//185 189//189
