# Blender v2.90.1 OBJ File: 'untitled.blend'
# www.blender.org
mtllib SuperSimplePeach.mtl
o peach_Roundcube.006
v 2.886751 -2.886750 -2.886751
v 0.705497 -3.372704 -4.175040
v 0.682851 -0.716980 -4.692936
v -0.975127 -3.511883 -4.184223
v -2.316425 -3.316625 -3.316626
v 3.511884 -0.716980 -3.511884
v -2.107131 -0.716980 -4.485532
v -3.511884 -0.716980 -3.511884
v 3.316625 1.819631 -3.316625
v 0.663325 2.314896 -4.485531
v -1.989975 2.177069 -4.132795
v -3.316625 1.819631 -3.316625
v 2.886751 3.138265 -2.886750
v 0.577350 3.911123 -3.511883
v -1.732051 3.677224 -3.316624
v -2.886751 3.138265 -2.886750
v -3.316625 -3.316625 -1.732052
v -3.511884 -3.511884 0.577349
v -2.886751 -2.886751 2.886750
v -4.692936 -0.716980 -1.404754
v -4.692936 -0.716980 1.404754
v -3.511884 -0.716980 3.511884
v -4.309164 2.069919 -1.326650
v -4.132796 2.030207 1.989975
v -3.316625 1.819629 3.316625
v -3.316625 3.357212 -1.732050
v -3.511884 3.325907 0.577351
v -3.511884 3.253715 0.000001
v -3.316625 3.357212 1.732052
v -2.886751 3.138264 2.886751
v -1.732051 -3.316626 3.316625
v -0.577350 -3.511884 3.511883
v -0.813197 -0.716980 4.710805
v 1.154701 -3.414255 3.414254
v 1.795473 -0.716980 4.501717
v 2.886751 -2.886751 2.886750
v 3.511884 -0.716980 3.511884
v -0.663325 2.314894 4.485532
v 1.989975 2.177067 4.132796
v 3.316625 1.819629 3.316625
v -0.577350 3.911122 3.511885
v 1.732051 3.677223 3.316626
v 2.886751 3.138264 2.886751
v 3.316625 -3.316625 1.732050
v 3.511884 -3.511884 -0.577351
v 4.692936 -0.716980 1.404754
v 4.692936 -0.716980 -1.404754
v 4.309164 2.069918 1.326650
v 4.132796 2.030207 -1.655197
v 3.316625 3.357212 1.732052
v 3.511884 3.325907 -0.577349
v 3.511884 3.253715 0.000001
v 3.316625 3.357212 -1.732050
v 1.294404 -4.486101 2.107130
v 0.000000 -4.900340 -0.000001
v -2.107131 -4.485532 0.663324
v 2.107131 -4.485532 -0.663326
v -0.663325 -4.485531 -2.107132
v 1.989975 4.021032 -1.989974
v 0.663325 4.320046 -2.107130
v -1.989975 4.021032 -1.989974
v 2.107131 3.779311 -0.663324
v 2.107131 3.595917 0.000001
v -0.459264 3.719667 0.000001
v -0.364853 3.845030 -0.364852
v -2.107131 3.595917 0.000001
v -2.107131 3.779311 0.663326
v 1.989975 4.021031 1.989976
v -0.663325 4.320045 2.107132
v -1.989975 4.021031 1.989976
v -0.364853 3.845030 0.364854
v 0.459264 3.719667 0.000001
v 0.364853 3.845030 0.364854
v 0.364853 3.845030 -0.364852
v -0.266377 4.150609 -0.228349
v 0.266377 4.150609 -0.228349
v 0.266377 4.113832 0.303134
v -0.266377 4.113832 0.303134
v 0.335306 4.132221 0.037392
v -0.335306 4.132221 0.037392
v 1.540481 -4.105848 -2.419183
v -1.919591 -4.034590 1.989974
vn 0.4340 -0.7303 0.5275
vn 0.4314 -0.7311 0.5286
vn 0.4303 -0.7287 0.5328
vn 0.4283 -0.7297 0.5331
vn -0.1210 -0.9307 0.3453
vn -0.1389 -0.9584 0.2494
vn -0.1243 -0.9481 0.2926
vn -0.5450 -0.3070 -0.7802
vn -0.5209 -0.3093 -0.7956
vn -0.5238 -0.3306 -0.7851
vn -0.4148 0.1460 0.8981
vn -0.4127 0.1470 0.8989
vn -0.4117 0.1464 0.8995
vn -0.4118 0.1472 0.8993
vn 0.8980 0.1296 0.4205
vn 0.8981 0.1289 0.4205
vn 0.8981 0.1289 0.4204
vn 0.8976 0.1310 0.4208
vn -0.4691 -0.8636 -0.1846
vn -0.4185 -0.8988 -0.1305
vn -0.3770 0.8990 0.2229
vn -0.8787 -0.4608 -0.1247
vn -0.8787 -0.4607 -0.1247
vn 0.9735 0.1824 -0.1379
vn 0.9747 0.1746 -0.1394
vn 0.9748 0.1746 -0.1391
vn 0.9732 0.1837 -0.1381
vn 0.7757 -0.3942 0.4928
vn 0.7760 -0.3952 0.4916
vn 0.7757 -0.3950 0.4922
vn 0.7762 -0.3941 0.4922
vn -0.8174 -0.4407 0.3710
vn -0.8177 -0.4407 0.3703
vn -0.8175 -0.4406 0.3709
vn -0.8174 -0.4410 0.3707
vn 0.4727 -0.8737 0.1148
vn 0.4727 -0.8737 0.1149
vn -0.4032 0.4539 0.7946
vn 0.8435 0.1527 -0.5149
vn 0.8418 0.1554 -0.5169
vn 0.8440 0.1545 -0.5135
vn 0.8422 0.1559 -0.5161
vn -0.7516 0.4734 -0.4594
vn 0.0216 0.9734 0.2279
vn 0.8138 0.5811 -0.0027
vn 0.8118 0.5838 -0.0142
vn 0.8130 0.5822 -0.0065
vn 0.8139 0.5809 -0.0028
vn 0.8140 0.5808 -0.0028
vn -0.7516 0.4734 0.4594
vn -0.3913 -0.8684 -0.3045
vn 0.4540 -0.2472 -0.8560
vn 0.4522 -0.2470 -0.8571
vn 0.4547 -0.2480 -0.8554
vn 0.4554 -0.2491 -0.8547
vn 0.1320 0.5016 0.8550
vn 0.4434 0.1196 -0.8883
vn 0.4369 0.1265 -0.8906
vn 0.4373 0.1270 -0.8903
vn 0.4389 0.1242 -0.8899
vn 0.4032 0.4539 -0.7946
vn -0.1320 0.5016 -0.8550
vn -0.5526 0.2281 -0.8016
vn -0.8980 0.1296 -0.4205
vn -0.8981 0.1289 -0.4205
vn -0.8981 0.1289 -0.4204
vn -0.8976 0.1310 -0.4208
vn -0.7888 -0.4557 -0.4125
vn -0.7910 -0.3153 -0.5243
vn -0.7854 -0.4083 -0.4652
vn -0.7958 -0.3817 -0.4702
vn -0.9752 0.1732 0.1375
vn -0.9753 0.1730 0.1375
vn -0.9752 0.1733 0.1375
vn 0.8174 -0.4407 -0.3710
vn 0.8177 -0.4407 -0.3703
vn 0.8175 -0.4406 -0.3709
vn 0.8174 -0.4410 -0.3707
vn -0.8266 0.1189 0.5501
vn -0.8266 0.1195 0.5500
vn -0.8267 0.1195 0.5498
vn -0.8263 0.1182 0.5507
vn -0.1196 0.9552 -0.2708
vn 0.7516 0.4734 0.4594
vn -0.1517 0.1394 -0.9785
vn -0.1588 0.1313 -0.9785
vn -0.1538 0.1368 -0.9786
vn -0.1522 0.1399 -0.9784
vn 0.7985 0.4320 -0.4192
vn -0.4303 -0.7535 0.4970
vn -0.4894 -0.7433 0.4560
vn -0.4566 -0.7539 0.4725
vn 0.1421 -0.4035 0.9039
vn 0.1406 -0.4043 0.9037
vn 0.1430 -0.4006 0.9050
vn 0.1421 -0.3984 0.9062
vn -0.8109 0.5853 0.0012
vn -0.8108 0.5853 0.0012
vn 0.4035 -0.3781 0.8332
vn 0.4051 -0.3774 0.8327
vn 0.4086 -0.3836 0.8282
vn 0.4080 -0.3720 0.8337
vn 0.8787 -0.4608 0.1247
vn 0.8787 -0.4607 0.1248
vn 0.8787 -0.4607 0.1247
vn -0.3444 -0.4103 0.8444
vn -0.3455 -0.4144 0.8420
vn -0.3286 -0.4165 0.8477
vn -0.3438 -0.4102 0.8447
vn -0.3445 -0.4087 0.8451
vn 0.1196 0.9552 0.2708
vn -0.4835 0.8152 -0.3189
vn -0.0112 -0.1419 -0.9898
vn -0.0285 -0.1655 -0.9858
vn -0.1445 -0.2008 -0.9689
vn -0.0389 -0.1566 -0.9869
vn 0.3350 0.9364 -0.1049
vn -0.0216 0.9734 -0.2279
vn 0.3770 0.8990 -0.2229
vn 0.4835 0.8152 0.3189
vn 0.1570 0.1542 0.9755
vn 0.1565 0.1570 0.9751
vn 0.1495 0.1594 0.9758
vn 0.1548 0.1582 0.9752
vn -0.3350 0.9364 0.1049
vn 0.1657 -0.9258 -0.3398
vn 0.0990 -0.8509 -0.5159
vn 0.0870 -0.9001 -0.4268
vn 0.1305 -0.9477 -0.2912
vn 0.1238 -0.9634 -0.2376
vn 0.0270 -0.9622 -0.2709
vn 0.0822 -0.9715 -0.2223
vn -0.2276 -0.9665 -0.1186
vn -0.2817 -0.9513 -0.1255
vn -0.2251 -0.8432 0.4882
vn -0.1902 -0.8624 0.4692
vn -0.2453 -0.8240 0.5108
vn -0.0458 -0.8349 0.5485
vn -0.0634 -0.8576 0.5103
vn -0.1117 -0.8582 0.5010
vn -0.0817 -0.8467 0.5257
vn 0.5683 -0.6584 -0.4934
vn 0.4564 -0.7151 -0.5295
vn 0.5548 -0.6670 -0.4972
vn 0.5638 -0.7697 -0.2994
vn 0.5384 -0.7470 -0.3901
vn 0.5403 -0.8012 -0.2573
vn 0.5430 -0.7639 -0.3488
vn -0.5804 -0.7020 0.4126
vn -0.5562 -0.7548 0.3477
vn -0.5792 -0.7293 0.3642
vn 0.5252 0.4480 0.7235
vn 0.5282 0.4563 0.7161
vn 0.5148 0.3917 0.7626
vn 0.5241 0.0817 0.8477
vn 0.5026 0.0966 0.8591
vn 0.5183 0.1565 0.8408
vn 0.5719 0.0642 0.8178
vn 0.0000 0.2238 0.9746
vn 0.0001 0.2252 0.9743
vn 0.0010 0.2241 0.9746
vn 0.0000 0.9976 0.0690
vn 0.9316 0.3108 0.1886
vn -0.9299 0.3282 -0.1660
vn -0.9316 0.3108 0.1886
vn 0.9299 0.3282 -0.1660
vn 0.0000 0.4079 -0.9130
vn 0.0055 0.4084 -0.9128
vn 0.0007 0.4029 -0.9153
usemtl FF5722
s off
f 34//1 54//2 44//3 36//4
f 55//5 54//6 82//7 56//7
f 5//8 8//9 7//10 4//8
f 33//11 38//12 25//13 22//14
f 46//15 48//16 40//17 37//18
f 56//19 18//20 17//19 58//19
f 29//21 30//21 41//21 69//21 70//21 67//21 27//21
f 18//22 21//23 20//23 17//22
f 49//24 48//25 46//26 47//27
f 44//28 46//29 37//30 36//31
f 19//32 22//33 21//34 18//35
f 55//36 57//36 45//37 44//36 54//36
f 25//38 38//38 41//38 30//38
f 6//39 9//40 49//41 47//42
f 12//43 23//43 26//43 16//43
f 74//44 72//44 63//44 52//44 51//44 62//44 59//44 60//44 61//44 66//44 64//44 65//44
f 48//45 49//46 53//47 51//48 52//48 50//49
f 24//50 25//50 30//50 29//50
f 58//51 17//51 5//51 4//51
f 6//52 1//53 2//54 3//55
f 38//56 39//56 42//56 41//56
f 3//57 10//58 9//59 6//60
f 9//61 10//61 14//61 13//61
f 10//62 11//62 15//62 14//62
f 8//63 12//63 16//63 15//63 11//63 7//63
f 20//64 23//65 12//66 8//67
f 17//68 20//69 8//70 5//71
f 24//72 23//73 20//73 21//74
f 1//75 6//76 47//77 45//78
f 22//79 25//80 24//81 21//82
f 14//83 15//83 61//83 60//83
f 40//84 48//84 50//84 43//84
f 10//85 3//86 7//87 11//88
f 49//89 9//89 13//89 53//89
f 31//90 19//91 82//92
f 34//93 35//94 33//95 32//96
f 23//97 24//98 29//98 27//98 28//98 26//98
f 36//99 37//100 35//101 34//102
f 45//103 47//104 46//105 44//103
f 31//106 32//107 33//108 22//109 19//110
f 68//111 69//111 41//111 42//111
f 15//112 16//112 26//112 61//112
f 7//113 3//114 2//115 4//116
f 63//117 68//117 50//117 52//117
f 71//118 64//118 66//118 28//118 27//118 67//118 70//118 69//118 68//118 63//118 72//118 73//118
f 13//119 14//119 60//119 59//119 62//119 51//119 53//119
f 50//120 68//120 42//120 43//120
f 38//121 33//122 35//123 39//124
f 26//125 28//125 66//125 61//125
f 2//126 81//127 58//128 4//128
f 55//129 58//130 81//131 57//132
f 58//133 55//134 56//133
f 82//135 32//136 31//137
f 32//138 82//139 54//140 34//141
f 2//142 1//143 81//144
f 45//145 57//146 81//147 1//148
f 18//149 56//150 82//150 19//151
f 42//152 39//153 40//154 43//152
f 39//155 35//156 37//157 40//158
usemtl 795548
f 71//159 73//160 77//159 78//161
f 76//162 75//162 80//162 78//162 77//162 79//162
f 72//163 79//163 77//163 73//163
f 64//164 80//164 75//164 65//164
f 78//165 80//165 64//165 71//165
f 76//166 79//166 72//166 74//166
f 74//167 65//168 75//167 76//169
