# Blender v2.80 (sub 75) OBJ File: 'boiseShelf.blend'
# www.blender.org
mtllib boiseShelf_OBJ.mtl
o Cube.001
v 2.667873 1.668214 -0.072204
v -2.667873 1.668214 -0.072204
v -2.667873 1.668214 0.072204
v 2.667873 1.668214 0.072204
v -2.667873 1.073186 0.072204
v -2.667873 1.073186 -0.072204
v -2.667873 -1.668214 -0.072204
v 2.667873 -1.668214 -0.072204
v 2.667873 -1.668214 0.072204
v -2.667873 -1.668214 0.072204
v 2.667873 1.073186 -0.072204
v 2.667873 1.073186 0.072204
v -2.667873 0.889440 -0.072204
v 2.667873 0.889440 -0.072204
v 2.667873 0.889440 0.072204
v -2.667873 0.889440 0.072204
v -2.667873 0.101959 0.072204
v -2.667873 0.101959 -0.072204
v 2.667873 0.101959 -0.072204
v 2.667873 0.101959 0.072204
v -2.667873 -0.105550 -0.072204
v 2.667873 -0.105550 -0.072204
v 2.667873 -0.105550 0.072204
v -2.667873 -0.105550 0.072204
v -2.667873 -1.220096 0.072204
v -2.667873 -1.220096 -0.072204
v 2.667873 -1.220096 -0.072204
v 2.667873 -1.220096 0.072204
v -2.667873 -1.444155 -0.072204
v 2.667873 -1.444155 -0.072204
v 2.667873 -1.444155 0.072204
v -2.667873 -1.444155 0.072204
v -2.667873 -1.220096 1.625722
v 2.667873 -1.220096 1.625722
v 2.667873 0.889440 1.625722
v -2.667873 0.889440 1.625722
v -2.667873 0.101959 1.625722
v 2.667873 0.101959 1.625722
v 2.667873 -1.444155 1.625722
v -2.667873 -1.444155 1.625722
v -2.667873 1.073186 1.625722
v 2.667873 1.073186 1.625722
v 2.667873 -0.105550 1.625722
v -2.667873 -0.105550 1.625722
vt 0.408578 0.250000
vt 0.408578 0.500000
vt 0.408578 0.500000
vt 0.408578 0.250000
vt 0.566646 0.500000
vt 0.566646 0.250000
vt 0.566646 0.250000
vt 0.566646 0.500000
vt 0.507640 0.250000
vt 0.507640 0.500000
vt 0.507640 0.500000
vt 0.507640 0.250000
vt 0.391789 0.500000
vt 0.391789 0.250000
vt 0.391789 0.250000
vt 0.391789 0.500000
vt 0.580414 0.250000
vt 0.580414 0.500000
vt 0.580414 0.500000
vt 0.580414 0.250000
vt 0.492091 0.500000
vt 0.492091 0.250000
vt 0.492091 0.250000
vt 0.492091 0.500000
vt 0.625000 0.250000
vt 0.625000 0.500000
vt 0.375000 0.250000
vt 0.375000 0.500000
vt 0.375000 0.000000
vt 0.625000 0.000000
vt 0.625000 0.250000
vt 0.375000 0.250000
vt 0.625000 0.750000
vt 0.580414 0.750000
vt 0.375000 0.750000
vt 0.625000 0.750000
vt 0.625000 1.000000
vt 0.375000 1.000000
vt 0.330414 0.500000
vt 0.375000 0.500000
vt 0.375000 0.750000
vt 0.330414 0.750000
vt 0.830414 0.500000
vt 0.875000 0.500000
vt 0.875000 0.750000
vt 0.830414 0.750000
vt 0.816646 0.500000
vt 0.816646 0.750000
vt 0.316646 0.500000
vt 0.316646 0.750000
vt 0.566646 0.750000
vt 0.507640 0.750000
vt 0.257640 0.500000
vt 0.257640 0.750000
vt 0.757640 0.500000
vt 0.757640 0.750000
vt 0.742091 0.500000
vt 0.742091 0.750000
vt 0.242091 0.500000
vt 0.242091 0.750000
vt 0.492091 0.750000
vt 0.408578 0.750000
vt 0.158578 0.500000
vt 0.158578 0.750000
vt 0.658578 0.500000
vt 0.658578 0.750000
vt 0.641789 0.500000
vt 0.641789 0.750000
vt 0.141789 0.500000
vt 0.141789 0.750000
vt 0.391789 0.750000
vt 0.125000 0.500000
vt 0.125000 0.750000
vt 0.625000 0.500000
vt 0.257640 0.750000
vt 0.242091 0.750000
vt 0.330414 0.750000
vt 0.316646 0.750000
vt 0.158578 0.750000
vt 0.141789 0.750000
vn 0.0000 1.0000 0.0000
vn 0.0000 -1.0000 -0.0000
vn 0.0000 -0.0000 1.0000
vn -1.0000 0.0000 0.0000
vn 1.0000 -0.0000 0.0000
vn 0.0000 0.0000 -1.0000
usemtl Material.001
s 1
f 28/1/1 25/2/1 33/3/1 34/4/1
f 16/5/2 15/6/2 35/7/2 36/8/2
f 20/9/1 17/10/1 37/11/1 38/12/1
f 32/13/2 31/14/2 39/15/2 40/16/2
f 12/17/1 5/18/1 41/19/1 42/20/1
f 24/21/2 23/22/2 43/23/2 44/24/2
f 12/17/3 4/25/3 3/26/3 5/18/3
f 20/9/3 15/6/3 16/5/3 17/10/3
f 28/1/3 23/22/3 24/21/3 25/2/3
f 9/27/3 31/14/3 32/13/3 10/28/3
usemtl Material.003
f 1/29/1 2/30/1 3/31/1 4/32/1
f 5/18/4 3/26/4 2/33/4 6/34/4
f 7/35/2 8/36/2 9/37/2 10/38/2
f 11/39/5 1/40/5 4/41/5 12/42/5
f 6/43/6 2/44/6 1/45/6 11/46/6
f 13/47/6 6/43/6 11/46/6 14/48/6
f 14/49/5 11/39/5 12/42/5 15/50/5
f 16/5/4 5/18/4 6/34/4 13/51/4
f 17/10/4 16/5/4 13/51/4 18/52/4
f 19/53/5 14/49/5 15/50/5 20/54/5
f 18/55/6 13/47/6 14/48/6 19/56/6
f 21/57/6 18/55/6 19/56/6 22/58/6
f 22/59/5 19/53/5 20/54/5 23/60/5
f 24/21/4 17/10/4 18/52/4 21/61/4
f 25/2/4 24/21/4 21/61/4 26/62/4
f 27/63/5 22/59/5 23/60/5 28/64/5
f 26/65/6 21/57/6 22/58/6 27/66/6
f 29/67/6 26/65/6 27/66/6 30/68/6
f 30/69/5 27/63/5 28/64/5 31/70/5
f 32/13/4 25/2/4 26/62/4 29/71/4
f 10/28/4 32/13/4 29/71/4 7/35/4
f 8/72/5 30/69/5 31/70/5 9/73/5
f 7/74/6 29/67/6 30/68/6 8/36/6
f 23/60/5 20/54/5 38/75/5 43/76/5
f 5/18/4 16/5/4 36/8/4 41/19/4
f 25/2/4 32/13/4 40/16/4 33/3/4
f 35/7/3 42/20/3 41/19/3 36/8/3
f 43/23/3 38/12/3 37/11/3 44/24/3
f 39/15/3 34/4/3 33/3/3 40/16/3
f 17/10/4 24/21/4 44/24/4 37/11/4
f 15/50/5 12/42/5 42/77/5 35/78/5
f 31/70/5 28/64/5 34/79/5 39/80/5
