# Blender v2.90.1 OBJ File: ''
# www.blender.org
mtllib Crate.mtl
o Cube
v 10.000000 0.250000 -0.750000
v 10.000000 -0.250000 -0.750000
v 10.000000 0.250000 0.750000
v 10.000000 -0.250000 0.750000
v -10.000000 0.250000 -0.750000
v -10.000000 -0.250000 -0.750000
v -10.000000 0.250000 0.750000
v -10.000000 -0.250000 0.750000
v 10.000000 0.250000 -3.263075
v 10.000000 -0.250000 -3.263075
v 10.000000 0.250000 -1.763075
v 10.000000 -0.250000 -1.763075
v -10.000000 0.250000 -3.263075
v -10.000000 -0.250000 -3.263075
v -10.000000 0.250000 -1.763075
v -10.000000 -0.250000 -1.763075
v 10.000000 0.250000 -5.975114
v 10.000000 -0.250000 -5.975114
v 10.000000 0.250000 -4.475113
v 10.000000 -0.250000 -4.475113
v -10.000000 0.250000 -5.975114
v -10.000000 -0.250000 -5.975114
v -10.000000 0.250000 -4.475113
v -10.000000 -0.250000 -4.475113
v 10.000000 0.250000 -8.655768
v 10.000000 -0.250000 -8.655768
v 10.000000 0.250000 -7.155767
v 10.000000 -0.250000 -7.155767
v -10.000000 0.250000 -8.655768
v -10.000000 -0.250000 -8.655768
v -10.000000 0.250000 -7.155767
v -10.000000 -0.250000 -7.155767
v 10.000000 0.250000 -11.508879
v 10.000000 -0.250000 -11.508879
v 10.000000 0.250000 -10.008879
v 10.000000 -0.250000 -10.008879
v -10.000000 0.250000 -11.508879
v -10.000000 -0.250000 -11.508879
v -10.000000 0.250000 -10.008879
v -10.000000 -0.250000 -10.008879
v 10.000000 0.250000 1.722852
v 10.000000 -0.250000 1.722852
v 10.000000 0.250000 3.222852
v 10.000000 -0.250000 3.222852
v -10.000000 0.250000 1.722852
v -10.000000 -0.250000 1.722852
v -10.000000 0.250000 3.222852
v -10.000000 -0.250000 3.222852
v 10.000000 0.250000 4.496817
v 10.000000 -0.250000 4.496817
v 10.000000 0.250000 5.996817
v 10.000000 -0.250000 5.996817
v -10.000000 0.250000 4.496817
v -10.000000 -0.250000 4.496817
v -10.000000 0.250000 5.996817
v -10.000000 -0.250000 5.996817
v 9.999999 -0.228756 6.012723
v 9.999999 -0.228756 6.512723
v 9.999999 1.271244 6.012723
v 9.999999 1.271244 6.512723
v -9.999999 -0.228756 6.012723
v -9.999999 -0.228756 6.512723
v -9.999999 1.271244 6.012723
v -9.999999 1.271244 6.512723
v 9.999999 -0.228756 -12.047834
v 9.999999 -0.228756 -11.547834
v 9.999999 1.271244 -12.047834
v 9.999999 1.271244 -11.547834
v -9.999999 -0.228756 -12.047834
v -9.999999 -0.228756 -11.547834
v -9.999999 1.271244 -12.047834
v -9.999999 1.271244 -11.547834
v 9.999999 1.652553 -12.047834
v 9.999999 1.652553 -11.547834
v 9.999999 3.152553 -12.047834
v 9.999999 3.152553 -11.547834
v -9.999999 1.652553 -12.047834
v -9.999999 1.652553 -11.547834
v -9.999999 3.152553 -12.047834
v -9.999999 3.152553 -11.547834
v 10.522543 1.652553 6.536711
v 10.022543 1.652553 6.536711
v 10.522543 3.152553 6.536711
v 10.022543 3.152553 6.536711
v 10.522544 1.652553 -12.054223
v 10.022544 1.652553 -12.054223
v 10.522544 3.152553 -12.054223
v 10.022544 3.152553 -12.054223
v 10.522543 -0.252272 6.536711
v 10.022543 -0.252272 6.536711
v 10.522543 1.247728 6.536711
v 10.022543 1.247728 6.536711
v 10.522544 -0.252272 -12.054223
v 10.022544 -0.252272 -12.054223
v 10.522544 1.247728 -12.054223
v 10.022544 1.247728 -12.054223
v -10.007236 -0.252272 6.536711
v -10.507236 -0.252272 6.536711
v -10.007236 1.247728 6.536711
v -10.507236 1.247728 6.536711
v -10.007236 -0.252272 -12.054223
v -10.507236 -0.252272 -12.054223
v -10.007236 1.247728 -12.054223
v -10.507236 1.247728 -12.054223
v -10.007236 1.610224 6.536711
v -10.507236 1.610223 6.536711
v -10.007236 3.110223 6.536711
v -10.507236 3.110223 6.536711
v -10.007236 1.610224 -12.054223
v -10.507236 1.610223 -12.054223
v -10.007236 3.110223 -12.054223
v -10.507236 3.110223 -12.054223
v 9.999999 1.605002 6.012723
v 9.999999 1.605002 6.512723
v 9.999999 3.105002 6.012723
v 9.999999 3.105002 6.512723
v -9.999999 1.605002 6.012723
v -9.999999 1.605002 6.512723
v -9.999999 3.105002 6.012723
v -9.999999 3.105002 6.512723
v -9.513899 0.244914 5.483425
v -9.513899 0.244913 5.983425
v -9.513899 3.089296 5.483425
v -9.513899 3.089296 5.983425
v -10.013899 0.244914 5.483425
v -10.013899 0.244913 5.983425
v -10.013899 3.089296 5.483425
v -10.013899 3.089296 5.983425
v 10.061270 0.244914 5.483425
v 10.061270 0.244913 5.983425
v 10.061270 3.089296 5.483425
v 10.061270 3.089296 5.983425
v 9.561270 0.244914 5.483425
v 9.561270 0.244913 5.983425
v 9.561270 3.089296 5.483425
v 9.561270 3.089296 5.983425
v 10.061270 0.244914 -11.637012
v 10.061270 0.244913 -11.137012
v 10.061270 3.089296 -11.637012
v 10.061270 3.089296 -11.137012
v 9.561270 0.244914 -11.637012
v 9.561270 0.244913 -11.137012
v 9.561270 3.089296 -11.637012
v 9.561270 3.089296 -11.137012
v -9.582069 0.244914 -11.637012
v -9.582069 0.244913 -11.137012
v -9.582069 3.089296 -11.637012
v -9.582069 3.089296 -11.137012
v -10.082069 0.244914 -11.637012
v -10.082069 0.244913 -11.137012
v -10.082069 3.089296 -11.637012
v -10.082069 3.089296 -11.137012
vt 0.625000 0.500000
vt 0.875000 0.500000
vt 0.875000 0.750000
vt 0.625000 0.750000
vt 0.375000 0.750000
vt 0.625000 1.000000
vt 0.375000 1.000000
vt 0.375000 0.000000
vt 0.625000 0.000000
vt 0.625000 0.250000
vt 0.375000 0.250000
vt 0.125000 0.500000
vt 0.375000 0.500000
vt 0.125000 0.750000
vt 0.625000 0.500000
vt 0.875000 0.500000
vt 0.875000 0.750000
vt 0.625000 0.750000
vt 0.375000 0.750000
vt 0.625000 1.000000
vt 0.375000 1.000000
vt 0.375000 0.000000
vt 0.625000 0.000000
vt 0.625000 0.250000
vt 0.375000 0.250000
vt 0.125000 0.500000
vt 0.375000 0.500000
vt 0.125000 0.750000
vt 0.625000 0.500000
vt 0.875000 0.500000
vt 0.875000 0.750000
vt 0.625000 0.750000
vt 0.375000 0.750000
vt 0.625000 1.000000
vt 0.375000 1.000000
vt 0.375000 0.000000
vt 0.625000 0.000000
vt 0.625000 0.250000
vt 0.375000 0.250000
vt 0.125000 0.500000
vt 0.375000 0.500000
vt 0.125000 0.750000
vt 0.625000 0.500000
vt 0.875000 0.500000
vt 0.875000 0.750000
vt 0.625000 0.750000
vt 0.375000 0.750000
vt 0.625000 1.000000
vt 0.375000 1.000000
vt 0.375000 0.000000
vt 0.625000 0.000000
vt 0.625000 0.250000
vt 0.375000 0.250000
vt 0.125000 0.500000
vt 0.375000 0.500000
vt 0.125000 0.750000
vt 0.625000 0.500000
vt 0.875000 0.500000
vt 0.875000 0.750000
vt 0.625000 0.750000
vt 0.375000 0.750000
vt 0.625000 1.000000
vt 0.375000 1.000000
vt 0.375000 0.000000
vt 0.625000 0.000000
vt 0.625000 0.250000
vt 0.375000 0.250000
vt 0.125000 0.500000
vt 0.375000 0.500000
vt 0.125000 0.750000
vt 0.625000 0.500000
vt 0.875000 0.500000
vt 0.875000 0.750000
vt 0.625000 0.750000
vt 0.375000 0.750000
vt 0.625000 1.000000
vt 0.375000 1.000000
vt 0.375000 0.000000
vt 0.625000 0.000000
vt 0.625000 0.250000
vt 0.375000 0.250000
vt 0.125000 0.500000
vt 0.375000 0.500000
vt 0.125000 0.750000
vt 0.625000 0.500000
vt 0.875000 0.500000
vt 0.875000 0.750000
vt 0.625000 0.750000
vt 0.375000 0.750000
vt 0.625000 1.000000
vt 0.375000 1.000000
vt 0.375000 0.000000
vt 0.625000 0.000000
vt 0.625000 0.250000
vt 0.375000 0.250000
vt 0.125000 0.500000
vt 0.375000 0.500000
vt 0.125000 0.750000
vt 0.625000 0.500000
vt 0.875000 0.500000
vt 0.875000 0.750000
vt 0.625000 0.750000
vt 0.375000 0.750000
vt 0.625000 1.000000
vt 0.375000 1.000000
vt 0.375000 0.000000
vt 0.625000 0.000000
vt 0.625000 0.250000
vt 0.375000 0.250000
vt 0.125000 0.500000
vt 0.375000 0.500000
vt 0.125000 0.750000
vt 0.625000 0.500000
vt 0.875000 0.500000
vt 0.875000 0.750000
vt 0.625000 0.750000
vt 0.375000 0.750000
vt 0.625000 1.000000
vt 0.375000 1.000000
vt 0.375000 0.000000
vt 0.625000 0.000000
vt 0.625000 0.250000
vt 0.375000 0.250000
vt 0.125000 0.500000
vt 0.375000 0.500000
vt 0.125000 0.750000
vt 0.625000 0.500000
vt 0.875000 0.500000
vt 0.875000 0.750000
vt 0.625000 0.750000
vt 0.375000 0.750000
vt 0.625000 1.000000
vt 0.375000 1.000000
vt 0.375000 0.000000
vt 0.625000 0.000000
vt 0.625000 0.250000
vt 0.375000 0.250000
vt 0.125000 0.500000
vt 0.375000 0.500000
vt 0.125000 0.750000
vt 0.625000 0.500000
vt 0.875000 0.500000
vt 0.875000 0.750000
vt 0.625000 0.750000
vt 0.375000 0.750000
vt 0.625000 1.000000
vt 0.375000 1.000000
vt 0.375000 0.000000
vt 0.625000 0.000000
vt 0.625000 0.250000
vt 0.375000 0.250000
vt 0.125000 0.500000
vt 0.375000 0.500000
vt 0.125000 0.750000
vt 0.625000 0.500000
vt 0.875000 0.500000
vt 0.875000 0.750000
vt 0.625000 0.750000
vt 0.375000 0.750000
vt 0.625000 1.000000
vt 0.375000 1.000000
vt 0.375000 0.000000
vt 0.625000 0.000000
vt 0.625000 0.250000
vt 0.375000 0.250000
vt 0.125000 0.500000
vt 0.375000 0.500000
vt 0.125000 0.750000
vt 0.625000 0.500000
vt 0.875000 0.500000
vt 0.875000 0.750000
vt 0.625000 0.750000
vt 0.375000 0.750000
vt 0.625000 1.000000
vt 0.375000 1.000000
vt 0.375000 0.000000
vt 0.625000 0.000000
vt 0.625000 0.250000
vt 0.375000 0.250000
vt 0.125000 0.500000
vt 0.375000 0.500000
vt 0.125000 0.750000
vt 0.625000 0.500000
vt 0.875000 0.500000
vt 0.875000 0.750000
vt 0.625000 0.750000
vt 0.375000 0.750000
vt 0.625000 1.000000
vt 0.375000 1.000000
vt 0.375000 0.000000
vt 0.625000 0.000000
vt 0.625000 0.250000
vt 0.375000 0.250000
vt 0.125000 0.500000
vt 0.375000 0.500000
vt 0.125000 0.750000
vt 0.625000 0.500000
vt 0.875000 0.500000
vt 0.875000 0.750000
vt 0.625000 0.750000
vt 0.375000 0.750000
vt 0.625000 1.000000
vt 0.375000 1.000000
vt 0.375000 0.000000
vt 0.625000 0.000000
vt 0.625000 0.250000
vt 0.375000 0.250000
vt 0.125000 0.500000
vt 0.375000 0.500000
vt 0.125000 0.750000
vt 0.625000 0.500000
vt 0.875000 0.500000
vt 0.875000 0.750000
vt 0.625000 0.750000
vt 0.375000 0.750000
vt 0.625000 1.000000
vt 0.375000 1.000000
vt 0.375000 0.000000
vt 0.625000 0.000000
vt 0.625000 0.250000
vt 0.375000 0.250000
vt 0.125000 0.500000
vt 0.375000 0.500000
vt 0.125000 0.750000
vt 0.625000 0.500000
vt 0.875000 0.500000
vt 0.875000 0.750000
vt 0.625000 0.750000
vt 0.375000 0.750000
vt 0.625000 1.000000
vt 0.375000 1.000000
vt 0.375000 0.000000
vt 0.625000 0.000000
vt 0.625000 0.250000
vt 0.375000 0.250000
vt 0.125000 0.500000
vt 0.375000 0.500000
vt 0.125000 0.750000
vt 0.625000 0.500000
vt 0.875000 0.500000
vt 0.875000 0.750000
vt 0.625000 0.750000
vt 0.375000 0.750000
vt 0.625000 1.000000
vt 0.375000 1.000000
vt 0.375000 0.000000
vt 0.625000 0.000000
vt 0.625000 0.250000
vt 0.375000 0.250000
vt 0.125000 0.500000
vt 0.375000 0.500000
vt 0.125000 0.750000
vt 0.625000 0.500000
vt 0.875000 0.500000
vt 0.875000 0.750000
vt 0.625000 0.750000
vt 0.375000 0.750000
vt 0.625000 1.000000
vt 0.375000 1.000000
vt 0.375000 0.000000
vt 0.625000 0.000000
vt 0.625000 0.250000
vt 0.375000 0.250000
vt 0.125000 0.500000
vt 0.375000 0.500000
vt 0.125000 0.750000
vn 0.0000 1.0000 0.0000
vn 0.0000 0.0000 1.0000
vn -1.0000 0.0000 0.0000
vn 0.0000 -1.0000 0.0000
vn 1.0000 0.0000 0.0000
vn 0.0000 0.0000 -1.0000
usemtl Material.001
s off
f 1/1/1 5/2/1 7/3/1 3/4/1
f 4/5/2 3/4/2 7/6/2 8/7/2
f 8/8/3 7/9/3 5/10/3 6/11/3
f 6/12/4 2/13/4 4/5/4 8/14/4
f 2/13/5 1/1/5 3/4/5 4/5/5
f 6/11/6 5/10/6 1/1/6 2/13/6
f 9/15/1 13/16/1 15/17/1 11/18/1
f 12/19/2 11/18/2 15/20/2 16/21/2
f 16/22/3 15/23/3 13/24/3 14/25/3
f 14/26/4 10/27/4 12/19/4 16/28/4
f 10/27/5 9/15/5 11/18/5 12/19/5
f 14/25/6 13/24/6 9/15/6 10/27/6
f 17/29/1 21/30/1 23/31/1 19/32/1
f 20/33/2 19/32/2 23/34/2 24/35/2
f 24/36/3 23/37/3 21/38/3 22/39/3
f 22/40/4 18/41/4 20/33/4 24/42/4
f 18/41/5 17/29/5 19/32/5 20/33/5
f 22/39/6 21/38/6 17/29/6 18/41/6
f 25/43/1 29/44/1 31/45/1 27/46/1
f 28/47/2 27/46/2 31/48/2 32/49/2
f 32/50/3 31/51/3 29/52/3 30/53/3
f 30/54/4 26/55/4 28/47/4 32/56/4
f 26/55/5 25/43/5 27/46/5 28/47/5
f 30/53/6 29/52/6 25/43/6 26/55/6
f 33/57/1 37/58/1 39/59/1 35/60/1
f 36/61/2 35/60/2 39/62/2 40/63/2
f 40/64/3 39/65/3 37/66/3 38/67/3
f 38/68/4 34/69/4 36/61/4 40/70/4
f 34/69/5 33/57/5 35/60/5 36/61/5
f 38/67/6 37/66/6 33/57/6 34/69/6
f 41/71/1 45/72/1 47/73/1 43/74/1
f 44/75/2 43/74/2 47/76/2 48/77/2
f 48/78/3 47/79/3 45/80/3 46/81/3
f 46/82/4 42/83/4 44/75/4 48/84/4
f 42/83/5 41/71/5 43/74/5 44/75/5
f 46/81/6 45/80/6 41/71/6 42/83/6
f 49/85/1 53/86/1 55/87/1 51/88/1
f 52/89/2 51/88/2 55/90/2 56/91/2
f 56/92/3 55/93/3 53/94/3 54/95/3
f 54/96/4 50/97/4 52/89/4 56/98/4
f 50/97/5 49/85/5 51/88/5 52/89/5
f 54/95/6 53/94/6 49/85/6 50/97/6
f 57/99/6 61/100/6 63/101/6 59/102/6
f 60/103/1 59/102/1 63/104/1 64/105/1
f 64/106/3 63/107/3 61/108/3 62/109/3
f 62/110/2 58/111/2 60/103/2 64/112/2
f 58/111/5 57/99/5 59/102/5 60/103/5
f 62/109/4 61/108/4 57/99/4 58/111/4
f 65/113/6 69/114/6 71/115/6 67/116/6
f 68/117/1 67/116/1 71/118/1 72/119/1
f 72/120/3 71/121/3 69/122/3 70/123/3
f 70/124/2 66/125/2 68/117/2 72/126/2
f 66/125/5 65/113/5 67/116/5 68/117/5
f 70/123/4 69/122/4 65/113/4 66/125/4
f 73/127/6 77/128/6 79/129/6 75/130/6
f 76/131/1 75/130/1 79/132/1 80/133/1
f 80/134/3 79/135/3 77/136/3 78/137/3
f 78/138/2 74/139/2 76/131/2 80/140/2
f 74/139/5 73/127/5 75/130/5 76/131/5
f 78/137/4 77/136/4 73/127/4 74/139/4
f 81/141/5 85/142/5 87/143/5 83/144/5
f 84/145/1 83/144/1 87/146/1 88/147/1
f 88/148/6 87/149/6 85/150/6 86/151/6
f 86/152/3 82/153/3 84/145/3 88/154/3
f 82/153/2 81/141/2 83/144/2 84/145/2
f 86/151/4 85/150/4 81/141/4 82/153/4
f 89/155/5 93/156/5 95/157/5 91/158/5
f 92/159/1 91/158/1 95/160/1 96/161/1
f 96/162/6 95/163/6 93/164/6 94/165/6
f 94/166/3 90/167/3 92/159/3 96/168/3
f 90/167/2 89/155/2 91/158/2 92/159/2
f 94/165/4 93/164/4 89/155/4 90/167/4
f 97/169/5 101/170/5 103/171/5 99/172/5
f 100/173/1 99/172/1 103/174/1 104/175/1
f 104/176/6 103/177/6 101/178/6 102/179/6
f 102/180/3 98/181/3 100/173/3 104/182/3
f 98/181/2 97/169/2 99/172/2 100/173/2
f 102/179/4 101/178/4 97/169/4 98/181/4
f 105/183/5 109/184/5 111/185/5 107/186/5
f 108/187/1 107/186/1 111/188/1 112/189/1
f 112/190/6 111/191/6 109/192/6 110/193/6
f 110/194/3 106/195/3 108/187/3 112/196/3
f 106/195/2 105/183/2 107/186/2 108/187/2
f 110/193/4 109/192/4 105/183/4 106/195/4
f 113/197/6 117/198/6 119/199/6 115/200/6
f 116/201/1 115/200/1 119/202/1 120/203/1
f 120/204/3 119/205/3 117/206/3 118/207/3
f 118/208/2 114/209/2 116/201/2 120/210/2
f 114/209/5 113/197/5 115/200/5 116/201/5
f 118/207/4 117/206/4 113/197/4 114/209/4
f 121/211/6 125/212/6 127/213/6 123/214/6
f 124/215/1 123/214/1 127/216/1 128/217/1
f 128/218/3 127/219/3 125/220/3 126/221/3
f 126/222/2 122/223/2 124/215/2 128/224/2
f 122/223/5 121/211/5 123/214/5 124/215/5
f 126/221/4 125/220/4 121/211/4 122/223/4
f 129/225/6 133/226/6 135/227/6 131/228/6
f 132/229/1 131/228/1 135/230/1 136/231/1
f 136/232/3 135/233/3 133/234/3 134/235/3
f 134/236/2 130/237/2 132/229/2 136/238/2
f 130/237/5 129/225/5 131/228/5 132/229/5
f 134/235/4 133/234/4 129/225/4 130/237/4
f 137/239/6 141/240/6 143/241/6 139/242/6
f 140/243/1 139/242/1 143/244/1 144/245/1
f 144/246/3 143/247/3 141/248/3 142/249/3
f 142/250/2 138/251/2 140/243/2 144/252/2
f 138/251/5 137/239/5 139/242/5 140/243/5
f 142/249/4 141/248/4 137/239/4 138/251/4
f 145/253/6 149/254/6 151/255/6 147/256/6
f 148/257/1 147/256/1 151/258/1 152/259/1
f 152/260/3 151/261/3 149/262/3 150/263/3
f 150/264/2 146/265/2 148/257/2 152/266/2
f 146/265/5 145/253/5 147/256/5 148/257/5
f 150/263/4 149/262/4 145/253/4 146/265/4
