# Blender v2.90.1 OBJ File: 'bread.blend'
# www.blender.org
mtllib bread.mtl
o Cube
v -0.631065 0.579075 -2.652807
v -0.555107 -0.597768 -2.652806
v 0.603274 0.490287 -2.652806
v 0.592788 -0.555133 -2.652807
v -0.042868 0.042868 -2.344654
v 0.042868 0.042868 -2.344654
v 0.042868 -0.042868 -2.344654
v -0.042868 -0.042868 -2.344654
v 0.615865 0.615865 -2.127221
v 0.604011 0.964197 -1.597974
v 0.964197 0.604011 -1.597975
v 0.604011 -0.964197 -1.597975
v 0.615865 -0.615865 -2.127221
v 0.964197 -0.604011 -1.597974
v 0.964197 0.604011 1.597974
v 0.604011 0.964197 1.597975
v 0.604011 0.604011 2.083505
v 0.964197 -0.604011 1.597975
v 0.604011 -0.604011 2.083505
v 0.604011 -0.964197 1.597974
v -0.615865 0.615865 -2.127221
v -0.964197 0.604011 -1.597974
v -0.604011 0.964197 -1.597975
v -0.964197 -0.604011 -1.597975
v -0.615865 -0.615865 -2.127221
v -0.604011 -0.964197 -1.597974
v -0.964197 0.604011 1.597975
v -0.604011 0.604011 2.083505
v -0.604011 0.964197 1.597974
v -0.604011 -0.964197 1.597975
v -0.604011 -0.604011 2.083505
v -0.964197 -0.604011 1.597974
v 0.825740 -0.013313 -2.682938
v -0.698878 -0.013313 -2.682938
v 0.010005 0.643350 -2.682938
v -0.102709 -0.714855 -2.682938
v 0.024261 -0.005549 -2.570552
v 0.058944 -0.000000 -2.344654
v 0.765681 0.253849 -2.674183
v -0.687981 -0.365806 -2.674183
v 0.000000 -0.058944 -2.344654
v -0.316423 -0.316423 -2.249604
v 0.000000 0.058944 -2.344654
v 0.316423 0.316423 -2.249604
v -0.375362 0.677500 -2.674183
v 0.316423 -0.316423 -2.249604
v -0.058944 0.000000 -2.344654
v 0.324150 -0.647804 -2.674183
v -0.316423 0.316423 -2.249604
v 0.901479 0.604019 -1.939505
v 0.604019 0.901479 -1.939505
v 0.895398 0.895398 -1.590574
v 0.895398 -0.895398 -1.590574
v 0.604019 -0.901479 -1.939505
v 0.901479 -0.604019 -1.939505
v 0.895398 0.601214 1.934839
v 0.895398 0.895398 1.590574
v 0.601214 0.895398 1.934839
v 0.895398 -0.895398 1.590574
v 0.895398 -0.601214 1.934839
v 0.601214 -0.895398 1.934839
v -0.604019 0.901479 -1.939505
v -0.901479 0.604019 -1.939505
v -0.895398 0.895398 -1.590574
v -0.895398 -0.895398 -1.590574
v -0.901479 -0.604019 -1.939505
v -0.604019 -0.901479 -1.939505
v -0.895398 0.895398 1.590574
v -0.895398 0.601214 1.934839
v -0.601214 0.895398 1.934839
v -0.895398 -0.895398 1.590574
v -0.601214 -0.895398 1.934839
v -0.895398 -0.601214 1.934839
v -0.605689 -0.975945 -0.000000
v -0.975945 -0.605689 0.000000
v 0.000000 -0.975945 -1.602414
v 0.000000 -0.735785 -2.144284
v 0.975945 0.000000 -1.602414
v 0.735785 0.000000 -2.144284
v -0.605689 -0.000000 2.108891
v -0.975945 0.000000 1.602414
v 0.605689 0.000000 2.108891
v 0.975945 0.000000 1.602414
v -0.735785 -0.000000 -2.144284
v -0.975945 -0.000000 -1.602414
v 0.000000 0.975945 1.602414
v -0.000000 0.605689 2.108891
v 0.605689 0.975945 -0.000000
v 0.975945 0.605689 0.000000
v 0.000000 -0.975945 1.602414
v 0.000000 -0.605689 2.108891
v -0.605689 0.975945 0.000000
v -0.975945 0.605689 -0.000000
v 0.000000 0.975945 -1.602414
v -0.000000 0.735785 -2.144284
v 0.605689 -0.975945 0.000000
v 0.975945 -0.605689 -0.000000
v 0.461907 -0.434070 -2.553066
v 0.461907 0.417302 -2.553066
v -0.444661 0.417302 -2.553066
v -0.444661 -0.434070 -2.553066
v 0.673694 -0.298475 -2.674183
v -0.763940 0.342637 -2.674183
v 0.334636 0.689889 -2.674183
v -0.268175 -0.644198 -2.674183
v 0.541518 -0.009203 -2.666075
v -0.425686 -0.009203 -2.666075
v -0.094566 -0.464592 -2.666075
v 0.018148 0.394725 -2.666075
v 0.000000 -0.990210 0.000000
v -0.990210 -0.000000 -0.000000
v 0.686941 -0.010793 -2.578130
v -0.000000 -0.000000 2.139716
v 0.000000 0.990210 0.000000
v 0.990210 0.000000 0.000000
v 0.865547 0.865547 -1.869572
v 0.865547 -0.865547 -1.869572
v 0.864495 0.864495 1.868062
v 0.864495 -0.864495 1.868062
v -0.865547 0.865547 -1.869572
v -0.865547 -0.865547 -1.869572
v -0.864495 0.864495 1.868062
v -0.864495 -0.864495 1.868062
v -0.901062 -0.901062 0.000000
v 0.000000 -0.915569 -1.951645
v 0.915569 0.000000 -1.951645
v -0.901062 0.000000 1.947079
v 0.901062 -0.000000 1.947079
v -0.915569 -0.000000 -1.951645
v 0.000000 0.901062 1.947079
v 0.901062 0.901062 0.000000
v 0.000000 -0.901062 1.947079
v -0.901062 0.901062 0.000000
v -0.000000 0.915569 -1.951645
v 0.901062 -0.901062 0.000000
v 0.424955 0.000000 -2.250377
v 0.000000 -0.424955 -2.250377
v -0.424955 -0.000000 -2.250377
v 0.000000 0.424955 -2.250377
v 0.477427 0.438083 -2.681131
v -0.647112 -0.010793 -2.578130
v 0.003610 0.592922 -2.578130
v 0.003610 -0.606651 -2.578130
v 0.385440 -0.372856 -2.681131
v -0.381611 -0.393948 -2.681131
v -0.488798 0.425694 -2.681131
vt 0.033314 0.246242
vt 0.058760 0.246242
vt 0.058760 0.619012
vt 0.033314 0.619012
vt 0.086519 0.246242
vt 0.086519 0.619012
vt 0.086519 0.991782
vt 0.058760 0.991782
vt 0.033314 0.991782
vt 0.992117 0.992147
vt 0.925373 0.992147
vt 0.925373 0.619376
vt 0.992117 0.619377
vt 0.864114 0.992147
vt 0.864114 0.619376
vt 0.864114 0.246606
vt 0.925373 0.246606
vt 0.992117 0.246606
vt 0.619628 0.015091
vt 0.688424 0.015091
vt 0.689611 0.130701
vt 0.619599 0.119301
vt 0.756846 0.015091
vt 0.756846 0.110794
vt 0.756846 0.206498
vt 0.725596 0.206498
vt 0.694346 0.206498
vt 0.657185 0.206498
vt 0.619715 0.206498
vt 0.018328 0.025620
vt 0.089800 0.045025
vt 0.089795 0.100240
vt 0.039659 0.098480
vt 0.161272 0.025627
vt 0.139920 0.098823
vt 0.137979 0.168517
vt 0.089795 0.168704
vt 0.041610 0.170033
vt 0.450125 0.246242
vt 0.603683 0.246242
vt 0.603683 0.619012
vt 0.450125 0.619012
vt 0.758947 0.246242
vt 0.758947 0.619012
vt 0.758947 0.991782
vt 0.603683 0.991782
vt 0.450125 0.991782
vt 0.167099 0.246242
vt 0.263082 0.246242
vt 0.263082 0.619012
vt 0.167099 0.619012
vt 0.337580 0.246242
vt 0.337580 0.619012
vt 0.337580 0.991782
vt 0.263082 0.991782
vt 0.167099 0.991782
vt 0.343619 0.189244
vt 0.348345 0.161601
vt 0.347079 0.183740
vt 0.343619 0.189918
vt 0.352597 0.159523
vt 0.348781 0.186202
vt 0.343619 0.194631
vt 0.227083 0.102995
vt 0.227083 0.095443
vt 0.232118 0.097960
vt 0.234635 0.102995
vt 0.227083 0.087891
vt 0.234635 0.095443
vt 0.242188 0.102995
vt 0.159672 0.009627
vt 0.164472 0.009627
vt 0.162872 0.012827
vt 0.159672 0.014427
vt 0.169272 0.009627
vt 0.164472 0.014427
vt 0.159672 0.019227
vt 0.019980 0.019227
vt 0.020146 0.024027
vt 0.016870 0.025624
vt 0.015149 0.024023
vt 0.020311 0.028827
vt 0.015314 0.028823
vt 0.010318 0.028819
vt 0.354764 0.016306
vt 0.349191 0.016306
vt 0.350925 0.012715
vt 0.354578 0.010919
vt 0.343619 0.016306
vt 0.349006 0.010919
vt 0.354393 0.005532
vt 0.186842 0.005532
vt 0.186842 0.010919
vt 0.183251 0.009124
vt 0.181455 0.005532
vt 0.186842 0.016306
vt 0.181455 0.010919
vt 0.176068 0.005532
vt 0.137990 0.177638
vt 0.137634 0.173525
vt 0.158740 0.174603
vt 0.161761 0.177638
vt 0.137990 0.169762
vt 0.161761 0.173110
vt 0.169272 0.177638
vt 0.010318 0.146750
vt 0.016888 0.148352
vt 0.014129 0.168137
vt 0.010318 0.170354
vt 0.017829 0.173265
vt 0.010318 0.177638
vt 0.017143 0.619012
vt 0.017143 0.246242
vt 0.017143 0.991782
vt 0.006898 0.991782
vt 0.006898 0.619012
vt 0.006898 0.246242
vt 0.165294 0.205405
vt 0.086906 0.205405
vt 0.086906 0.200243
vt 0.165294 0.200243
vt 0.008517 0.205405
vt 0.008517 0.200243
vt 0.008517 0.196427
vt 0.086906 0.196427
vt 0.165294 0.196427
vt 0.343619 0.205405
vt 0.265230 0.205405
vt 0.265230 0.195117
vt 0.343619 0.195305
vt 0.186842 0.205405
vt 0.186842 0.195080
vt 0.186842 0.187448
vt 0.264686 0.187054
vt 0.019980 0.168187
vt 0.087116 0.168384
vt 0.087071 0.172989
vt 0.019980 0.172913
vt 0.087116 0.177638
vt 0.019980 0.177638
vt 0.089811 0.020765
vt 0.159872 0.018827
vt 0.019750 0.018823
vt 0.019980 0.009627
vt 0.089826 0.009627
vt 0.345414 0.023489
vt 0.264836 0.024034
vt 0.265268 0.015858
vt 0.343843 0.015858
vt 0.186842 0.023489
vt 0.186842 0.015858
vt 0.265230 0.005532
vt 0.343619 0.005532
vt 0.169272 0.028827
vt 0.169272 0.098673
vt 0.162245 0.098606
vt 0.164672 0.028427
vt 0.169272 0.168518
vt 0.161760 0.168518
vt 0.394829 0.619012
vt 0.394829 0.246242
vt 0.394829 0.991782
vt 0.010318 0.095944
vt 0.017300 0.096321
vt 0.014919 0.028419
vt 0.758858 0.992147
vt 0.758858 0.619377
vt 0.812650 0.619376
vt 0.812649 0.992147
vt 0.758858 0.246606
vt 0.812649 0.246606
vt 0.354393 0.027080
vt 0.354168 0.102427
vt 0.349105 0.102922
vt 0.349230 0.026632
vt 0.344164 0.105099
vt 0.114090 0.619012
vt 0.114090 0.991782
vt 0.114090 0.246242
vt 0.262509 0.181622
vt 0.319704 0.160429
vt 0.186842 0.184306
vt 0.186842 0.183857
vt 0.261964 0.180591
vt 0.317489 0.157728
vt 0.086906 0.194856
vt 0.165294 0.194856
vt 0.008517 0.194856
vt 0.008517 0.194631
vt 0.086906 0.194631
vt 0.165294 0.194631
vt 0.262546 0.029353
vt 0.186842 0.026632
vt 0.319854 0.050658
vt 0.317489 0.053210
vt 0.261964 0.030347
vt 0.186842 0.027080
vt 0.338362 0.105506
vt 0.337086 0.105469
vt 0.865234 0.111328
vt 0.912843 0.111328
vt 0.912843 0.158937
vt 0.865234 0.158937
vt 0.960452 0.111328
vt 0.960452 0.158937
vt 0.960452 0.206546
vt 0.912843 0.206546
vt 0.865234 0.206546
vt 0.363227 0.015091
vt 0.422290 0.015091
vt 0.423295 0.130701
vt 0.363227 0.110795
vt 0.484168 0.015091
vt 0.483785 0.119301
vt 0.482128 0.206498
vt 0.454261 0.206498
vt 0.427680 0.206498
vt 0.395453 0.206498
vt 0.363227 0.206498
vt 0.550677 0.015091
vt 0.549159 0.131466
vt 0.581729 0.206498
vt 0.543435 0.206498
vt 0.512139 0.206498
vt 0.086906 0.194631
vt 0.165294 0.194631
vt 0.008517 0.194631
vt 0.008517 0.194631
vt 0.047712 0.194631
vt 0.086906 0.194631
vt 0.126100 0.194631
vt 0.165294 0.194631
vt 0.770017 0.111328
vt 0.817626 0.111328
vt 0.817626 0.158937
vt 0.770017 0.158937
vt 0.817626 0.206546
vt 0.770017 0.206546
vt 0.770017 0.016111
vt 0.817626 0.016111
vt 0.817626 0.063719
vt 0.770017 0.063719
vt 0.865234 0.016111
vt 0.865234 0.063719
vt 0.912843 0.016111
vt 0.912843 0.063719
vt 0.960452 0.016111
vt 0.960452 0.063719
vn -0.1221 -0.9887 -0.0865
vn 0.0000 -0.9957 -0.0924
vn 0.0000 -1.0000 0.0000
vn -0.1305 -0.9914 0.0000
vn 0.1221 -0.9887 -0.0865
vn 0.1305 -0.9914 0.0000
vn 0.1186 -0.9881 0.0977
vn 0.0000 -0.9941 0.1081
vn -0.1186 -0.9881 0.0977
vn -0.9881 -0.1186 0.0977
vn -0.9941 0.0000 0.1081
vn -1.0000 0.0000 0.0000
vn -0.9914 -0.1305 0.0000
vn -0.9881 0.1186 0.0977
vn -0.9914 0.1305 0.0000
vn -0.9887 0.1221 -0.0865
vn -0.9957 0.0000 -0.0924
vn -0.9887 -0.1221 -0.0865
vn 0.6677 0.7392 -0.0879
vn 0.9976 0.0024 -0.0687
vn 0.4943 -0.0321 0.8686
vn 0.2797 0.3215 0.9046
vn 0.6697 -0.7379 -0.0830
vn 0.3178 -0.3468 0.8825
vn 0.6900 -0.7050 -0.1638
vn 0.8840 -0.2958 -0.3619
vn 0.9307 -0.1578 -0.3299
vn 0.9247 0.2808 -0.2568
vn 0.7262 0.6819 -0.0869
vn 0.2302 -0.2302 0.9455
vn 0.2624 0.0000 0.9649
vn 0.0000 0.0000 1.0000
vn 0.0000 -0.2624 0.9649
vn 0.2302 0.2302 0.9455
vn 0.0000 0.2624 0.9649
vn -0.2302 0.2302 0.9455
vn -0.2624 0.0000 0.9649
vn -0.2302 -0.2302 0.9455
vn 0.1221 0.9887 -0.0865
vn 0.0000 0.9957 -0.0924
vn 0.0000 1.0000 0.0000
vn 0.1305 0.9914 0.0000
vn -0.1221 0.9887 -0.0865
vn -0.1305 0.9914 0.0000
vn -0.1186 0.9881 0.0977
vn 0.0000 0.9941 0.1081
vn 0.1186 0.9881 0.0977
vn 0.9887 -0.1221 -0.0865
vn 0.9957 0.0000 -0.0924
vn 1.0000 0.0000 0.0000
vn 0.9914 -0.1305 0.0000
vn 0.9887 0.1221 -0.0865
vn 0.9914 0.1305 0.0000
vn 0.9881 0.1186 0.0977
vn 0.9941 0.0000 0.1081
vn 0.9881 -0.1186 0.0977
vn 0.3369 0.3369 -0.8792
vn 0.1997 0.8174 -0.5403
vn 0.6381 0.6381 -0.4307
vn 0.8174 0.1997 -0.5403
vn 0.7042 0.7042 -0.0908
vn 0.1997 -0.8174 -0.5403
vn 0.6381 -0.6381 -0.4307
vn 0.7042 -0.7042 -0.0908
vn 0.3369 -0.3369 -0.8792
vn 0.8174 -0.1997 -0.5403
vn 0.7036 0.7036 0.0986
vn 0.6244 0.6244 0.4692
vn 0.7718 0.1670 0.6135
vn 0.1670 0.7718 0.6135
vn 0.7718 -0.1670 0.6135
vn 0.6244 -0.6244 0.4692
vn 0.7036 -0.7036 0.0986
vn 0.1670 -0.7718 0.6135
vn -0.3369 0.3369 -0.8792
vn -0.8174 0.1997 -0.5403
vn -0.6381 0.6381 -0.4307
vn -0.1997 0.8174 -0.5403
vn -0.7042 0.7042 -0.0908
vn -0.8174 -0.1997 -0.5403
vn -0.6381 -0.6381 -0.4307
vn -0.7042 -0.7042 -0.0908
vn -0.3369 -0.3369 -0.8792
vn -0.1997 -0.8174 -0.5403
vn -0.7718 0.1670 0.6135
vn -0.6244 0.6244 0.4692
vn -0.7036 0.7036 0.0986
vn -0.1670 0.7718 0.6135
vn -0.1670 -0.7718 0.6135
vn -0.6244 -0.6244 0.4692
vn -0.7036 -0.7036 0.0986
vn -0.7718 -0.1670 0.6135
vn -0.7071 -0.7071 0.0000
vn 0.0000 -0.8622 -0.5065
vn 0.0000 -0.4954 -0.8686
vn 0.8622 0.0000 -0.5065
vn 0.4954 0.0000 -0.8686
vn -0.7968 0.0000 0.6042
vn 0.7968 0.0000 0.6042
vn -0.4954 0.0000 -0.8686
vn -0.8622 0.0000 -0.5065
vn 0.0000 0.7968 0.6042
vn 0.7071 0.7071 0.0000
vn 0.0000 -0.7968 0.6042
vn -0.7071 0.7071 0.0000
vn 0.0000 0.8622 -0.5065
vn 0.0000 0.4954 -0.8686
vn 0.7071 -0.7071 0.0000
vn 0.2856 0.0000 -0.9583
vn 0.1910 0.1910 -0.9628
vn 0.1910 -0.1910 -0.9628
vn 0.0000 -0.2856 -0.9583
vn -0.1910 -0.1910 -0.9628
vn -0.6843 -0.7237 -0.0892
vn -0.0024 -0.9959 -0.0898
vn -0.2856 0.0000 -0.9583
vn -0.1910 0.1910 -0.9628
vn -0.6821 0.7251 -0.0941
vn -0.9968 0.0022 -0.0796
vn 0.0000 0.2856 -0.9583
vn -0.0026 0.9954 -0.0961
vn -0.0023 0.0092 -0.9999
vn 0.0011 -0.0784 -0.9969
vn 0.0350 0.0244 -0.9991
vn -0.0597 0.0039 -0.9982
vn -0.0138 0.7700 -0.6378
vn 0.3136 0.9195 -0.2370
vn -0.6299 -0.0439 0.7754
vn -0.2912 -0.3279 0.8987
vn -0.2463 0.2825 0.9271
vn -0.6818 0.7283 -0.0692
vn -0.9439 0.2644 -0.1975
vn -0.7947 -0.0851 -0.6010
vn -0.9051 -0.3351 -0.2616
vn -0.6017 -0.7867 -0.1378
vn 0.0036 0.6456 0.7636
vn -0.2321 0.9431 -0.2378
vn 0.0006 -0.5555 0.8315
vn -0.1490 -0.9237 -0.3529
vn 0.0002 -0.9231 -0.3844
vn 0.2322 -0.9240 -0.3039
vn 0.0206 0.0734 -0.9971
vn -0.0240 0.0428 -0.9988
vn 0.0360 0.0114 -0.9993
vn 0.0763 -0.0047 -0.9970
vn -0.0026 0.0055 -1.0000
usemtl Material
s 1
f 26/1/1 76/2/2 110/3/3 74/4/4
f 76/2/2 12/5/5 96/6/6 110/3/3
f 110/3/3 96/6/6 20/7/7 90/8/8
f 74/4/4 110/3/3 90/8/8 30/9/9
f 32/10/10 81/11/11 111/12/12 75/13/13
f 81/11/11 27/14/14 93/15/15 111/12/12
f 111/12/12 93/15/15 22/16/16 85/17/17
f 75/13/13 111/12/12 85/17/17 24/18/18
f 6/19/19 38/20/20 112/21/21 99/22/22
f 7/23/23 98/24/24 112/21/21 38/20/20
f 4/25/25 102/26/26 112/21/21 98/24/24
f 33/27/27 39/28/28 112/21/21 102/26/26
f 3/29/29 99/22/22 112/21/21 39/28/28
f 19/30/30 82/31/31 113/32/32 91/33/33
f 82/31/31 17/34/34 87/35/35 113/32/32
f 113/32/32 87/35/35 28/36/36 80/37/37
f 91/33/33 113/32/32 80/37/37 31/38/38
f 10/39/39 94/40/40 114/41/41 88/42/42
f 94/40/40 23/43/43 92/44/44 114/41/41
f 114/41/41 92/44/44 29/45/45 86/46/46
f 88/42/42 114/41/41 86/46/46 16/47/47
f 14/48/48 78/49/49 115/50/50 97/51/51
f 78/49/49 11/52/52 89/53/53 115/50/50
f 115/50/50 89/53/53 15/54/54 83/55/55
f 97/51/51 115/50/50 83/55/55 18/56/56
f 9/57/57 51/58/58 116/59/59 50/60/60
f 10/61/39 52/62/61 116/59/59 51/58/58
f 11/63/52 50/60/60 116/59/59 52/62/61
f 12/64/5 54/65/62 117/66/63 53/67/64
f 13/68/65 55/69/66 117/66/63 54/65/62
f 14/70/48 53/67/64 117/66/63 55/69/66
f 15/71/54 57/72/67 118/73/68 56/74/69
f 16/75/47 58/76/70 118/73/68 57/72/67
f 17/77/34 56/74/69 118/73/68 58/76/70
f 18/78/56 60/79/71 119/80/72 59/81/73
f 19/82/30 61/83/74 119/80/72 60/79/71
f 20/84/7 59/81/73 119/80/72 61/83/74
f 21/85/75 63/86/76 120/87/77 62/88/78
f 22/89/16 64/90/79 120/87/77 63/86/76
f 23/91/43 62/88/78 120/87/77 64/90/79
f 24/92/18 66/93/80 121/94/81 65/95/82
f 25/96/83 67/97/84 121/94/81 66/93/80
f 26/98/1 65/95/82 121/94/81 67/97/84
f 27/99/14 69/100/85 122/101/86 68/102/87
f 28/103/36 70/104/88 122/101/86 69/100/85
f 29/105/45 68/102/87 122/101/86 70/104/88
f 30/106/9 72/107/89 123/108/90 71/109/91
f 31/38/38 73/110/92 123/108/90 72/107/89
f 32/111/10 71/109/91 123/108/90 73/110/92
f 26/1/1 74/4/4 124/112/93 65/113/82
f 74/4/4 30/9/9 71/114/91 124/112/93
f 124/112/93 71/114/91 32/115/10 75/116/13
f 65/113/82 124/112/93 75/116/13 24/117/18
f 12/118/5 76/119/2 125/120/94 54/121/62
f 76/119/2 26/122/1 67/123/84 125/120/94
f 125/120/94 67/123/84 25/124/83 77/125/95
f 54/121/62 125/120/94 77/125/95 13/126/65
f 11/127/52 78/128/49 126/129/96 50/130/60
f 78/128/49 14/131/48 55/132/66 126/129/96
f 126/129/96 55/132/66 13/133/65 79/134/97
f 50/130/60 126/129/96 79/134/97 9/57/57
f 31/135/38 80/136/37 127/137/98 73/138/92
f 80/136/37 28/103/36 69/100/85 127/137/98
f 127/137/98 69/100/85 27/99/14 81/139/11
f 73/138/92 127/137/98 81/139/11 32/140/10
f 17/34/34 82/31/31 128/141/99 56/142/69
f 82/31/31 19/30/30 60/143/71 128/141/99
f 128/141/99 60/143/71 18/144/56 83/145/55
f 56/142/69 128/141/99 83/145/55 15/71/54
f 21/146/75 84/147/100 129/148/101 63/149/76
f 84/147/100 25/150/83 66/151/80 129/148/101
f 129/148/101 66/151/80 24/92/18 85/152/17
f 63/149/76 129/148/101 85/152/17 22/153/16
f 16/154/47 86/155/46 130/156/102 58/157/70
f 86/155/46 29/158/45 70/159/88 130/156/102
f 130/156/102 70/159/88 28/36/36 87/35/35
f 58/157/70 130/156/102 87/35/35 17/34/34
f 10/39/39 88/42/42 131/160/103 52/161/61
f 88/42/42 16/47/47 57/162/67 131/160/103
f 131/160/103 57/162/67 15/54/54 89/53/53
f 52/161/61 131/160/103 89/53/53 11/52/52
f 30/106/9 90/163/8 132/164/104 72/107/89
f 90/163/8 20/84/7 61/165/74 132/164/104
f 132/164/104 61/165/74 19/30/30 91/33/33
f 72/107/89 132/164/104 91/33/33 31/38/38
f 29/166/45 92/167/44 133/168/105 68/169/87
f 92/167/44 23/170/43 64/171/79 133/168/105
f 133/168/105 64/171/79 22/16/16 93/15/15
f 68/169/87 133/168/105 93/15/15 27/14/14
f 23/172/43 94/173/40 134/174/106 62/175/78
f 94/173/40 10/61/39 51/58/58 134/174/106
f 134/174/106 51/58/58 9/57/57 95/176/107
f 62/175/78 134/174/106 95/176/107 21/146/75
f 20/7/7 96/6/6 135/177/108 59/178/73
f 96/6/6 12/5/5 53/179/64 135/177/108
f 135/177/108 53/179/64 14/48/48 97/51/51
f 59/178/73 135/177/108 97/51/51 18/56/56
f 9/57/57 79/134/97 136/180/109 44/181/110
f 79/134/97 13/133/65 46/182/111 136/180/109
f 136/180/109 46/182/111 7/183/23 38/184/20
f 44/181/110 136/180/109 38/184/20 6/185/19
f 13/126/65 77/125/95 137/186/112 46/187/111
f 77/125/95 25/124/83 42/188/113 137/186/112
f 137/186/112 42/188/113 8/189/114 41/190/115
f 46/187/111 137/186/112 41/190/115 7/191/23
f 25/150/83 84/147/100 138/192/116 42/193/113
f 84/147/100 21/146/75 49/194/117 138/192/116
f 138/192/116 49/194/117 5/195/118 47/196/119
f 42/193/113 138/192/116 47/196/119 8/197/114
f 21/146/75 95/176/107 139/198/120 49/194/117
f 95/176/107 9/57/57 44/181/110 139/198/120
f 139/198/120 44/181/110 6/185/19 43/199/121
f 49/194/117 139/198/120 43/199/121 5/195/118
f 37/200/122 109/201/123 140/202/124 106/203/125
f 109/201/123 35/204/126 104/205/127 140/202/124
f 140/202/124 104/205/127 3/206/29 39/207/28
f 106/203/125 140/202/124 39/207/28 33/208/27
f 8/209/114 47/210/119 141/211/128 101/212/129
f 5/213/118 100/214/130 141/211/128 47/210/119
f 1/215/131 103/216/132 141/211/128 100/214/130
f 34/217/133 40/218/134 141/211/128 103/216/132
f 2/219/135 101/212/129 141/211/128 40/218/134
f 5/213/118 43/220/121 142/221/136 100/214/130
f 6/19/19 99/22/22 142/221/136 43/220/121
f 3/29/29 104/222/127 142/221/136 99/22/22
f 35/223/126 45/224/137 142/221/136 104/222/127
f 1/215/131 100/214/130 142/221/136 45/224/137
f 7/191/23 41/190/115 143/225/138 98/226/24
f 8/189/114 101/227/129 143/225/138 41/190/115
f 2/228/135 105/229/139 143/225/138 101/227/129
f 36/230/140 48/231/141 143/225/138 105/229/139
f 4/232/25 98/226/24 143/225/138 48/231/141
f 36/233/140 108/234/142 144/235/143 48/236/141
f 108/234/142 37/200/122 106/203/125 144/235/143
f 144/235/143 106/203/125 33/208/27 102/237/26
f 48/236/141 144/235/143 102/237/26 4/238/25
f 2/239/135 40/240/134 145/241/144 105/242/139
f 40/240/134 34/243/133 107/244/145 145/241/144
f 145/241/144 107/244/145 37/200/122 108/234/142
f 105/242/139 145/241/144 108/234/142 36/233/140
f 34/243/133 103/245/132 146/246/146 107/244/145
f 103/245/132 1/247/131 45/248/137 146/246/146
f 146/246/146 45/248/137 35/204/126 109/201/123
f 107/244/145 146/246/146 109/201/123 37/200/122
