# Blender v2.90.1 OBJ File: 'untitled111.blend'
# www.blender.org
mtllib butter.mtl
o Cube
v -1.000000 -0.500000 2.000000
v -1.000000 0.500000 2.000000
v -1.000000 -0.500000 -2.000000
v -1.000000 0.500000 -2.000000
v 1.000000 -0.500000 2.000000
v 1.000000 0.500000 2.000000
v 1.000000 -0.500000 -2.000000
v 1.000000 0.500000 -2.000000
vt 0.066265 0.343785
vt 0.066265 0.124965
vt 0.476554 0.124965
vt 0.476554 0.343785
vt 0.503906 0.124965
vt 0.503906 0.343785
vt 0.914195 0.124965
vt 0.914195 0.343785
vt 0.941548 0.124965
vt 0.941548 0.343785
vt 0.027129 0.984750
vt 0.027129 0.476188
vt 0.980683 0.476188
vt 0.980683 0.984750
vt 0.027129 0.984750
vt 0.027129 0.476188
vt 0.980683 0.476188
vt 0.980683 0.984750
vn -1.0000 0.0000 0.0000
vn 0.0000 0.0000 -1.0000
vn 1.0000 0.0000 0.0000
vn 0.0000 0.0000 1.0000
vn 0.0000 -1.0000 0.0000
vn 0.0000 1.0000 0.0000
usemtl None
s off
f 1/1/1 2/2/1 4/3/1 3/4/1
f 3/4/2 4/3/2 8/5/2 7/6/2
f 7/6/3 8/5/3 6/7/3 5/8/3
f 5/8/4 6/7/4 2/9/4 1/10/4
f 3/11/5 7/12/5 5/13/5 1/14/5
f 8/15/6 4/16/6 2/17/6 6/18/6
