# Blender v2.90.1 OBJ File: ''
# www.blender.org
mtllib CheeseBlock.mtl
o Cube.001
v -2.325288 -1.000000 -0.935994
v 2.325288 -1.000000 -0.935994
v 2.325288 -1.000000 0.935994
v -2.325288 -1.000000 0.935994
v -2.409648 -0.935994 0.935994
v -2.409648 0.935994 0.935994
v -2.409648 0.935994 -0.935994
v -2.409648 -0.935994 -0.935994
v 2.325288 -0.935994 1.000000
v 2.325288 0.935994 1.000000
v -2.325288 0.935994 1.000000
v -2.325288 -0.935994 1.000000
v 2.325288 1.000000 -0.935994
v -2.325288 1.000000 -0.935994
v -2.325288 1.000000 0.935994
v 2.325288 1.000000 0.935994
v 2.409648 -0.935994 -0.935994
v 2.409648 0.935994 -0.935994
v 2.409648 0.935994 0.935994
v 2.409648 -0.935994 0.935994
v 2.325288 0.935994 -1.000000
v 2.325288 -0.935994 -1.000000
v -2.325288 0.935994 -1.000000
v -2.325288 -0.935994 -1.000000
vt 0.974677 0.040558
vt 0.974677 0.343838
vt 0.671396 0.343838
vt 0.671396 0.040558
vt 0.974757 0.364577
vt 0.974757 0.667858
vt 0.671476 0.667858
vt 0.671476 0.364577
vt 0.650657 0.364577
vt 0.650657 0.667858
vt 0.015763 0.667858
vt 0.015763 0.364577
vt 0.974677 0.688597
vt 0.974677 0.991877
vt 0.671396 0.991877
vt 0.671396 0.688597
vt 0.974677 0.364577
vt 0.974677 0.667858
vt 0.671396 0.667858
vt 0.671396 0.364577
vt 0.014765 0.667858
vt 0.014765 0.678227
vt 0.004396 0.667858
vt 0.985046 0.343838
vt 0.974677 0.354208
vt 0.671396 0.678227
vt 0.661027 0.667858
vt 0.661027 0.364577
vt 0.650657 0.354208
vt 0.650657 0.354208
vt 0.660029 0.667858
vt 0.660029 0.667858
vt 0.670399 0.678227
vt 0.670399 0.364577
vt 0.660030 0.364577
vt 0.670399 0.354208
vt 0.985126 0.667858
vt 0.974757 0.678227
vt 0.661027 0.040558
vt 0.671396 0.030188
vt 0.974677 0.030188
vt 0.985046 0.040558
vt 0.995416 0.364577
vt 0.995416 0.667858
vt 0.985126 0.364577
vt 0.649660 0.667858
vt 0.649660 0.364577
vt 0.670399 0.667858
vt 0.650657 0.678227
vt 0.015763 0.678227
vt 0.661027 0.343838
vt 0.671476 0.678227
vt 0.649660 0.678227
vt 0.014766 0.364577
vn 0.0000 -1.0000 -0.0000
vn -1.0000 0.0000 0.0000
vn 0.0000 -0.0000 1.0000
vn 0.0000 1.0000 0.0000
vn 1.0000 -0.0000 0.0000
vn 0.4728 0.6231 -0.6231
vn 0.4728 -0.6231 -0.6231
vn 0.4728 0.6231 0.6231
vn 0.4728 -0.6231 0.6231
vn -0.4728 0.6231 -0.6231
vn -0.4728 -0.6231 -0.6231
vn -0.4728 0.6231 0.6231
vn -0.4728 -0.6231 0.6231
vn -0.6044 -0.7967 -0.0000
vn 0.0000 -0.7071 -0.7071
vn 0.6044 0.0000 -0.7967
vn -0.6044 -0.0000 0.7967
vn 0.6044 -0.0000 0.7967
vn -0.6044 0.0000 -0.7967
vn 0.0000 0.7071 0.7071
vn 0.6044 0.7967 0.0000
vn 0.0000 -0.7071 0.7071
vn -0.6044 0.7967 0.0000
vn 0.0000 0.7071 -0.7071
vn 0.6044 -0.7967 -0.0000
vn 0.0000 0.0000 -1.0000
usemtl Material.001
s 1
f 1/1/1 2/2/1 3/3/1 4/4/1
f 5/5/2 6/6/2 7/7/2 8/8/2
f 9/9/3 10/10/3 11/11/3 12/12/3
f 13/13/4 14/14/4 15/15/4 16/16/4
f 17/17/5 18/18/5 19/19/5 20/20/5
f 21/21/6 13/22/6 18/23/6
f 2/2/7 22/24/7 17/25/7
f 19/19/8 16/26/8 10/27/8
f 20/28/9 9/29/9 3/30/9
f 23/31/10 7/32/10 14/33/10
f 8/34/11 24/35/11 1/36/11
f 6/6/12 11/37/12 15/38/12
f 4/4/13 12/39/13 5/40/13
f 1/1/14 4/4/14 5/40/14 8/41/14
f 2/2/15 1/1/15 24/42/15 22/24/15
f 18/18/16 17/17/16 22/43/16 21/44/16
f 12/45/17 11/37/17 6/6/17 5/5/17
f 10/10/18 9/9/18 20/20/18 19/19/18
f 23/46/19 24/47/19 8/34/19 7/48/19
f 16/49/20 15/50/20 11/11/20 10/10/20
f 13/13/21 16/16/21 19/19/21 18/18/21
f 4/4/22 3/3/22 9/51/22 12/39/22
f 15/38/23 14/52/23 7/7/23 6/6/23
f 14/53/24 13/22/24 21/21/24 23/46/24
f 3/3/25 2/2/25 17/17/25 20/20/25
f 24/47/26 23/46/26 21/21/26 22/54/26
