# Blender v2.90.1 OBJ File: ''
# www.blender.org
mtllib chipsA.mtl
o Cylinder
v 0.000000 0.000000 -2.397774
v 2.856050 0.000000 -2.082568
v 2.856050 -0.691884 -2.009017
v 0.000000 -0.789568 -2.313838
v 2.856050 -1.119493 -1.509017
v 0.000000 -1.277548 -1.743246
v 2.856050 -1.119493 1.809017
v 0.000000 -1.277548 2.043246
v 2.856050 -0.691884 2.309017
v 0.000000 -0.789568 2.613839
v 2.856050 -0.000000 2.382568
v 0.000000 -0.000000 2.697774
v 2.856050 0.691885 2.309017
v 0.000000 0.789568 2.613838
v 2.856050 1.119492 1.809017
v 0.000000 1.277548 2.043246
v 2.856050 1.119492 -1.509017
v 0.000000 1.277548 -1.743246
v 2.856050 0.691884 -2.009017
v 3.667923 0.111949 -1.509017
v 3.667923 0.069188 -2.009017
v 0.000000 0.789568 -2.313839
v -2.856050 0.691885 2.309017
v -2.856050 1.119493 1.809017
v -3.667923 0.111949 1.809017
v -3.667923 0.069188 2.309017
v 3.667923 -0.000000 2.500000
v 3.667923 -0.069188 2.309017
v 3.998964 -0.000000 2.309017
v 3.998964 -0.000000 2.500000
v -2.856050 -0.000000 2.382568
v -3.667923 -0.000000 2.500000
v -2.856050 -0.691884 2.309017
v -3.667923 -0.069188 2.309017
v -2.856050 -1.119492 1.809017
v -3.667923 -0.111949 1.809017
v -2.856050 0.000000 -2.082568
v -2.856050 -0.691884 -2.009017
v -3.667923 -0.069188 -2.009017
v -3.667923 0.000000 -2.200000
v -2.856050 -1.119493 -1.509017
v -3.667923 -0.111949 -1.509017
v -2.856050 0.691884 -2.009017
v -3.667923 0.069188 -2.009017
v -2.856050 1.119493 -1.509017
v -3.667923 0.111949 -1.509017
v -3.998964 0.000000 -2.200000
v -3.998964 0.000000 -2.009017
v 3.667923 0.111949 1.809017
v 3.667923 0.069188 2.309017
v 3.667923 -0.111949 1.809017
v 3.667923 0.000000 -2.200000
v 3.667923 -0.069188 -2.009017
v 3.667923 -0.111949 -1.509017
v -3.998964 -0.000000 1.809017
v -3.998964 0.000000 -1.509017
v -3.998964 -0.000000 2.309017
v 3.998964 -0.000000 1.809017
v -3.998964 -0.000000 2.500000
v 3.998964 0.000000 -1.509017
v 3.998964 0.000000 -2.200000
v 3.998964 0.000000 -2.009017
vt 0.985200 0.110599
vt 0.967351 0.110599
vt 0.967351 0.064183
vt 0.985200 0.064183
vt 0.563796 0.087526
vt 0.545947 0.087526
vt 0.545947 0.041110
vt 0.563796 0.041110
vt 0.920622 0.086344
vt 0.610525 0.086344
vt 0.610525 0.039928
vt 0.920622 0.039928
vt 0.967351 0.017767
vt 0.985200 0.017767
vt 0.563796 0.086344
vt 0.563796 0.039928
vt 0.920622 0.017767
vt 0.920622 0.064183
vt 0.545947 0.086344
vt 0.545947 0.039928
vt 0.610525 0.017767
vt 0.610525 0.064183
vt 0.985200 0.087526
vt 0.967351 0.087526
vt 0.967351 0.041110
vt 0.985200 0.041110
vt 0.563796 0.110599
vt 0.545947 0.110599
vt 0.545947 0.064183
vt 0.563796 0.064183
vt 0.563796 0.017767
vt 0.920622 0.087526
vt 0.920622 0.041110
vt 0.610525 0.110599
vt 0.545947 0.017767
vt 0.610525 0.087526
vt 0.610525 0.041110
vt 0.920622 0.110599
vt 0.985200 0.086344
vt 0.967351 0.086344
vt 0.967351 0.039928
vt 0.985200 0.039928
vt 0.268172 0.052486
vt 0.017321 0.052487
vt 0.017321 0.011340
vt 0.268172 0.011340
vt 0.262612 0.102241
vt 0.513462 0.102241
vt 0.513462 0.143388
vt 0.262612 0.143388
vt 0.224480 0.046856
vt 0.020959 0.046856
vt 0.020959 0.016868
vt 0.224480 0.016868
vt 0.262612 0.105759
vt 0.513462 0.105759
vt 0.513462 0.146906
vt 0.262612 0.146906
vt 0.277880 0.019195
vt 0.528731 0.019195
vt 0.528731 0.070055
vt 0.277880 0.070055
vt 0.528731 0.111201
vt 0.277880 0.111201
vt 0.262612 0.102241
vt 0.011762 0.102241
vt 0.011761 0.061095
vt 0.262612 0.061095
vt 0.500088 0.199721
vt 0.996637 0.199721
vt 0.996638 0.991434
vt 0.500088 0.991434
vt 0.457370 0.078121
vt 0.415961 0.108549
vt 0.415028 0.038116
vt 0.456793 0.034591
vt 0.268172 0.144493
vt 0.017321 0.144493
vt 0.017321 0.103346
vt 0.268172 0.103346
vt 0.447696 0.083835
vt 0.405495 0.113190
vt 0.406428 0.042758
vt 0.448273 0.040305
vt 0.464305 0.035673
vt 0.464305 0.035673
vt 0.027030 0.019195
vt 0.027030 0.070055
vt 0.011761 0.070055
vt 0.011761 0.060598
vt 0.133623 0.107010
vt 0.092214 0.076581
vt 0.092791 0.033051
vt 0.134556 0.036577
vt 0.469853 0.033051
vt 0.453244 0.081213
vt 0.453820 0.037683
vt 0.469853 0.033051
vt 0.411043 0.110569
vt 0.411976 0.040136
vt 0.519022 0.103346
vt 0.519022 0.052486
vt 0.534290 0.052486
vt 0.534290 0.061943
vt 0.128075 0.109631
vt 0.086666 0.079203
vt 0.087243 0.035673
vt 0.129008 0.039198
vt 0.138541 0.112108
vt 0.137608 0.041675
vt 0.096340 0.082752
vt 0.095764 0.039223
vt 0.079732 0.034591
vt 0.079732 0.034591
vt 0.543999 0.060598
vt 0.543999 0.070055
vt 0.455983 0.083211
vt 0.414574 0.113640
vt 0.413641 0.043207
vt 0.455406 0.039681
vt 0.094953 0.087843
vt 0.078345 0.039681
vt 0.078345 0.039681
vt 0.094377 0.044313
vt 0.137154 0.117199
vt 0.136221 0.046766
vt 0.002053 0.061944
vt 0.002053 0.052487
vt 0.519022 0.144493
vt 0.003538 0.199721
vt 0.003538 0.991434
vt 0.513463 0.102241
vt 0.513463 0.061095
vt 0.027030 0.111201
vt 0.011761 0.105759
vt 0.011761 0.146906
vt 0.428001 0.046856
vt 0.428001 0.016868
vt 0.011761 0.102241
vt 0.011761 0.143388
vt 0.519022 0.011340
vn 0.1023 -0.9788 0.1773
vn -0.1023 0.9788 -0.1773
vn -0.3204 -0.9473 -0.0000
vn 0.1023 0.9788 0.1773
vn -0.2637 -0.9637 0.0412
vn 0.2637 0.9637 0.0412
vn -0.1023 -0.9788 0.1773
vn 0.3204 0.9473 0.0000
vn -0.1023 0.9788 0.1773
vn 0.1023 -0.9788 -0.1773
vn 0.2637 0.9637 -0.0412
vn -0.2637 0.9637 0.0412
vn 0.2637 -0.9637 -0.0412
vn 0.1023 0.9788 -0.1773
vn -0.3204 0.9473 0.0000
vn 0.3204 -0.9473 -0.0000
vn -0.1023 -0.9788 -0.1773
vn -0.2637 0.9637 -0.0412
vn 0.2637 -0.9637 0.0412
vn -0.2637 -0.9637 -0.0412
vn -0.0000 -0.0000 -1.0000
vn 0.0859 -0.0000 -0.9963
vn 0.3174 -0.5613 -0.7643
vn 0.0000 -0.4620 -0.8869
vn 0.4182 -0.8713 -0.2569
vn -0.0000 -0.9337 -0.3580
vn 0.4182 -0.8713 0.2569
vn -0.0000 -0.9337 0.3580
vn 0.3174 -0.5613 0.7643
vn -0.0000 -0.4620 0.8869
vn 0.0859 -0.0000 0.9963
vn -0.0000 0.0000 1.0000
vn 0.3174 0.5613 0.7643
vn 0.0000 0.4620 0.8869
vn 0.4182 0.8713 0.2569
vn 0.0000 0.9337 0.3580
vn 0.4182 0.8713 -0.2569
vn 0.0000 0.9337 -0.3580
vn 0.3174 0.5613 -0.7643
vn 0.7348 0.6583 -0.1631
vn 0.3860 0.5498 -0.7408
vn 0.0000 0.4620 -0.8869
vn -0.3174 0.5613 0.7643
vn -0.4182 0.8713 0.2569
vn -0.7348 0.6583 0.1631
vn -0.3860 0.5498 0.7408
vn -0.0859 -0.0000 0.9963
vn -0.0609 -0.0000 0.9981
vn -0.3174 -0.5613 0.7643
vn -0.3860 -0.5498 0.7408
vn -0.4182 -0.8713 0.2569
vn -0.7348 -0.6583 0.1631
vn -0.0859 -0.0000 -0.9963
vn -0.3174 -0.5613 -0.7643
vn -0.3860 -0.5498 -0.7408
vn -0.0609 0.0000 -0.9981
vn -0.4182 -0.8713 -0.2569
vn -0.7348 -0.6583 -0.1631
vn -0.3174 0.5613 -0.7643
vn -0.3860 0.5498 -0.7408
vn -0.4182 0.8713 -0.2569
vn -0.7348 0.6583 -0.1631
vn 0.7348 0.6583 0.1631
vn 0.3860 0.5498 0.7408
vn 0.0609 -0.0000 0.9981
vn 0.3860 -0.5498 0.7408
vn 0.7348 -0.6583 0.1631
vn 0.0609 0.0000 -0.9981
vn 0.3860 -0.5498 -0.7408
vn 0.7348 -0.6583 -0.1631
usemtl None
s off
f 27/1/1 28/2/1 29/3/1 30/4/1
f 44/5/2 40/6/2 47/7/2 48/8/2
f 42/9/3 36/10/3 55/11/3 56/12/3
f 50/13/4 27/14/4 30/4/4 29/3/4
f 36/10/5 34/15/5 57/16/5 55/11/5
f 49/17/6 50/13/6 29/3/6 58/18/6
f 34/15/7 32/19/7 59/20/7 57/16/7
f 20/21/8 49/17/8 58/18/8 60/22/8
f 32/23/9 26/24/9 57/25/9 59/26/9
f 53/27/10 52/28/10 61/29/10 62/30/10
f 21/31/11 20/21/11 60/22/11 62/30/11
f 26/24/12 25/32/12 55/33/12 57/25/12
f 54/34/13 53/27/13 62/30/13 60/22/13
f 52/35/14 21/31/14 62/30/14 61/29/14
f 25/32/15 46/36/15 56/37/15 55/33/15
f 51/38/16 54/34/16 60/22/16 58/18/16
f 40/39/17 39/40/17 48/41/17 47/42/17
f 46/36/18 44/5/18 48/8/18 56/37/18
f 28/2/19 51/38/19 58/18/19 29/3/19
f 39/40/20 42/9/20 56/12/20 48/41/20
s 1
f 1/43/21 2/44/22 3/45/23 4/46/24
f 4/47/24 3/48/23 5/49/25 6/50/26
f 6/51/26 5/52/25 7/53/27 8/54/28
f 8/55/28 7/56/27 9/57/29 10/58/30
f 10/59/30 9/60/29 11/61/31 12/62/32
f 12/62/32 11/61/31 13/63/33 14/64/34
f 14/65/34 13/66/33 15/67/35 16/68/36
f 16/69/36 15/70/35 17/71/37 18/72/38
f 19/73/39 17/74/37 20/75/40 21/76/41
f 18/77/38 17/78/37 19/79/39 22/80/42
f 22/80/42 19/79/39 2/44/22 1/43/21
f 23/81/43 24/82/44 25/83/45 26/84/46
f 31/85/47 23/81/43 26/84/46 32/86/48
f 33/87/49 31/88/47 32/89/48 34/90/50
f 35/91/51 33/92/49 34/93/50 36/94/52
f 37/95/53 38/96/54 39/97/55 40/98/56
f 41/99/57 35/91/51 36/94/52 42/100/58
f 38/96/54 41/99/57 42/100/58 39/97/55
f 43/101/59 37/102/53 40/103/56 44/104/60
f 45/105/61 43/106/59 44/107/60 46/108/62
f 24/82/44 45/105/61 46/108/62 25/83/45
f 17/74/37 15/109/35 49/110/63 20/75/40
f 15/109/35 13/111/33 50/112/64 49/110/63
f 13/111/33 11/113/31 27/114/65 50/112/64
f 11/61/31 9/60/29 28/115/66 27/116/65
f 9/117/29 7/118/27 51/119/67 28/120/66
f 3/121/23 2/122/22 52/123/68 53/124/69
f 7/118/27 5/125/25 54/126/70 51/119/67
f 5/125/25 3/121/23 53/124/69 54/126/70
f 2/44/22 19/79/39 21/127/41 52/128/68
f 43/101/59 22/80/42 1/43/21 37/102/53
f 45/129/61 18/77/38 22/80/42 43/101/59
f 24/130/44 16/69/36 18/72/38 45/131/61
f 23/132/43 14/65/34 16/68/36 24/133/44
f 31/88/47 12/62/32 14/64/34 23/134/43
f 33/87/49 10/59/30 12/62/32 31/88/47
f 35/135/51 8/55/28 10/58/30 33/136/49
f 41/137/57 6/51/26 8/54/28 35/138/51
f 38/139/54 4/47/24 6/50/26 41/140/57
f 37/102/53 1/43/21 4/46/24 38/141/54
