# Blender v2.90.1 OBJ File: 'cookie.blend'
# www.blender.org
mtllib cookie.mtl
o Cylinder
v -3.000000 0.000000 -2.200000
v 3.000000 -0.000000 -2.200000
v -3.000000 -0.587785 -2.009017
v 3.000000 -0.587785 -2.009017
v -3.000000 -0.951056 -1.509017
v 3.000000 -0.951057 -1.509017
v -3.000000 -0.951056 1.809017
v 3.000000 -0.951057 1.809017
v -3.000000 -0.587785 2.309017
v 3.000000 -0.587785 2.309017
v -3.000000 0.000000 2.500000
v 3.000000 0.000000 2.500000
v -3.000000 0.587785 2.309017
v 3.000000 0.587785 2.309017
v -3.000000 0.951057 1.809017
v 3.000000 0.951056 1.809017
v -3.000000 0.951057 -1.509017
v 3.000000 0.951056 -1.509017
v -3.000000 0.587785 -2.009017
v 3.000000 0.587785 -2.009017
v -3.182599 0.000000 -2.200000
v -3.182599 -0.058779 -2.009017
v -3.182599 -0.095106 -1.509017
v -3.182599 -0.095106 1.809017
v -3.182599 -0.058779 2.309017
v -3.182599 0.000000 2.500000
v -3.182599 0.058779 2.309017
v -3.182599 0.095106 1.809017
v -3.182599 0.095106 -1.509017
v -3.182599 0.058778 -2.009017
v 3.182599 -0.058779 -2.009017
v 3.182599 -0.000000 -2.200000
v 3.182599 -0.095106 -1.509017
v 3.182599 -0.095106 1.809017
v 3.182599 -0.058779 2.309017
v 3.182599 0.000000 2.500000
v 3.182599 0.058779 2.309017
v 3.182599 0.095106 1.809017
v 3.182599 0.095106 -1.509017
v 3.182599 0.058779 -2.009017
v -3.687238 0.000000 -2.200000
v -3.687238 -0.000000 -2.009017
v -3.687238 0.000000 -1.509017
v -3.687238 0.000000 1.809017
v -3.687238 0.000000 2.309017
v -3.687238 0.000000 2.500000
v 3.687238 -0.000000 -2.009017
v 3.687238 -0.000000 -2.200000
v 3.687238 -0.000000 -1.509017
v 3.687238 -0.000000 1.809017
v 3.687238 -0.000000 2.309017
v 3.687238 0.000000 2.500000
vt 0.519022 0.052486
vt 0.017321 0.052487
vt 0.017321 0.011340
vt 0.519022 0.011340
vt 0.011761 0.102241
vt 0.513462 0.102241
vt 0.513462 0.143388
vt 0.011761 0.143388
vt 0.996638 0.993698
vt 0.003538 0.993698
vt 0.003538 0.201986
vt 0.996638 0.201986
vt 0.011761 0.105759
vt 0.513462 0.105759
vt 0.513462 0.146906
vt 0.011761 0.146906
vt 0.027030 0.019195
vt 0.528731 0.019195
vt 0.528731 0.070055
vt 0.027030 0.070055
vt 0.528731 0.111201
vt 0.027030 0.111201
vt 0.513463 0.102241
vt 0.011762 0.102241
vt 0.011761 0.061095
vt 0.513463 0.061095
vt 0.003538 0.199721
vt 0.996637 0.199721
vt 0.996638 0.991434
vt 0.003538 0.991434
vt 0.457370 0.078121
vt 0.415961 0.108549
vt 0.415028 0.038116
vt 0.456793 0.034591
vt 0.519022 0.144493
vt 0.017321 0.144493
vt 0.017321 0.103346
vt 0.519022 0.103346
vt 0.447696 0.083835
vt 0.405495 0.113190
vt 0.406428 0.042758
vt 0.448273 0.040305
vt 0.985200 0.110599
vt 0.967351 0.110599
vt 0.967351 0.064183
vt 0.985200 0.064183
vt 0.464305 0.035673
vt 0.464305 0.035673
vt 0.011761 0.070055
vt 0.011761 0.060598
vt 0.133623 0.107010
vt 0.092214 0.076581
vt 0.092791 0.033051
vt 0.134556 0.036577
vt 0.469853 0.033051
vt 0.453244 0.081213
vt 0.453820 0.037683
vt 0.469853 0.033051
vt 0.411043 0.110569
vt 0.411976 0.040136
vt 0.534290 0.052486
vt 0.534290 0.061943
vt 0.128075 0.109631
vt 0.086666 0.079203
vt 0.087243 0.035673
vt 0.129008 0.039198
vt 0.563796 0.087526
vt 0.545947 0.087526
vt 0.545947 0.041110
vt 0.563796 0.041110
vt 0.138541 0.112108
vt 0.137608 0.041675
vt 0.096340 0.082752
vt 0.095764 0.039223
vt 0.079732 0.034591
vt 0.079732 0.034591
vt 0.543999 0.060598
vt 0.543999 0.070055
vt 0.455983 0.083211
vt 0.414574 0.113640
vt 0.413641 0.043207
vt 0.455406 0.039681
vt 0.094953 0.087843
vt 0.078345 0.039681
vt 0.078345 0.039681
vt 0.094377 0.044313
vt 0.137154 0.117199
vt 0.136221 0.046766
vt 0.002053 0.061944
vt 0.002053 0.052487
vt 0.920622 0.086344
vt 0.610525 0.086344
vt 0.610525 0.039928
vt 0.920622 0.039928
vt 0.967351 0.017767
vt 0.985200 0.017767
vt 0.563796 0.086344
vt 0.563796 0.039928
vt 0.920622 0.017767
vt 0.920622 0.064183
vt 0.545947 0.086344
vt 0.545947 0.039928
vt 0.610525 0.017767
vt 0.610525 0.064183
vt 0.985200 0.087526
vt 0.967351 0.087526
vt 0.967351 0.041110
vt 0.985200 0.041110
vt 0.563796 0.110599
vt 0.545947 0.110599
vt 0.545947 0.064183
vt 0.563796 0.064183
vt 0.563796 0.017767
vt 0.920622 0.087526
vt 0.920622 0.041110
vt 0.610525 0.110599
vt 0.545947 0.017767
vt 0.610525 0.087526
vt 0.610525 0.041110
vt 0.920622 0.110599
vt 0.985200 0.086344
vt 0.967351 0.086344
vt 0.967351 0.039928
vt 0.985200 0.039928
vn -0.3393 0.0000 -0.9406
vn 0.3393 0.0000 -0.9406
vn 0.5194 -0.5511 -0.6530
vn -0.5194 -0.5511 -0.6530
vn 0.5680 -0.7885 -0.2358
vn -0.5680 -0.7885 -0.2358
vn 0.5680 -0.7885 0.2358
vn -0.5680 -0.7885 0.2358
vn 0.5194 -0.5511 0.6530
vn -0.5194 -0.5511 0.6530
vn 0.3393 0.0000 0.9406
vn -0.3393 0.0000 0.9406
vn 0.5194 0.5511 0.6530
vn -0.5194 0.5511 0.6530
vn 0.5680 0.7885 0.2358
vn -0.5680 0.7885 0.2358
vn 0.5680 0.7885 -0.2358
vn -0.5680 0.7885 -0.2358
vn 0.5194 0.5511 -0.6530
vn 0.6887 0.7238 -0.0420
vn 0.5330 0.7830 -0.3206
vn -0.5194 0.5511 -0.6530
vn -0.6887 0.7238 0.0420
vn -0.5330 0.7830 0.3206
vn 0.6101 0.0000 0.7923
vn 0.5330 -0.7830 0.3206
vn 0.7425 0.0000 0.6698
vn 0.3540 0.0000 0.9352
vn -0.6101 0.0000 0.7923
vn -0.5330 -0.7830 0.3206
vn -0.6887 -0.7238 0.0420
vn -0.5330 -0.7830 -0.3206
vn -0.6101 0.0000 -0.7923
vn -0.6887 -0.7238 -0.0420
vn -0.5330 0.7830 -0.3206
vn -0.6887 0.7238 -0.0420
vn -0.3540 0.0000 -0.9352
vn -0.7425 0.0000 -0.6698
vn 0.6887 0.7238 0.0420
vn 0.5330 0.7830 0.3206
vn 0.6887 -0.7238 0.0420
vn 0.6101 0.0000 -0.7923
vn 0.5330 -0.7830 -0.3206
vn 0.6887 -0.7238 -0.0420
vn -0.9943 0.0000 0.1062
vn -0.9943 0.0000 -0.1062
vn -0.7425 0.0000 0.6698
vn 0.9943 0.0000 0.1062
vn -0.3540 0.0000 0.9352
vn 0.9943 0.0000 -0.1062
vn 0.3540 0.0000 -0.9352
vn 0.7425 0.0000 -0.6698
usemtl None
s 1
f 1/1/1 2/2/2 4/3/3 3/4/4
f 3/5/4 4/6/3 6/7/5 5/8/6
f 5/9/6 6/10/5 8/11/7 7/12/8
f 7/13/8 8/14/7 10/15/9 9/16/10
f 9/17/10 10/18/9 12/19/11 11/20/12
f 11/20/12 12/19/11 14/21/13 13/22/14
f 13/23/14 14/24/13 16/25/15 15/26/16
f 15/27/16 16/28/15 18/29/17 17/30/18
f 20/31/19 18/32/17 39/33/20 40/34/21
f 17/35/18 18/36/17 20/37/19 19/38/22
f 19/38/22 20/37/19 2/2/2 1/1/1
f 13/39/14 15/40/16 28/41/23 27/42/24
f 36/43/25 35/44/26 51/45/27 52/46/28
f 11/47/12 13/39/14 27/42/24 26/48/29
f 9/17/10 11/20/12 26/49/29 25/50/30
f 7/51/8 9/52/10 25/53/30 24/54/31
f 1/55/1 3/56/4 22/57/32 21/58/33
f 5/59/6 7/51/8 24/54/31 23/60/34
f 3/56/4 5/59/6 23/60/34 22/57/32
f 19/38/22 1/1/1 21/61/33 30/62/35
f 17/63/18 19/64/22 30/65/35 29/66/36
f 15/40/16 17/63/18 29/66/36 28/41/23
f 30/67/35 21/68/33 41/69/37 42/70/38
f 18/32/17 16/71/15 38/72/39 39/33/20
f 16/71/15 14/73/13 37/74/40 38/72/39
f 14/73/13 12/75/11 36/76/25 37/74/40
f 12/19/11 10/18/9 35/77/26 36/78/25
f 10/79/9 8/80/7 34/81/41 35/82/26
f 4/83/3 2/84/2 32/85/42 31/86/43
f 8/80/7 6/87/5 33/88/44 34/81/41
f 6/87/5 4/83/3 31/86/43 33/88/44
f 2/2/2 20/37/19 40/89/21 32/90/42
f 23/91/34 24/92/31 44/93/45 43/94/46
f 37/95/40 36/96/25 52/46/28 51/45/27
f 24/92/31 25/97/30 45/98/47 44/93/45
f 38/99/39 37/95/40 51/45/27 50/100/48
f 25/97/30 26/101/29 46/102/49 45/98/47
f 39/103/20 38/99/39 50/100/48 49/104/50
f 26/105/29 27/106/24 45/107/47 46/108/49
f 31/109/43 32/110/42 48/111/51 47/112/52
f 40/113/21 39/103/20 49/104/50 47/112/52
f 27/106/24 28/114/23 44/115/45 45/107/47
f 33/116/44 31/109/43 47/112/52 49/104/50
f 32/117/42 40/113/21 47/112/52 48/111/51
f 28/114/23 29/118/36 43/119/46 44/115/45
f 34/120/41 33/116/44 49/104/50 50/100/48
f 21/121/33 22/122/32 42/123/38 41/124/37
f 29/118/36 30/67/35 42/70/38 43/119/46
f 35/44/26 34/120/41 50/100/48 51/45/27
f 22/122/32 23/91/34 43/94/46 42/123/38
