# Blender v2.90.1 OBJ File: 'eggs.blend'
# www.blender.org
mtllib eggs.mtl
o Cube
v 0.717316 0.500000 -0.897895
v 1.000000 -0.500000 -1.000000
v 0.717316 0.500000 0.897895
v 1.000000 -0.500000 1.000000
v -0.717316 0.500000 -0.897895
v -1.000000 -0.500000 -1.000000
v -0.717316 0.500000 0.897895
v -1.000000 -0.500000 1.000000
v -1.000000 -0.500000 0.000000
v 0.717316 0.500000 0.000000
v -0.717316 0.500000 0.000000
v 1.000000 -0.500000 0.000000
v 1.000000 0.000000 -1.000000
v -1.000000 0.000000 1.000000
v 1.000000 0.000000 1.000000
v -1.000000 0.000000 -1.000000
v 1.000000 0.000000 0.000000
v -1.000000 0.000000 0.000000
v 1.000000 -0.500000 -2.000000
v -1.000000 -0.500000 -2.000000
v 1.000000 0.000000 -2.000000
v -1.000000 0.000000 2.000000
v -0.717316 0.500000 1.795789
v 1.000000 0.000000 2.000000
v 1.000000 -0.500000 2.000000
v -1.000000 0.000000 -2.000000
v 0.717316 0.500000 1.795789
v -1.000000 -0.500000 2.000000
v -0.717316 0.500000 -1.795789
v 0.717316 0.500000 -1.795789
v 1.000000 -0.500000 -3.000000
v -1.000000 -0.500000 -3.000000
v 1.000000 0.000000 -3.000000
v -1.000000 0.000000 3.000000
v -0.717316 0.500000 2.693684
v 1.000000 0.000000 3.000000
v 1.000000 -0.500000 3.000000
v -1.000000 0.000000 -3.000000
v 0.717316 0.500000 2.693684
v -1.000000 -0.500000 3.000000
v -0.717316 0.500000 -2.693684
v 0.717316 0.500000 -2.693684
v 0.000000 -0.500000 -1.000000
v 0.000000 0.500000 0.897895
v 0.000000 -0.500000 1.000000
v 0.000000 0.500000 -0.897895
v 0.000000 -0.500000 0.000000
v 0.000000 0.500000 0.000000
v 0.000000 -0.500000 -2.000000
v 0.000000 0.500000 1.795789
v 0.000000 -0.500000 2.000000
v 0.000000 0.500000 -1.795789
v 0.000000 -0.500000 -3.000000
v 0.000000 0.500000 2.693684
v 0.000000 -0.500000 3.000000
v 0.000000 0.500000 -2.693684
v 0.000000 0.000000 -3.000000
v 0.000000 0.000000 3.000000
v 0.200000 -1.079707 0.800000
v 0.800000 -1.079707 0.800000
v 0.800000 -1.079707 0.200000
v 0.200000 -1.079707 2.200000
v 0.800000 -1.079707 2.200000
v 0.800000 -1.079707 -1.800000
v 0.800000 -1.079707 -1.200000
v 0.200000 -1.079707 2.800000
v 0.800000 -1.079707 2.800000
v 0.200000 -1.079707 -1.200000
v 0.200000 -1.079707 0.200000
v 0.200000 -1.079707 -1.800000
v 0.200000 -1.079707 1.200000
v 0.800000 -1.079707 1.200000
v 0.800000 -1.079707 -0.200000
v 0.800000 -1.079707 -0.800000
v 0.200000 -1.079707 1.800000
v 0.800000 -1.079707 1.800000
v 0.800000 -1.079707 -2.200000
v 0.800000 -1.079707 -2.800000
v 0.200000 -1.079707 -0.800000
v 0.200000 -1.079707 -0.200000
v 0.200000 -1.079707 -2.200000
v 0.200000 -1.079707 -2.800000
v -0.200000 -1.079707 -0.800000
v -0.800000 -1.079707 -0.800000
v -0.800000 -1.079707 -0.200000
v -0.200000 -1.079707 -0.200000
v -0.200000 -1.079707 -2.200000
v -0.800000 -1.079707 -2.200000
v -0.800000 -1.079707 1.200000
v -0.800000 -1.079707 1.800000
v -0.200000 -1.079707 -2.800000
v -0.800000 -1.079707 -2.800000
v -0.200000 -1.079707 1.200000
v -0.200000 -1.079707 1.800000
v -0.800000 -1.079707 0.200000
v -0.800000 -1.079707 0.800000
v -0.200000 -1.079707 -1.200000
v -0.800000 -1.079707 -1.200000
v -0.200000 -1.079707 0.200000
v -0.200000 -1.079707 -1.800000
v -0.800000 -1.079707 -1.800000
v -0.800000 -1.079707 2.200000
v -0.800000 -1.079707 2.800000
v -0.200000 -1.079707 0.800000
v -0.200000 -1.079707 2.200000
v -0.200000 -1.079707 2.800000
v 1.000000 -0.150000 -1.300000
v 1.000000 -0.350000 -1.300000
v 1.000000 -0.150000 -1.700000
v 1.000000 -0.350000 -1.700000
v 1.000000 -0.150000 1.300000
v 1.000000 -0.350000 1.300000
v 1.000000 -0.150000 1.700000
v 1.000000 -0.350000 1.700000
v 1.067493 -0.150000 -1.300000
v 1.067493 -0.350000 -1.300000
v 1.067493 -0.150000 -1.700000
v 1.067493 -0.350000 -1.700000
v 1.067493 -0.150000 1.300000
v 1.067493 -0.350000 1.300000
v 1.067493 -0.150000 1.700000
v 1.067493 -0.350000 1.700000
vt 0.275391 0.786975
vt 0.275391 0.974123
vt 0.041131 0.974123
vt 0.041131 0.786975
vt 0.951031 0.351562
vt 0.900205 0.346353
vt 0.900205 0.295336
vt 0.951031 0.305754
vt 0.887169 0.397369
vt 0.937929 0.397369
vt 0.937929 0.443177
vt 0.887169 0.448386
vt 0.811304 0.491102
vt 0.862321 0.491102
vt 0.852118 0.550419
vt 0.821508 0.550419
vt 0.900205 0.397369
vt 0.951031 0.397369
vt 0.951031 0.443177
vt 0.900205 0.448386
vt 0.937929 0.351562
vt 0.887169 0.346353
vt 0.887169 0.295336
vt 0.937929 0.305754
vt 0.945994 0.124749
vt 0.894977 0.124749
vt 0.905180 0.064964
vt 0.935790 0.064964
vt 0.509652 0.786975
vt 0.509652 0.974123
vt 0.836160 0.346353
vt 0.836160 0.397369
vt 0.849192 0.346353
vt 0.849192 0.397369
vt 0.689089 0.283069
vt 0.689089 0.538322
vt 0.369577 0.538322
vt 0.369577 0.283069
vt 0.849192 0.448386
vt 0.836160 0.448386
vt 0.937929 0.488984
vt 0.887169 0.499402
vt 0.050065 0.538322
vt 0.050065 0.283069
vt 0.900205 0.244319
vt 0.951031 0.259947
vt 0.849192 0.295336
vt 0.849192 0.244319
vt 0.937929 0.534792
vt 0.887169 0.550419
vt 0.509652 0.599827
vt 0.743912 0.599827
vt 0.743912 0.786975
vt 0.836160 0.295336
vt 0.849192 0.499402
vt 0.864496 0.463691
vt 0.864496 0.484097
vt 0.836160 0.499402
vt 0.776843 0.489199
vt 0.776843 0.458589
vt 0.811304 0.372000
vt 0.862321 0.372000
vt 0.852118 0.431317
vt 0.821508 0.431317
vt 0.951031 0.488984
vt 0.900205 0.499402
vt 0.884901 0.331048
vt 0.884901 0.310641
vt 0.873839 0.226005
vt 0.873839 0.275574
vt 0.837244 0.275574
vt 0.822822 0.226005
vt 0.900014 0.194750
vt 0.900014 0.244319
vt 0.863419 0.244319
vt 0.848998 0.194750
vt 0.900014 0.143904
vt 0.848998 0.143904
vt 0.873839 0.175159
vt 0.822822 0.175159
vt 0.887169 0.244319
vt 0.937929 0.259947
vt 0.836160 0.244319
vt 0.862321 0.490634
vt 0.913338 0.490634
vt 0.903134 0.550419
vt 0.872524 0.550419
vt 0.900205 0.550419
vt 0.849192 0.550419
vt 0.951031 0.534792
vt 0.776843 0.336149
vt 0.776843 0.305539
vt 0.978173 0.599827
vt 0.978173 0.786975
vt 0.836160 0.550419
vt 0.743912 0.974123
vt 0.978173 0.974123
vt 0.843961 0.184534
vt 0.792944 0.184534
vt 0.803147 0.124749
vt 0.833757 0.124749
vt 0.843961 0.124749
vt 0.792944 0.124749
vt 0.803147 0.064964
vt 0.833757 0.064964
vt 0.924856 0.175159
vt 0.924856 0.226005
vt 0.951031 0.143904
vt 0.951031 0.194750
vt 0.936610 0.244319
vt 0.910434 0.275574
vt 0.843961 0.244319
vt 0.792944 0.244319
vt 0.803147 0.184534
vt 0.833757 0.184534
vt 0.789916 0.540216
vt 0.789916 0.509606
vt 0.369577 0.027815
vt 0.050065 0.027815
vt 0.689089 0.027815
vt 0.275391 0.599827
vt 0.894977 0.244319
vt 0.843961 0.244319
vt 0.854164 0.184534
vt 0.884774 0.184534
vt 0.815353 0.216298
vt 0.866369 0.216298
vt 0.856166 0.275574
vt 0.825556 0.275574
vt 0.041131 0.599827
vt 0.787778 0.034354
vt 0.818388 0.034354
vt 0.818388 0.064964
vt 0.787778 0.064964
vt 0.813351 0.064964
vt 0.782741 0.064964
vt 0.782741 0.034354
vt 0.813351 0.034354
vt 0.813351 0.034354
vt 0.843961 0.034354
vt 0.843961 0.064964
vt 0.813351 0.064964
vt 0.789916 0.336149
vt 0.789916 0.305539
vt 0.848998 0.184534
vt 0.797981 0.184534
vt 0.808185 0.124749
vt 0.838794 0.124749
vt 0.884042 0.115373
vt 0.914652 0.115373
vt 0.894977 0.184534
vt 0.843961 0.184534
vt 0.854164 0.124749
vt 0.884774 0.124749
vt 0.811304 0.312683
vt 0.862321 0.312683
vt 0.852118 0.372000
vt 0.821508 0.372000
vt 0.913338 0.371063
vt 0.862321 0.371063
vt 0.872524 0.311278
vt 0.903134 0.311278
vt 0.789916 0.438183
vt 0.789916 0.407573
vt 0.945994 0.184534
vt 0.894977 0.184534
vt 0.905180 0.124749
vt 0.935790 0.124749
vt 0.822822 0.056056
vt 0.873839 0.056056
vt 0.863636 0.115373
vt 0.833026 0.115373
vt 0.913338 0.280668
vt 0.913338 0.311278
vt 0.882728 0.311278
vt 0.882728 0.280668
vt 0.905180 0.064964
vt 0.874570 0.064964
vt 0.874570 0.034354
vt 0.905180 0.034354
vt 0.843229 0.025446
vt 0.873839 0.025446
vt 0.873839 0.056056
vt 0.843229 0.056056
vt 0.789916 0.387166
vt 0.789916 0.356556
vt 0.811304 0.431317
vt 0.862321 0.431317
vt 0.852118 0.490634
vt 0.821508 0.490634
vt 0.924856 0.115373
vt 0.873839 0.115373
vt 0.884042 0.055588
vt 0.914652 0.055588
vt 0.862321 0.430849
vt 0.913338 0.430849
vt 0.903134 0.490634
vt 0.872524 0.490634
vt 0.859201 0.084119
vt 0.889811 0.084119
vt 0.866369 0.036901
vt 0.917386 0.036901
vt 0.907183 0.096218
vt 0.876573 0.096218
vt 0.862321 0.371063
vt 0.913338 0.371063
vt 0.903134 0.430849
vt 0.872524 0.430849
vt 0.789916 0.285133
vt 0.789916 0.254523
vt 0.789916 0.489199
vt 0.789916 0.458589
vt 0.821508 0.280668
vt 0.852118 0.280668
vt 0.852118 0.311278
vt 0.821508 0.311278
vt 0.935790 0.064964
vt 0.905180 0.064964
vt 0.905180 0.034354
vt 0.935790 0.034354
vt 0.882728 0.280668
vt 0.882728 0.311278
vt 0.852118 0.311278
vt 0.852118 0.280668
vt 0.815353 0.156512
vt 0.866369 0.156512
vt 0.856166 0.215789
vt 0.825556 0.215789
vt 0.848998 0.124749
vt 0.797981 0.124749
vt 0.808185 0.064964
vt 0.838794 0.064964
vt 0.776843 0.540216
vt 0.776843 0.509606
vt 0.815353 0.097236
vt 0.866369 0.097236
vt 0.856166 0.156512
vt 0.825556 0.156512
vt 0.917386 0.215789
vt 0.866369 0.215789
vt 0.876573 0.156003
vt 0.907183 0.156003
vt 0.917386 0.275574
vt 0.866369 0.275574
vt 0.876573 0.215789
vt 0.907183 0.215789
vt 0.910218 0.084119
vt 0.940828 0.084119
vt 0.951031 0.084119
vt 0.900014 0.084119
vt 0.910218 0.024843
vt 0.940828 0.024843
vt 0.776843 0.438183
vt 0.776843 0.407573
vt 0.843961 0.034354
vt 0.874570 0.034354
vt 0.874570 0.064964
vt 0.843961 0.064964
vt 0.848998 0.064964
vt 0.818388 0.064964
vt 0.818388 0.034354
vt 0.848998 0.034354
vt 0.790898 0.311278
vt 0.790898 0.280668
vt 0.821508 0.280668
vt 0.821508 0.311278
vt 0.776843 0.387166
vt 0.776843 0.356556
vt 0.866369 0.096218
vt 0.917386 0.096218
vt 0.907183 0.156003
vt 0.876573 0.156003
vt 0.833026 0.115373
vt 0.863636 0.115373
vt 0.945994 0.244319
vt 0.894977 0.244319
vt 0.905180 0.184534
vt 0.935790 0.184534
vt 0.848998 0.244319
vt 0.797981 0.244319
vt 0.808185 0.184534
vt 0.838794 0.184534
vt 0.848998 0.024843
vt 0.900014 0.024843
vt 0.889811 0.084119
vt 0.859201 0.084119
vt 0.776843 0.285133
vt 0.776843 0.254523
vt 0.894977 0.124749
vt 0.843961 0.124749
vt 0.854164 0.064964
vt 0.884774 0.064964
vt 0.815353 0.036942
vt 0.866369 0.036942
vt 0.856166 0.096218
vt 0.825556 0.096218
vt 0.937513 0.203574
vt 0.937513 0.223913
vt 0.934070 0.223913
vt 0.934070 0.203574
vt 0.864496 0.331048
vt 0.864496 0.310641
vt 0.937513 0.244319
vt 0.934070 0.244319
vt 0.884901 0.484097
vt 0.884901 0.463691
vt 0.924856 0.055588
vt 0.904451 0.055588
vt 0.904451 0.035181
vt 0.924856 0.035181
vt 0.917388 0.035650
vt 0.937793 0.035650
vt 0.937793 0.056056
vt 0.917388 0.056056
vt 0.930627 0.223913
vt 0.930627 0.244319
vt 0.927184 0.244319
vt 0.927184 0.223913
vt 0.934070 0.223913
vt 0.934070 0.244319
vt 0.930627 0.244319
vt 0.930627 0.223913
vt 0.927183 0.223913
vt 0.927183 0.203574
vt 0.930627 0.203574
vt 0.930627 0.223913
vt 0.930627 0.223913
vt 0.930627 0.203574
vt 0.934070 0.203574
vt 0.934070 0.223913
vt 0.792944 0.223913
vt 0.792944 0.244319
vt 0.789501 0.244319
vt 0.789501 0.223913
vt 0.792944 0.203574
vt 0.792944 0.223913
vt 0.789501 0.223913
vt 0.789501 0.203574
vn 0.0000 1.0000 0.0000
vn 0.8705 0.4922 0.0000
vn -0.8705 0.4922 0.0000
vn -0.9453 -0.3261 0.0000
vn 0.0000 -0.3261 0.9453
vn -1.0000 0.0000 0.0000
vn 1.0000 0.0000 0.0000
vn 0.0000 0.5224 0.8527
vn 0.0000 0.5224 -0.8527
vn 0.0000 0.0000 -1.0000
vn 0.0000 0.0000 1.0000
vn 0.0000 -0.3261 -0.9453
vn 0.9453 -0.3261 0.0000
vn 0.0000 -1.0000 0.0000
usemtl Material
s off
f 48/1/1 11/2/1 7/3/1 44/4/1
f 1/5/2 13/6/2 21/7/2 30/8/2
f 18/9/3 11/10/3 5/11/3 16/12/3
f 55/13/4 51/14/4 62/15/4 66/16/4
f 17/17/2 10/18/2 3/19/2 15/20/2
f 7/21/3 14/22/3 22/23/3 23/24/3
f 13/6/2 1/5/2 10/18/2 17/17/2
f 25/25/5 51/26/5 75/27/5 76/28/5
f 14/22/3 7/21/3 11/10/3 18/9/3
f 46/29/1 5/30/1 11/2/1 48/1/1
f 8/31/6 14/22/6 18/9/6 9/32/6
f 2/33/7 13/6/7 17/17/7 12/34/7
f 44/35/1 7/36/1 23/37/1 50/38/1
f 12/34/7 17/17/7 15/20/7 4/39/7
f 9/32/6 18/9/6 16/12/6 6/40/6
f 16/12/3 5/11/3 29/41/3 26/42/3
f 50/38/1 23/37/1 35/43/1 54/44/1
f 30/8/2 21/7/2 33/45/2 42/46/2
f 21/7/7 19/47/7 31/48/7 33/45/7
f 26/42/3 29/41/3 41/49/3 38/50/3
f 46/29/1 1/51/1 30/52/1 52/53/1
f 14/22/6 8/31/6 28/54/6 22/23/6
f 25/55/7 4/39/7 112/56/7 114/57/7
f 6/40/4 20/58/4 101/59/4 98/60/4
f 47/61/4 43/62/4 79/63/4 80/64/4
f 15/20/2 3/19/2 27/65/2 24/66/2
f 6/40/6 16/12/6 26/42/6 20/58/6
f 21/7/7 13/6/7 107/67/7 109/68/7
f 58/69/8 54/70/8 35/71/8 34/72/8
f 57/73/9 56/74/9 42/75/9 33/76/9
f 53/77/10 57/73/10 33/76/10 31/78/10
f 55/79/11 58/69/11 34/72/11 40/80/11
f 23/24/3 22/23/3 34/81/3 35/82/3
f 22/23/6 28/54/6 40/83/6 34/81/6
f 47/84/12 12/85/12 61/86/12 69/87/12
f 25/55/7 24/66/7 36/88/7 37/89/7
f 24/66/2 27/65/2 39/90/2 36/88/2
f 28/54/4 8/31/4 89/91/4 90/92/4
f 52/53/1 30/52/1 42/93/1 56/94/1
f 20/58/6 26/42/6 38/50/6 32/95/6
f 29/96/1 52/53/1 56/94/1 41/97/1
f 12/98/5 47/99/5 80/100/5 73/101/5
f 28/102/12 51/103/12 105/104/12 102/105/12
f 37/106/11 36/107/11 58/69/11 55/79/11
f 32/108/10 38/109/10 57/73/10 53/77/10
f 38/109/9 41/110/9 56/74/9 57/73/9
f 36/107/8 39/111/8 54/70/8 58/69/8
f 47/112/5 9/113/5 85/114/5 86/115/5
f 25/55/13 37/89/13 67/116/13 63/117/13
f 5/30/1 46/29/1 52/53/1 29/96/1
f 27/118/1 50/38/1 54/44/1 39/119/1
f 3/120/1 44/35/1 50/38/1 27/118/1
f 1/51/1 46/29/1 48/1/1 10/121/1
f 51/122/5 28/123/5 90/124/5 94/125/5
f 51/126/13 55/127/13 106/128/13 105/129/13
f 10/121/1 48/1/1 44/4/1 3/130/1
f 69/131/14 61/132/14 60/133/14 59/134/14
f 62/135/14 63/136/14 67/137/14 66/138/14
f 65/139/14 68/140/14 70/141/14 64/142/14
f 19/47/13 2/33/13 65/143/13 64/144/13
f 51/145/12 25/146/12 63/147/12 62/148/12
f 37/106/5 55/79/5 66/149/5 67/150/5
f 49/151/12 19/152/12 64/153/12 70/154/12
f 45/155/4 47/156/4 69/157/4 59/158/4
f 4/159/5 45/160/5 59/161/5 60/162/5
f 12/34/13 4/39/13 60/163/13 61/164/13
f 2/165/5 43/166/5 68/167/5 65/168/5
f 43/169/4 49/170/4 70/171/4 68/172/4
f 79/173/14 74/174/14 73/175/14 80/176/14
f 71/177/14 72/178/14 76/179/14 75/180/14
f 77/181/14 81/182/14 82/183/14 78/184/14
f 2/33/13 12/34/13 73/185/13 74/186/13
f 51/187/4 45/188/4 71/189/4 75/190/4
f 19/191/5 49/192/5 81/193/5 77/194/5
f 45/195/12 4/196/12 72/197/12 71/198/12
f 53/77/12 31/78/12 78/199/12 82/200/12
f 49/201/4 53/202/4 82/203/4 81/204/4
f 43/205/12 2/206/12 74/207/12 79/208/12
f 31/48/13 19/47/13 77/209/13 78/210/13
f 4/39/13 25/55/13 76/211/13 72/212/13
f 87/213/14 88/214/14 92/215/14 91/216/14
f 89/217/14 93/218/14 94/219/14 90/220/14
f 84/221/14 83/222/14 86/223/14 85/224/14
f 43/225/13 47/226/13 86/227/13 83/228/13
f 8/229/12 45/230/12 93/231/12 89/232/12
f 20/58/4 32/95/4 92/233/4 88/234/4
f 45/235/13 51/236/13 94/237/13 93/238/13
f 6/239/12 43/240/12 83/241/12 84/242/12
f 49/243/5 20/244/5 88/245/5 87/246/5
f 32/108/12 53/77/12 91/247/12 92/248/12
f 53/249/13 49/250/13 87/251/13 91/252/13
f 9/32/4 6/40/4 84/253/4 85/254/4
f 97/255/14 98/256/14 101/257/14 100/258/14
f 102/259/14 105/260/14 106/261/14 103/262/14
f 95/263/14 99/264/14 104/265/14 96/266/14
f 8/31/4 9/32/4 95/267/4 96/268/4
f 9/269/12 47/270/12 99/271/12 95/272/12
f 55/79/5 40/80/5 103/273/5 106/274/5
f 45/275/5 8/276/5 96/277/5 104/278/5
f 43/279/5 6/280/5 98/281/5 97/282/5
f 47/283/13 45/284/13 104/285/13 99/286/13
f 40/83/4 28/54/4 102/287/4 103/288/4
f 20/289/12 49/290/12 100/291/12 101/292/12
f 49/293/13 43/294/13 97/295/13 100/296/13
f 112/297/10 111/298/10 119/299/10 120/300/10
f 13/6/7 2/33/7 108/301/7 107/67/7
f 19/47/7 21/7/7 109/68/7 110/302/7
f 2/33/7 19/47/7 110/302/7 108/301/7
f 111/298/1 113/303/1 121/304/1 119/299/1
f 15/20/7 24/66/7 113/305/7 111/306/7
f 4/39/7 15/20/7 111/306/7 112/56/7
f 24/66/7 25/55/7 114/57/7 113/305/7
f 115/307/7 116/308/7 118/309/7 117/310/7
f 120/311/7 119/312/7 121/313/7 122/314/7
f 109/315/1 107/316/1 115/317/1 117/318/1
f 114/319/14 112/320/14 120/321/14 122/322/14
f 107/323/11 108/324/11 116/325/11 115/326/11
f 113/327/11 114/328/11 122/329/11 121/330/11
f 108/331/14 110/332/14 118/333/14 116/334/14
f 110/335/10 109/336/10 117/337/10 118/338/10
