# Blender v2.90.1 OBJ File: 'Shampoo.blend'
# www.blender.org
mtllib Shampoo.mtl
o Cube_Cube.001
v 0.394594 -0.059358 0.372271
v 0.372271 -0.059358 0.394594
v 0.372271 -0.059358 -0.394594
v 0.394594 -0.059358 -0.372271
v -0.394594 -0.059358 -0.372271
v -0.372271 -0.059358 -0.394594
v -0.394594 -0.059358 0.372271
v -0.372271 -0.059358 0.394594
v -0.481240 -1.274065 0.481240
v -0.495758 -1.231331 0.519106
v -0.519106 -1.231331 0.495758
v -0.521163 1.233214 0.544461
v -0.480202 1.264884 0.480202
v -0.544461 1.233214 0.521163
v -0.481240 -1.274065 -0.481240
v -0.519106 -1.231331 -0.495758
v -0.495758 -1.231331 -0.519106
v -0.480202 1.264884 -0.480202
v -0.521163 1.233214 -0.544461
v -0.544461 1.233214 -0.521163
v 0.481240 -1.274065 0.481240
v 0.519106 -1.231331 0.495758
v 0.495758 -1.231331 0.519106
v 0.480202 1.264884 0.480202
v 0.521163 1.233214 0.544461
v 0.544461 1.233214 0.521163
v 0.481240 -1.274065 -0.481240
v 0.495758 -1.231331 -0.519106
v 0.519106 -1.231331 -0.495758
v 0.480202 1.264884 -0.480202
v 0.544461 1.233214 -0.521163
v 0.521163 1.233214 -0.544461
v 0.372271 0.053325 0.394594
v 0.394594 0.053325 -0.372271
v -0.394594 0.053325 0.372271
v -0.372271 0.053325 -0.394594
v -0.372271 0.053325 0.394594
v -0.394594 0.053325 -0.372271
v 0.372271 0.053325 -0.394594
v 0.394594 0.053325 0.372271
v -0.466566 1.078083 0.488540
v -0.488540 1.078083 -0.466566
v 0.466566 1.078083 -0.488540
v 0.488540 1.078083 0.466566
v 0.466566 1.078083 0.488540
v 0.488540 1.078083 -0.466566
v -0.488540 1.078083 0.466566
v -0.466566 1.078083 -0.488540
v -0.521163 1.088634 0.544461
v -0.544461 1.088634 -0.521163
v 0.521163 1.088634 -0.544461
v 0.544461 1.088634 0.521163
v 0.521163 1.088634 0.544461
v 0.544461 1.088634 -0.521163
v -0.544461 1.088634 0.521163
v -0.521163 1.088634 -0.544461
vt 0.981812 0.995578
vt 0.984404 0.996506
vt 0.982806 0.997998
vt 0.915943 0.995578
vt 0.914950 0.997998
vt 0.913352 0.996506
vt 0.981812 0.934069
vt 0.982806 0.931649
vt 0.984404 0.933142
vt 0.915943 0.934069
vt 0.913352 0.933142
vt 0.914950 0.931649
vt 0.427803 0.406137
vt 0.403948 0.426074
vt 0.395355 0.418050
vt 0.416705 0.397630
vt 0.009111 0.397630
vt 0.030460 0.418050
vt 0.021868 0.426074
vt 0.000000 0.406137
vt 0.000000 0.786752
vt 0.021868 0.766815
vt 0.030460 0.774839
vt 0.009111 0.795259
vt 0.403948 0.766815
vt 0.427803 0.786752
vt 0.416705 0.795259
vt 0.395355 0.774839
vt 0.273871 0.459069
vt 0.294663 0.458858
vt 0.294524 0.728011
vt 0.273731 0.728221
vt 0.315735 0.459069
vt 0.336528 0.458858
vt 0.336388 0.728010
vt 0.315596 0.728221
vt 0.435299 0.518441
vt 0.435299 0.473737
vt 0.447502 0.473368
vt 0.447502 0.518073
vt 0.025128 0.374165
vt 0.025128 0.023465
vt 0.400687 0.023465
vt 0.400687 0.374165
vt 0.336668 0.459069
vt 0.357460 0.458858
vt 0.357320 0.728010
vt 0.336528 0.728221
vt 0.294803 0.459069
vt 0.315596 0.458858
vt 0.315456 0.728011
vt 0.294663 0.728221
vt 0.425816 0.008507
vt 0.416705 0.000000
vt 0.000000 0.008508
vt 0.009111 0.000000
vt 0.427803 0.389122
vt 0.416705 0.397630
vt 0.009111 0.397630
vt 0.000000 0.389122
vt 0.294663 0.740041
vt 0.273871 0.740252
vt 0.437360 0.470807
vt 0.437360 0.003717
vt 0.449729 0.003331
vt 0.449729 0.470438
vt 0.714704 0.471157
vt 0.714704 0.004066
vt 0.727072 0.003681
vt 0.727072 0.470788
vt 0.435299 0.006646
vt 0.447502 0.006261
vt 0.714704 0.515861
vt 0.727072 0.515493
vt 0.437360 0.515511
vt 0.449729 0.515143
vt 0.726344 0.003681
vt 0.726344 0.470788
vt 0.714141 0.471157
vt 0.714141 0.004066
vt 0.992504 0.004066
vt 0.992172 0.471077
vt 0.715160 0.003717
vt 0.714829 0.470728
vt 0.714704 0.006646
vt 0.714704 0.473657
vt 0.993545 0.004066
vt 0.993545 0.471077
vt 0.437360 0.920252
vt 0.449729 0.920252
vt 0.714704 0.920783
vt 0.727072 0.920421
vt 0.726344 0.515493
vt 0.714141 0.515861
vt 0.992343 0.515782
vt 0.714999 0.515432
vt 0.435299 0.923182
vt 0.447502 0.923182
vt 0.714704 0.518362
vt 0.993545 0.515782
vt 0.726344 0.920421
vt 0.714141 0.920783
vt 0.992276 0.920783
vt 0.714932 0.920252
vt 0.714704 0.923182
vt 0.993545 0.920783
vt 0.357460 0.740041
vt 0.336668 0.740252
vt 0.315596 0.740041
vt 0.294803 0.740252
vt 0.336528 0.740041
vt 0.315735 0.740252
vn -0.5343 -0.6550 0.5343
vn -0.5343 -0.6550 -0.5343
vn 0.5343 -0.6550 0.5343
vn 0.5343 -0.6550 -0.5343
vn -0.7484 -0.6632 0.0000
vn 0.0000 -0.6632 -0.7484
vn 0.7484 -0.6632 0.0000
vn 0.0000 -0.6632 0.7484
vn 0.0000 -1.0000 0.0000
vn 0.0946 -0.9910 0.0946
vn 0.0946 -0.9910 -0.0946
vn -0.0946 -0.9910 -0.0946
vn -0.0946 -0.9910 0.0946
vn 0.0000 -0.9827 -0.1854
vn -0.1854 -0.9827 0.0000
vn 0.1854 -0.9827 0.0000
vn 0.0000 -0.9827 0.1854
vn 0.3154 -0.5858 0.7466
vn 0.3374 0.4989 0.7983
vn -0.3374 0.4989 0.7983
vn -0.3154 -0.5858 0.7466
vn 0.7466 -0.5858 -0.3154
vn 0.7983 0.4989 -0.3374
vn 0.7983 0.4989 0.3374
vn 0.7466 -0.5858 0.3154
vn 0.3761 -0.0602 0.9246
vn 0.3750 0.0695 0.9244
vn 0.9244 0.0695 0.3750
vn 0.9246 -0.0602 0.3761
vn 0.1762 0.9684 -0.1762
vn -0.1762 0.9684 -0.1762
vn -0.1762 0.9684 0.1762
vn 0.1762 0.9684 0.1762
vn -0.7466 -0.5858 0.3154
vn -0.7983 0.4989 0.3374
vn -0.7983 0.4989 -0.3374
vn -0.7466 -0.5858 -0.3154
vn -0.3154 -0.5858 -0.7466
vn -0.3374 0.4989 -0.7983
vn 0.3374 0.4989 -0.7983
vn 0.3154 -0.5858 -0.7466
vn -0.3750 0.0695 -0.9244
vn -0.3733 -0.2785 -0.8849
vn -0.8849 -0.2785 -0.3733
vn -0.9244 0.0695 -0.3750
vn 0.9244 0.0695 -0.3750
vn 0.8849 -0.2785 -0.3733
vn 0.3733 -0.2785 -0.8849
vn 0.3750 0.0695 -0.9244
vn 0.3733 -0.2785 0.8849
vn 0.8849 -0.2785 0.3733
vn 0.9246 -0.0602 -0.3761
vn 0.3761 -0.0602 -0.9246
vn -0.3761 -0.0602 -0.9246
vn -0.9246 -0.0602 -0.3761
vn -0.3733 -0.2785 0.8849
vn -0.3750 0.0695 0.9244
vn -0.9244 0.0695 0.3750
vn -0.8849 -0.2785 0.3733
vn -0.2316 -0.7776 -0.5845
vn -0.5845 -0.7776 -0.2316
vn 0.5845 -0.7776 -0.2316
vn 0.2316 -0.7776 -0.5845
vn -0.3761 -0.0602 0.9246
vn -0.9246 -0.0602 0.3761
vn 0.2316 -0.7776 0.5845
vn 0.5845 -0.7776 0.2316
vn -0.2316 -0.7776 0.5845
vn -0.5845 -0.7776 0.2316
usemtl None
s off
f 9/1/1 10/2/1 11/3/1
f 15/4/2 16/5/2 17/6/2
f 21/7/3 22/8/3 23/9/3
f 27/10/4 28/11/4 29/12/4
f 15/4/5 9/1/5 11/3/5 16/5/5
f 27/10/6 15/4/6 17/6/6 28/11/6
f 21/7/7 27/10/7 29/12/7 22/8/7
f 9/1/8 21/7/8 23/9/8 10/2/8
f 15/4/9 27/10/9 21/7/9 9/1/9
f 53/13/10 45/14/10 44/15/10 52/16/10
f 54/17/11 46/18/11 43/19/11 51/20/11
f 56/21/12 48/22/12 42/23/12 50/24/12
f 41/25/13 49/26/13 55/27/13 47/28/13
f 48/22/14 56/21/14 51/20/14 43/19/14
f 47/28/15 55/27/15 50/24/15 42/23/15
f 46/18/16 54/17/16 52/16/16 44/15/16
f 45/14/17 53/13/17 49/26/17 41/25/17
s 1
f 53/29/18 25/30/19 12/31/20 49/32/21
f 54/33/22 31/34/23 26/35/24 52/36/25
f 33/37/26 2/38/27 1/39/28 40/40/29
f 30/41/30 18/42/31 13/43/32 24/44/33
f 55/45/34 14/46/35 20/47/36 50/48/37
f 56/49/38 19/50/39 32/51/40 51/52/41
f 12/53/20 13/43/32 14/54/35
f 18/42/31 19/55/39 20/56/36
f 24/44/33 25/57/19 26/58/24
f 30/41/30 31/59/23 32/60/40
f 49/32/21 12/31/20 14/61/35 55/62/34
f 13/43/32 18/42/31 20/56/36 14/54/35
f 6/63/42 17/64/43 16/65/44 5/66/45
f 18/42/31 30/41/30 32/60/40 19/55/39
f 4/67/46 29/68/47 28/69/48 3/70/49
f 30/41/30 24/44/33 26/58/24 31/59/23
f 2/38/27 23/71/50 22/72/51 1/39/28
f 24/44/33 13/43/32 12/53/20 25/57/19
f 34/73/52 4/67/46 3/70/49 39/74/53
f 36/75/54 6/63/42 5/66/45 38/76/55
f 10/77/56 8/78/57 7/79/58 11/80/59
f 17/81/43 6/82/42 3/70/49 28/69/48
f 11/83/59 7/84/58 5/66/45 16/65/44
f 29/85/47 4/86/46 1/39/28 22/72/51
f 23/87/50 2/88/27 8/78/57 10/77/56
f 48/89/60 36/75/54 38/76/55 42/90/61
f 46/91/62 34/73/52 39/74/53 43/92/63
f 8/78/57 37/93/64 35/94/65 7/79/58
f 6/82/42 36/95/54 39/74/53 3/70/49
f 7/84/58 35/96/65 38/76/55 5/66/45
f 45/97/66 33/37/26 40/40/29 44/98/67
f 4/86/46 34/99/52 40/40/29 1/39/28
f 2/88/27 33/100/26 37/93/64 8/78/57
f 37/93/64 41/101/68 47/102/69 35/94/65
f 36/95/54 48/103/60 43/92/63 39/74/53
f 35/96/65 47/104/69 42/90/61 38/76/55
f 34/99/52 46/105/62 44/98/67 40/40/29
f 33/100/26 45/106/66 41/101/68 37/93/64
f 19/107/39 56/108/38 50/48/37 20/47/36
f 31/109/23 54/110/22 51/52/41 32/51/40
f 25/111/19 53/112/18 52/36/25 26/35/24
