# Blender v2.90.1 OBJ File: 'tp2.blend'
# www.blender.org
mtllib TPWrap.mtl
o Cylinder.001_Cylinder.003
v -2.238992 -2.040000 -2.020401
v -2.238992 2.040000 -2.020401
v 2.238992 -2.040000 -2.020401
v 2.238992 2.040000 -2.020401
v 2.606682 -2.040000 -1.868099
v 2.606682 2.040000 -1.868099
v 2.888099 -2.040000 -1.586682
v 2.888099 2.040000 -1.586682
v 3.040401 -2.040000 -1.218992
v 3.040401 2.040000 -1.218992
v 3.040401 -2.040000 1.218992
v 3.040401 2.040000 1.218992
v 2.888099 -2.040000 1.586681
v 2.888099 2.040000 1.586681
v 2.606682 -2.040000 1.868099
v 2.606682 2.040000 1.868099
v 2.238992 -2.040000 2.020401
v 2.238992 2.040000 2.020401
v -2.238992 -2.040000 2.020401
v -2.238992 2.040000 2.020401
v -2.606681 -2.040000 1.868099
v -2.606681 2.040000 1.868099
v -2.888099 -2.040000 1.586682
v -2.888099 2.040000 1.586682
v -3.040401 -2.040000 1.218992
v -3.040401 2.040000 1.218992
v -3.040401 -2.040000 -1.218992
v -3.040401 2.040000 -1.218992
v -2.888098 -2.040000 -1.586682
v -2.888098 2.040000 -1.586682
v -2.606681 -2.040000 -1.868099
v -2.606681 2.040000 -1.868099
vt 0.349451 0.490095
vt 0.250000 0.490000
vt 0.150549 0.490095
vt 0.057051 0.442949
vt 0.009905 0.349451
vt 0.010000 0.250000
vt 0.009905 0.150549
vt 0.057051 0.057051
vt 0.150549 0.009905
vt 0.250000 0.010000
vt 0.349451 0.009905
vt 0.442949 0.057051
vt 0.490095 0.150549
vt 0.490000 0.250000
vt 0.490095 0.349451
vt 0.442949 0.442949
vt 0.750000 0.490000
vt 0.849449 0.490092
vt 0.942946 0.442946
vt 0.990092 0.349449
vt 0.990000 0.250000
vt 0.990092 0.150551
vt 0.942946 0.057054
vt 0.849449 0.009908
vt 0.750000 0.010000
vt 0.650551 0.009908
vt 0.557054 0.057054
vt 0.509908 0.150551
vt 0.510000 0.250000
vt 0.509908 0.349449
vt 0.557054 0.442946
vt 0.650551 0.490092
vt 1.000000 0.500000
vt 1.000000 1.000000
vt 0.497278 1.000000
vt 0.497278 0.500000
vt 0.481653 1.000000
vt 0.481653 0.500000
vt 0.466028 1.000000
vt 0.466028 0.500000
vt 0.450403 1.000000
vt 0.450403 0.500000
vt 0.347278 1.000000
vt 0.347278 0.500000
vt 0.331653 1.000000
vt 0.331653 0.500000
vt 0.316028 1.000000
vt 0.316028 0.500000
vt 0.300403 1.000000
vt 0.300403 0.500000
vt 0.197278 1.000000
vt 0.197278 0.500000
vt 0.181653 1.000000
vt 0.181653 0.500000
vt 0.166028 1.000000
vt 0.166028 0.500000
vt 0.150403 1.000000
vt 0.150403 0.500000
vt 0.047278 1.000000
vt 0.047278 0.500000
vt 0.031653 1.000000
vt 0.031653 0.500000
vt 0.016028 1.000000
vt 0.016028 0.500000
vt 0.000403 1.000000
vt 0.000403 0.500000
vn 0.0000 1.0000 0.0000
vn 0.0000 -1.0000 0.0000
vn -0.1456 -0.6657 -0.7319
vn -0.1456 0.6657 -0.7319
vn 0.1456 0.6657 -0.7319
vn 0.1456 -0.6657 -0.7319
vn 0.4146 0.6657 -0.6204
vn 0.4146 -0.6657 -0.6204
vn 0.6204 0.6657 -0.4146
vn 0.6204 -0.6657 -0.4146
vn 0.7319 0.6657 -0.1456
vn 0.7319 -0.6657 -0.1456
vn 0.7319 0.6657 0.1456
vn 0.7319 -0.6657 0.1456
vn 0.6204 0.6657 0.4146
vn 0.6204 -0.6657 0.4146
vn 0.4146 0.6657 0.6204
vn 0.4146 -0.6657 0.6204
vn 0.1456 0.6657 0.7319
vn 0.1456 -0.6657 0.7319
vn -0.1456 0.6657 0.7319
vn -0.1456 -0.6657 0.7319
vn -0.4146 0.6657 0.6204
vn -0.4146 -0.6657 0.6204
vn -0.6204 0.6657 0.4146
vn -0.6204 -0.6657 0.4146
vn -0.7319 0.6657 0.1456
vn -0.7319 -0.6657 0.1456
vn -0.7319 0.6657 -0.1456
vn -0.7319 -0.6657 -0.1456
vn -0.6204 0.6657 -0.4146
vn -0.6204 -0.6657 -0.4146
vn -0.4146 0.6657 -0.6204
vn -0.4146 -0.6657 -0.6204
usemtl None
s off
f 4/1/1 2/2/1 32/3/1 30/4/1 28/5/1 26/6/1 24/7/1 22/8/1 20/9/1 18/10/1 16/11/1 14/12/1 12/13/1 10/14/1 8/15/1 6/16/1
f 1/17/2 3/18/2 5/19/2 7/20/2 9/21/2 11/22/2 13/23/2 15/24/2 17/25/2 19/26/2 21/27/2 23/28/2 25/29/2 27/30/2 29/31/2 31/32/2
s 1
f 1/33/3 2/34/4 4/35/5 3/36/6
f 3/36/6 4/35/5 6/37/7 5/38/8
f 5/38/8 6/37/7 8/39/9 7/40/10
f 7/40/10 8/39/9 10/41/11 9/42/12
f 9/42/12 10/41/11 12/43/13 11/44/14
f 11/44/14 12/43/13 14/45/15 13/46/16
f 13/46/16 14/45/15 16/47/17 15/48/18
f 15/48/18 16/47/17 18/49/19 17/50/20
f 17/50/20 18/49/19 20/51/21 19/52/22
f 19/52/22 20/51/21 22/53/23 21/54/24
f 21/54/24 22/53/23 24/55/25 23/56/26
f 23/56/26 24/55/25 26/57/27 25/58/28
f 25/58/28 26/57/27 28/59/29 27/60/30
f 27/60/30 28/59/29 30/61/31 29/62/32
f 29/62/32 30/61/31 32/63/33 31/64/34
f 31/64/34 32/63/33 2/65/4 1/66/3
