# Blender v2.90.1 OBJ File: ''
# www.blender.org
mtllib abocado.mtl
o avocado
v 0.270598 0.063888 -0.270598
v 0.000000 0.063888 -0.382683
v 0.000000 0.268851 -0.707107
v 0.500000 0.268851 -0.500000
v -0.270598 0.063888 -0.270598
v -0.500000 0.268851 -0.500000
v -0.382683 0.063888 0.000000
v -0.707107 0.268851 0.000000
v -0.270598 0.063888 0.270598
v -0.500000 0.268851 0.500000
v 0.000000 0.063888 0.382683
v 0.000000 0.268851 0.707107
v 0.270598 0.063888 0.270598
v 0.500000 0.268851 0.500000
v 0.382683 0.063888 0.000000
v 0.707107 0.268851 0.000000
v 0.000000 0.609855 -0.923879
v 0.653281 0.609855 -0.653281
v -0.653281 0.609855 -0.653281
v -0.923879 0.609855 0.000000
v -0.653281 0.609855 0.653281
v 0.000000 0.609855 0.923879
v 0.653281 0.609855 0.653281
v 0.923880 0.609855 0.000000
v 0.000000 1.079503 -0.986621
v 0.697647 1.079503 -0.697647
v -0.697647 1.079503 -0.697647
v -0.986621 1.079503 0.000000
v -0.697647 1.079503 0.697647
v 0.000000 1.079503 0.986621
v 0.697647 1.079503 0.697647
v 0.986621 1.079503 0.000000
v 0.000000 1.609006 -0.852365
v 0.602713 1.609006 -0.602713
v -0.602713 1.609006 -0.602713
v -0.852365 1.609006 0.000000
v -0.602713 1.609006 0.602713
v 0.000000 1.609006 0.852365
v 0.602713 1.609006 0.602713
v 0.852365 1.609006 0.000000
v 0.000000 2.111427 -0.699685
v 0.494752 2.111427 -0.494752
v -0.494752 2.111427 -0.494752
v -0.699685 2.111427 0.000000
v -0.494752 2.111427 0.494752
v 0.000000 2.111427 0.699685
v 0.494752 2.111427 0.494752
v 0.699685 2.111427 0.000000
v 0.000000 2.429702 -0.382970
v 0.270801 2.429702 -0.270801
v -0.270801 2.429702 -0.270801
v -0.382970 2.429702 0.000000
v -0.270801 2.429702 0.270801
v 0.000000 2.429702 0.382970
v 0.270801 2.429702 0.270801
v 0.382970 2.429702 0.000000
v 0.000000 -0.005818 -0.000000
v 0.000000 2.520864 0.000000
vt 0.787225 0.099046
vt 0.832158 0.058676
vt 0.918075 0.114641
vt 0.824992 0.161685
vt 0.184816 0.432142
vt 0.229922 0.468792
vt 0.190697 0.531784
vt 0.101668 0.484322
vt 0.293334 0.479208
vt 0.292606 0.544031
vt 0.357045 0.465314
vt 0.395780 0.529561
vt 0.403132 0.423910
vt 0.491252 0.481311
vt 0.619305 0.066705
vt 0.663283 0.102438
vt 0.625040 0.163854
vt 0.538239 0.117580
vt 0.725108 0.112592
vt 0.724400 0.175793
vt 0.973746 0.192904
vt 0.846969 0.226051
vt 0.166766 0.597146
vt 0.043268 0.558545
vt 0.292019 0.606390
vt 0.418321 0.595579
vt 0.548351 0.561582
vt 0.601708 0.227581
vt 0.481300 0.189945
vt 0.723827 0.236592
vt 0.995312 0.294107
vt 0.856880 0.300264
vt 0.156135 0.673326
vt 0.015141 0.659945
vt 0.292169 0.676043
vt 0.428485 0.671695
vt 0.570470 0.665381
vt 0.591343 0.301854
vt 0.453876 0.288807
vt 0.723974 0.304503
vt 0.970496 0.409658
vt 0.849189 0.386746
vt 0.162586 0.762915
vt 0.034650 0.782922
vt 0.291842 0.756068
vt 0.420597 0.760397
vt 0.545018 0.783896
vt 0.597633 0.389201
vt 0.472896 0.408706
vt 0.723655 0.382526
vt 0.915419 0.510683
vt 0.825352 0.469301
vt 0.187586 0.847636
vt 0.089656 0.891410
vt 0.292495 0.834145
vt 0.396149 0.845069
vt 0.488528 0.887513
vt 0.622006 0.471802
vt 0.526526 0.514480
vt 0.724291 0.458649
vt 0.829639 0.575012
vt 0.785284 0.540455
vt 0.229648 0.921390
vt 0.182867 0.962181
vt 0.292584 0.907842
vt 0.355054 0.918050
vt 0.400548 0.953493
vt 0.663015 0.543711
vt 0.617404 0.583481
vt 0.724377 0.530502
vt 0.722417 0.037463
vt 0.290576 0.402151
vt 0.726923 0.606343
vt 0.295197 0.985628
vn 0.2160 -0.8255 -0.5215
vn -0.2160 -0.8255 -0.5215
vn -0.5215 -0.8255 -0.2160
vn -0.5215 -0.8255 0.2160
vn -0.2160 -0.8255 0.5215
vn 0.2160 -0.8255 0.5215
vn 0.5215 -0.8255 0.2160
vn 0.5215 -0.8255 -0.2160
vn 0.3300 -0.5064 -0.7966
vn -0.3300 -0.5064 -0.7966
vn -0.7966 -0.5064 -0.3300
vn -0.7966 -0.5064 0.3300
vn -0.3300 -0.5064 0.7966
vn 0.3300 -0.5064 0.7966
vn 0.7966 -0.5064 0.3300
vn 0.7966 -0.5064 -0.3300
vn 0.3798 -0.1225 -0.9169
vn -0.3798 -0.1225 -0.9169
vn -0.9169 -0.1225 -0.3798
vn -0.9169 -0.1225 0.3798
vn -0.3798 -0.1225 0.9169
vn 0.3798 -0.1225 0.9169
vn 0.9169 -0.1225 0.3798
vn 0.9169 -0.1225 -0.3798
vn 0.3726 0.2281 -0.8995
vn -0.3726 0.2281 -0.8995
vn -0.8995 0.2281 -0.3726
vn -0.8995 0.2281 0.3726
vn -0.3726 0.2281 0.8995
vn 0.3726 0.2281 0.8995
vn 0.8995 0.2281 0.3726
vn 0.8995 0.2281 -0.3726
vn 0.3684 0.2703 -0.8895
vn -0.3684 0.2703 -0.8895
vn -0.8895 0.2703 -0.3684
vn -0.8895 0.2703 0.3684
vn -0.3684 0.2703 0.8895
vn 0.3684 0.2703 0.8895
vn 0.8895 0.2703 0.3684
vn 0.8895 0.2703 -0.3684
vn 0.2817 0.6768 -0.6801
vn -0.2817 0.6768 -0.6801
vn -0.6801 0.6768 -0.2817
vn -0.6801 0.6768 0.2817
vn -0.2817 0.6768 0.6801
vn 0.2817 0.6768 0.6801
vn 0.6801 0.6768 0.2817
vn 0.6801 0.6768 -0.2817
vn 0.0740 -0.9811 -0.1787
vn -0.0740 -0.9811 -0.1787
vn -0.1787 -0.9811 -0.0740
vn -0.1787 -0.9811 0.0740
vn -0.0740 -0.9811 0.1787
vn 0.0740 -0.9811 0.1787
vn 0.1787 -0.9811 0.0740
vn 0.1787 -0.9811 -0.0740
vn 0.0955 0.9684 -0.2305
vn -0.0955 0.9684 -0.2305
vn -0.2305 0.9684 -0.0955
vn -0.2305 0.9684 0.0955
vn -0.0955 0.9684 0.2305
vn 0.0955 0.9684 0.2305
vn 0.2305 0.9684 0.0955
vn 0.2305 0.9684 -0.0955
usemtl lambert2SG
s off
f 1/1/1 2/2/1 3/3/1 4/4/1
f 2/5/2 5/6/2 6/7/2 3/8/2
f 5/6/3 7/9/3 8/10/3 6/7/3
f 7/9/4 9/11/4 10/12/4 8/10/4
f 9/11/5 11/13/5 12/14/5 10/12/5
f 11/15/6 13/16/6 14/17/6 12/18/6
f 13/16/7 15/19/7 16/20/7 14/17/7
f 15/19/8 1/1/8 4/4/8 16/20/8
f 4/4/9 3/3/9 17/21/9 18/22/9
f 3/8/10 6/7/10 19/23/10 17/24/10
f 6/7/11 8/10/11 20/25/11 19/23/11
f 8/10/12 10/12/12 21/26/12 20/25/12
f 10/12/13 12/14/13 22/27/13 21/26/13
f 12/18/14 14/17/14 23/28/14 22/29/14
f 14/17/15 16/20/15 24/30/15 23/28/15
f 16/20/16 4/4/16 18/22/16 24/30/16
f 18/22/17 17/21/17 25/31/17 26/32/17
f 17/24/18 19/23/18 27/33/18 25/34/18
f 19/23/19 20/25/19 28/35/19 27/33/19
f 20/25/20 21/26/20 29/36/20 28/35/20
f 21/26/21 22/27/21 30/37/21 29/36/21
f 22/29/22 23/28/22 31/38/22 30/39/22
f 23/28/23 24/30/23 32/40/23 31/38/23
f 24/30/24 18/22/24 26/32/24 32/40/24
f 26/32/25 25/31/25 33/41/25 34/42/25
f 25/34/26 27/33/26 35/43/26 33/44/26
f 27/33/27 28/35/27 36/45/27 35/43/27
f 28/35/28 29/36/28 37/46/28 36/45/28
f 29/36/29 30/37/29 38/47/29 37/46/29
f 30/39/30 31/38/30 39/48/30 38/49/30
f 31/38/31 32/40/31 40/50/31 39/48/31
f 32/40/32 26/32/32 34/42/32 40/50/32
f 34/42/33 33/41/33 41/51/33 42/52/33
f 33/44/34 35/43/34 43/53/34 41/54/34
f 35/43/35 36/45/35 44/55/35 43/53/35
f 36/45/36 37/46/36 45/56/36 44/55/36
f 37/46/37 38/47/37 46/57/37 45/56/37
f 38/49/38 39/48/38 47/58/38 46/59/38
f 39/48/39 40/50/39 48/60/39 47/58/39
f 40/50/40 34/42/40 42/52/40 48/60/40
f 42/52/41 41/51/41 49/61/41 50/62/41
f 41/54/42 43/53/42 51/63/42 49/64/42
f 43/53/43 44/55/43 52/65/43 51/63/43
f 44/55/44 45/56/44 53/66/44 52/65/44
f 45/56/45 46/57/45 54/67/45 53/66/45
f 46/59/46 47/58/46 55/68/46 54/69/46
f 47/58/47 48/60/47 56/70/47 55/68/47
f 48/60/48 42/52/48 50/62/48 56/70/48
f 2/2/49 1/1/49 57/71/49
f 5/6/50 2/5/50 57/72/50
f 7/9/51 5/6/51 57/72/51
f 9/11/52 7/9/52 57/72/52
f 11/13/53 9/11/53 57/72/53
f 13/16/54 11/15/54 57/71/54
f 15/19/55 13/16/55 57/71/55
f 1/1/56 15/19/56 57/71/56
f 50/62/57 49/61/57 58/73/57
f 49/64/58 51/63/58 58/74/58
f 51/63/59 52/65/59 58/74/59
f 52/65/60 53/66/60 58/74/60
f 53/66/61 54/67/61 58/74/61
f 54/69/62 55/68/62 58/73/62
f 55/68/63 56/70/63 58/73/63
f 56/70/64 50/62/64 58/73/64
