# Blender v2.90.1 OBJ File: ''
# www.blender.org
mtllib SmoothAvacado.mtl
o avocado
v 0.270598 0.063888 -0.270598
v 0.000000 0.063888 -0.382683
v 0.000000 0.268851 -0.707107
v 0.500000 0.268851 -0.500000
v -0.270598 0.063888 -0.270598
v -0.500000 0.268851 -0.500000
v -0.382683 0.063888 0.000000
v -0.707107 0.268851 0.000000
v -0.270598 0.063888 0.270598
v -0.500000 0.268851 0.500000
v 0.000000 0.063888 0.382683
v 0.000000 0.268851 0.707107
v 0.270598 0.063888 0.270598
v 0.500000 0.268851 0.500000
v 0.382683 0.063888 0.000000
v 0.707107 0.268851 0.000000
v 0.000000 0.609855 -0.923879
v 0.653281 0.609855 -0.653281
v -0.653281 0.609855 -0.653281
v -0.923879 0.609855 0.000000
v -0.653281 0.609855 0.653281
v 0.000000 0.609855 0.923879
v 0.653281 0.609855 0.653281
v 0.923880 0.609855 0.000000
v 0.000000 1.079503 -0.986621
v 0.697647 1.079503 -0.697647
v -0.697647 1.079503 -0.697647
v -0.986621 1.079503 0.000000
v -0.697647 1.079503 0.697647
v 0.000000 1.079503 0.986621
v 0.697647 1.079503 0.697647
v 0.986621 1.079503 0.000000
v 0.000000 1.609006 -0.852365
v 0.602713 1.609006 -0.602713
v -0.602713 1.609006 -0.602713
v -0.852365 1.609006 0.000000
v -0.602713 1.609006 0.602713
v 0.000000 1.609006 0.852365
v 0.602713 1.609006 0.602713
v 0.852365 1.609006 0.000000
v 0.000000 2.111427 -0.699685
v 0.494752 2.111427 -0.494752
v -0.494752 2.111427 -0.494752
v -0.699685 2.111427 0.000000
v -0.494752 2.111427 0.494752
v 0.000000 2.111427 0.699685
v 0.494752 2.111427 0.494752
v 0.699685 2.111427 0.000000
v 0.000000 2.429702 -0.382970
v 0.270801 2.429702 -0.270801
v -0.270801 2.429702 -0.270801
v -0.382970 2.429702 0.000000
v -0.270801 2.429702 0.270801
v 0.000000 2.429702 0.382970
v 0.270801 2.429702 0.270801
v 0.382970 2.429702 0.000000
v 0.000000 -0.005818 -0.000000
v 0.000000 2.520864 0.000000
vt 0.787225 0.099046
vt 0.832158 0.058676
vt 0.918075 0.114641
vt 0.824992 0.161685
vt 0.184816 0.432142
vt 0.229922 0.468792
vt 0.190697 0.531784
vt 0.101668 0.484322
vt 0.293334 0.479208
vt 0.292606 0.544031
vt 0.357045 0.465314
vt 0.395780 0.529561
vt 0.403132 0.423910
vt 0.491252 0.481311
vt 0.619305 0.066705
vt 0.663283 0.102438
vt 0.625040 0.163854
vt 0.538239 0.117580
vt 0.725108 0.112592
vt 0.724400 0.175793
vt 0.973746 0.192904
vt 0.846969 0.226051
vt 0.166766 0.597146
vt 0.043268 0.558545
vt 0.292019 0.606390
vt 0.418321 0.595579
vt 0.548351 0.561582
vt 0.601708 0.227581
vt 0.481300 0.189945
vt 0.723827 0.236592
vt 0.995312 0.294107
vt 0.856880 0.300264
vt 0.156135 0.673326
vt 0.015141 0.659945
vt 0.292169 0.676043
vt 0.428485 0.671695
vt 0.570470 0.665381
vt 0.591343 0.301854
vt 0.453876 0.288807
vt 0.723974 0.304503
vt 0.970496 0.409658
vt 0.849189 0.386746
vt 0.162586 0.762915
vt 0.034650 0.782922
vt 0.291842 0.756068
vt 0.420597 0.760397
vt 0.545018 0.783896
vt 0.597633 0.389201
vt 0.472896 0.408706
vt 0.723655 0.382526
vt 0.915419 0.510683
vt 0.825352 0.469301
vt 0.187586 0.847636
vt 0.089656 0.891410
vt 0.292495 0.834145
vt 0.396149 0.845069
vt 0.488528 0.887513
vt 0.622006 0.471802
vt 0.526526 0.514480
vt 0.724291 0.458649
vt 0.829639 0.575012
vt 0.785284 0.540455
vt 0.229648 0.921390
vt 0.182867 0.962181
vt 0.292584 0.907842
vt 0.355054 0.918050
vt 0.400548 0.953493
vt 0.663015 0.543711
vt 0.617404 0.583481
vt 0.724377 0.530502
vt 0.722417 0.037463
vt 0.290576 0.402151
vt 0.726923 0.606343
vt 0.295197 0.985628
vn 0.2850 -0.9152 -0.2850
vn 0.0000 -0.9152 -0.4030
vn 0.0000 -0.6821 -0.7312
vn 0.5170 -0.6821 -0.5170
vn -0.2850 -0.9152 -0.2850
vn -0.5170 -0.6821 -0.5170
vn -0.4030 -0.9152 0.0000
vn -0.7312 -0.6821 0.0000
vn -0.2850 -0.9152 0.2850
vn -0.5170 -0.6821 0.5170
vn 0.0000 -0.9152 0.4030
vn 0.0000 -0.6821 0.7312
vn 0.2850 -0.9152 0.2850
vn 0.5170 -0.6821 0.5170
vn 0.4030 -0.9152 0.0000
vn 0.7312 -0.6821 0.0000
vn 0.0000 -0.3266 -0.9451
vn 0.6683 -0.3266 -0.6683
vn -0.6683 -0.3266 -0.6683
vn -0.9451 -0.3266 0.0000
vn -0.6683 -0.3266 0.6683
vn 0.0000 -0.3266 0.9451
vn 0.6683 -0.3266 0.6683
vn 0.9451 -0.3266 0.0000
vn 0.0000 0.0552 -0.9984
vn 0.7060 0.0552 -0.7060
vn -0.7060 0.0552 -0.7060
vn -0.9984 0.0552 0.0000
vn -0.7060 0.0552 0.7060
vn 0.0000 0.0552 0.9984
vn 0.7060 0.0552 0.7060
vn 0.9984 0.0552 0.0000
vn 0.0000 0.2669 -0.9637
vn 0.6814 0.2669 -0.6814
vn -0.6814 0.2669 -0.6814
vn -0.9637 0.2669 0.0000
vn -0.6814 0.2669 0.6814
vn 0.0000 0.2669 0.9637
vn 0.6814 0.2669 0.6814
vn 0.9637 0.2669 0.0000
vn 0.0000 0.4888 -0.8724
vn 0.6169 0.4888 -0.6169
vn -0.6169 0.4888 -0.6169
vn -0.8724 0.4888 0.0000
vn -0.6169 0.4888 0.6169
vn 0.0000 0.4888 0.8724
vn 0.6169 0.4888 0.6169
vn 0.8724 0.4888 0.0000
vn 0.0000 0.8434 -0.5372
vn 0.3798 0.8434 -0.3798
vn -0.3798 0.8434 -0.3798
vn -0.5372 0.8434 0.0000
vn -0.3798 0.8434 0.3798
vn 0.0000 0.8434 0.5372
vn 0.3798 0.8434 0.3798
vn 0.5372 0.8434 0.0000
vn 0.0000 -1.0000 0.0000
vn 0.0000 1.0000 0.0000
usemtl lambert2SG
s 1
f 1/1/1 2/2/2 3/3/3 4/4/4
f 2/5/2 5/6/5 6/7/6 3/8/3
f 5/6/5 7/9/7 8/10/8 6/7/6
f 7/9/7 9/11/9 10/12/10 8/10/8
f 9/11/9 11/13/11 12/14/12 10/12/10
f 11/15/11 13/16/13 14/17/14 12/18/12
f 13/16/13 15/19/15 16/20/16 14/17/14
f 15/19/15 1/1/1 4/4/4 16/20/16
f 4/4/4 3/3/3 17/21/17 18/22/18
f 3/8/3 6/7/6 19/23/19 17/24/17
f 6/7/6 8/10/8 20/25/20 19/23/19
f 8/10/8 10/12/10 21/26/21 20/25/20
f 10/12/10 12/14/12 22/27/22 21/26/21
f 12/18/12 14/17/14 23/28/23 22/29/22
f 14/17/14 16/20/16 24/30/24 23/28/23
f 16/20/16 4/4/4 18/22/18 24/30/24
f 18/22/18 17/21/17 25/31/25 26/32/26
f 17/24/17 19/23/19 27/33/27 25/34/25
f 19/23/19 20/25/20 28/35/28 27/33/27
f 20/25/20 21/26/21 29/36/29 28/35/28
f 21/26/21 22/27/22 30/37/30 29/36/29
f 22/29/22 23/28/23 31/38/31 30/39/30
f 23/28/23 24/30/24 32/40/32 31/38/31
f 24/30/24 18/22/18 26/32/26 32/40/32
f 26/32/26 25/31/25 33/41/33 34/42/34
f 25/34/25 27/33/27 35/43/35 33/44/33
f 27/33/27 28/35/28 36/45/36 35/43/35
f 28/35/28 29/36/29 37/46/37 36/45/36
f 29/36/29 30/37/30 38/47/38 37/46/37
f 30/39/30 31/38/31 39/48/39 38/49/38
f 31/38/31 32/40/32 40/50/40 39/48/39
f 32/40/32 26/32/26 34/42/34 40/50/40
f 34/42/34 33/41/33 41/51/41 42/52/42
f 33/44/33 35/43/35 43/53/43 41/54/41
f 35/43/35 36/45/36 44/55/44 43/53/43
f 36/45/36 37/46/37 45/56/45 44/55/44
f 37/46/37 38/47/38 46/57/46 45/56/45
f 38/49/38 39/48/39 47/58/47 46/59/46
f 39/48/39 40/50/40 48/60/48 47/58/47
f 40/50/40 34/42/34 42/52/42 48/60/48
f 42/52/42 41/51/41 49/61/49 50/62/50
f 41/54/41 43/53/43 51/63/51 49/64/49
f 43/53/43 44/55/44 52/65/52 51/63/51
f 44/55/44 45/56/45 53/66/53 52/65/52
f 45/56/45 46/57/46 54/67/54 53/66/53
f 46/59/46 47/58/47 55/68/55 54/69/54
f 47/58/47 48/60/48 56/70/56 55/68/55
f 48/60/48 42/52/42 50/62/50 56/70/56
f 2/2/2 1/1/1 57/71/57
f 5/6/5 2/5/2 57/72/57
f 7/9/7 5/6/5 57/72/57
f 9/11/9 7/9/7 57/72/57
f 11/13/11 9/11/9 57/72/57
f 13/16/13 11/15/11 57/71/57
f 15/19/15 13/16/13 57/71/57
f 1/1/1 15/19/15 57/71/57
f 50/62/50 49/61/49 58/73/58
f 49/64/49 51/63/51 58/74/58
f 51/63/51 52/65/52 58/74/58
f 52/65/52 53/66/53 58/74/58
f 53/66/53 54/67/54 58/74/58
f 54/69/54 55/68/55 58/73/58
f 55/68/55 56/70/56 58/73/58
f 56/70/56 50/62/50 58/73/58
