# Blender v2.90.1 OBJ File: 'Pinapple.blend'
# www.blender.org
mtllib NewPineapple.mtl
o pineapple_Circle.004
v 0.076218 6.783137 0.589783
v 0.178625 7.289944 1.504641
v 1.289245 8.811306 0.815426
v 0.527289 6.647395 0.627961
v 3.128479 10.964286 0.186997
v 0.589076 6.783624 0.076736
v 1.746342 8.805422 -0.217078
v 2.094222 12.400771 -1.810907
v 0.408059 6.671718 -0.465664
v 0.183907 8.059203 -1.724907
v 0.076199 6.783584 -0.589621
v -0.215120 8.805572 -1.774310
v -1.836557 12.885368 -2.097053
v -0.466204 6.671711 -0.408583
v -1.722867 8.059883 -0.211915
v -0.590160 6.783585 -0.076730
v -1.812621 11.707223 1.602263
v -0.427614 6.683455 0.427642
v -0.214978 8.810892 1.743145
v 1.294215 11.918347 -2.300680
v 2.162204 11.120584 1.630305
v -1.443269 12.140004 2.980413
v -2.298596 12.365370 -1.322112
v -0.314969 7.945661 -1.865882
v -1.767364 9.053534 -2.256328
v -1.863778 7.946238 0.286974
v -2.256361 9.057430 1.742136
v 1.402553 6.764490 0.346024
v 1.837956 7.945443 -0.316957
v 2.230440 9.056161 -1.772324
v -0.782187 8.712726 2.317119
v -0.000518 6.621689 0.663161
v -0.663683 6.621665 0.000004
v -0.000518 6.621654 -0.663165
v 0.662643 6.621678 0.000004
v -0.334685 8.213030 0.649392
v -0.742430 9.214917 1.487768
v 0.342826 10.491729 1.513882
v 0.129570 8.213535 0.662898
v 1.239049 9.123231 1.046459
v 0.549765 8.214029 0.465085
v 1.483029 10.485406 0.733978
v 2.590137 12.739101 -0.395118
v 0.668073 8.213605 -0.159030
v 1.592746 11.830444 -1.381231
v 0.470268 8.213896 -0.579232
v 0.727740 9.500771 -1.515939
v -0.153854 8.213482 -0.697541
v -1.273993 9.186896 -1.090192
v -0.574059 8.213803 -0.499734
v -2.093930 11.911632 -0.576613
v -0.692366 8.213409 0.124394
v -1.068178 9.468987 1.251700
v 0.322380 12.503643 2.575569
v 1.212455 12.324097 2.142996
v -2.544210 12.748261 0.683492
v -0.267912 13.625769 -2.596004
v -1.013192 12.608298 -2.212876
v -0.134756 6.730914 -0.797763
v -2.251883 10.388786 -0.629101
v 0.368456 8.954649 1.809515
v 2.227641 10.387018 0.594556
v -2.605217 11.048203 0.815915
v 1.185022 8.947301 -1.323883
v 2.581119 11.046422 -0.850484
v -0.614043 6.621932 0.126186
v -0.343679 6.621935 0.522995
v -0.524632 6.621928 -0.345577
v 0.343941 6.621928 -0.526529
v 0.614304 6.621932 -0.129719
v 0.524892 6.621935 0.342043
v 0.128083 6.621936 0.612405
v -1.643795 6.144234 1.653198
v -1.633719 5.752843 -1.973117
v -0.010647 6.138669 -2.340861
v 2.334045 6.145015 -0.008621
v 0.004355 6.137078 2.337732
v -2.332315 6.141008 0.005559
v 1.662397 6.124119 -1.658521
v 1.660992 6.130837 1.654162
v 1.805506 6.541405 0.078810
v -0.096999 6.536647 1.814162
v -1.822046 6.531346 -0.108536
v 1.347305 6.536484 -1.219508
v 1.217707 6.539973 1.339744
v -1.347712 6.537374 1.214290
v -1.685616 6.201028 -1.531524
v -1.219819 6.536372 -1.344945
v 0.067797 6.545604 -1.798355
v 0.256618 0.383926 2.789888
v 1.806124 0.638130 2.223135
v 2.051033 1.163982 1.963700
v 2.094193 2.387534 2.075899
v 2.082664 3.576384 2.076332
v 1.904444 4.773252 2.005016
v 2.790542 0.392454 -0.259084
v 2.219450 0.639830 -1.808365
v 2.322843 1.775976 -1.880449
v 2.028660 2.447026 -2.130337
v 2.079212 3.566272 -2.080841
v 2.008126 4.764941 -1.903423
v -2.160538 0.406540 -1.787057
v -2.845917 0.639697 -0.283680
v -2.967993 1.775834 -0.306088
v -2.270878 2.522847 -1.774641
v -2.940084 2.478523 0.079291
v -2.892297 3.414165 -0.254626
v -2.924915 3.775488 0.079530
v -2.769777 4.743181 -0.078921
v -1.789914 0.393741 2.156424
v -0.290618 0.639495 2.847865
v 0.081898 1.249366 2.860610
v 0.015361 2.391290 2.947504
v -0.243001 3.431346 2.896276
v 0.078073 3.764197 2.926528
v -0.075853 4.760040 2.767361
v 2.152332 0.376755 1.792421
v 2.850083 0.637104 0.298873
v 2.849379 1.239793 -0.078775
v 2.948333 2.403264 -0.018495
v 2.939789 3.496987 0.043549
v 2.740024 4.786625 0.127225
v 1.793967 0.368274 -2.149997
v 0.303963 0.636143 -2.851150
v -0.078033 1.232504 -2.848927
v -0.016697 2.400536 -2.949445
v -0.010259 3.593792 -2.940179
v 0.056027 4.858379 -2.742096
v -0.258489 0.387091 -2.789886
v -1.807031 0.638306 -2.221739
v -2.074430 1.256131 -1.956900
v -2.026970 2.217021 -2.127083
v -1.885593 3.443712 -2.212255
v -2.122682 3.790890 -2.011782
v -1.915054 4.745730 -2.012451
v -2.790351 0.390563 0.258676
v -2.219903 0.638406 1.808034
v -1.959012 1.241806 2.069886
v -2.071260 2.398976 2.095909
v -2.215052 3.439071 1.881077
v -2.013034 3.774649 2.123779
v -2.008202 4.762881 1.903702
v -2.461457 -0.061357 -0.093903
v -1.631260 -0.541961 -0.006034
v 0.088109 -0.015588 -2.509137
v -0.013078 -0.567841 -1.577528
v 1.819184 -0.040310 -1.697014
v 1.129125 -0.543337 -1.168375
v 1.702762 -0.032803 1.823420
v 1.137504 -0.545934 1.156515
v -1.819553 -0.042820 1.688344
v -1.153387 -0.547709 1.135028
v -1.689280 -0.042336 -1.816872
v -1.132195 -0.548633 -1.155772
v 2.496389 -0.027762 0.085697
v -0.091555 -0.046054 2.479853
v -0.020303 -0.550306 1.614896
v 1.656524 -0.527877 -0.015080
v -0.004188 6.742346 0.002230
v -2.667803 5.426211 0.274512
v -0.276286 5.426312 -2.668376
v 1.685989 5.426919 -2.092648
v 2.087707 5.425866 1.688927
v -1.693255 5.426765 2.078755
v -2.070968 5.428673 -1.696857
v 2.667645 5.425719 -0.273972
v 0.278131 5.425639 2.669217
v 1.907653 1.211709 -2.089659
v 2.940572 4.209764 -0.308181
v -2.827106 1.236193 0.135673
v -0.022122 7.451327 -0.027270
vn 0.0995 0.0511 -0.9937
vn -0.8430 0.5082 0.1765
vn -0.2476 0.2899 0.9245
vn 0.1734 0.5163 0.8386
vn 0.9276 0.2737 0.2542
vn 0.9214 0.3091 -0.2356
vn 0.1720 0.5056 -0.8454
vn -0.6202 0.2873 0.7300
vn -0.7155 0.4570 -0.5285
vn 0.7435 0.2585 0.6167
vn -0.8237 0.4383 -0.3598
vn -0.7078 0.4444 -0.5490
vn -0.4018 -0.6606 0.6341
vn -0.6180 -0.6544 0.4357
vn -0.7302 -0.6206 -0.2857
vn -0.4123 -0.6643 -0.6235
vn 0.2844 -0.6187 -0.7323
vn 0.6290 -0.6577 -0.4145
vn 0.0791 -0.7888 0.6096
vn 0.8186 -0.1354 0.5581
vn 0.9497 0.0656 0.3062
vn 0.2507 0.3193 0.9139
vn -0.4018 -0.2481 0.8815
vn -0.9125 0.3123 0.2643
vn -0.4040 -0.2127 0.8897
vn 0.2808 0.5121 -0.8117
vn -0.8606 0.0056 -0.5093
vn -0.9254 0.1363 -0.3537
vn -0.9248 -0.3321 -0.1857
vn 0.8676 -0.2053 -0.4529
vn -0.0418 -0.3969 -0.9169
vn -0.4424 -0.2121 -0.8714
vn 0.7778 -0.2987 0.5531
vn 0.8897 -0.2125 0.4040
vn 0.3055 0.0657 -0.9499
vn -0.9162 0.3851 -0.1108
vn 0.5172 0.0112 -0.8558
vn 0.4597 -0.2010 0.8650
vn 0.0269 0.3476 -0.9373
vn -0.8381 0.3765 0.3948
vn -0.1492 0.6013 0.7850
vn 0.3963 0.3676 0.8413
vn 0.9098 0.3775 0.1727
vn 0.6605 0.6013 -0.4496
vn 0.0015 0.3241 -0.9460
vn -0.4633 0.4099 -0.7857
vn 0.1124 0.2770 0.9543
vn 0.0045 -0.2523 -0.9676
vn -0.3162 -0.2041 0.9265
vn -0.1472 -0.2523 -0.9564
vn 0.3982 -0.1886 0.8977
vn -0.5895 -0.3765 0.7146
vn -0.8911 -0.4213 -0.1689
vn 0.4020 -0.3451 -0.8481
vn 0.7879 -0.4231 -0.4474
vn 0.8937 -0.4155 0.1694
vn 0.6467 -0.3999 0.6495
vn -0.1732 -0.3667 0.9141
vn 0.9756 -0.0618 0.2105
vn 0.5602 -0.0687 0.8255
vn -0.5943 0.0592 0.8021
vn -0.7386 0.0363 -0.6732
vn -0.9696 0.0158 -0.2443
vn 0.4231 -0.0778 -0.9028
vn -0.8235 0.0839 0.5611
vn -0.9821 0.0297 -0.1861
vn -0.5616 0.0725 -0.8242
vn 0.9827 -0.0723 0.1707
vn 0.1857 0.0768 -0.9796
vn 0.8257 0.0400 -0.5626
vn -0.0502 -0.0978 -0.9939
vn 0.9814 0.0485 0.1860
vn 0.7440 0.0873 0.6625
vn -0.8773 0.0429 -0.4780
vn -0.5031 -0.0647 0.8618
vn 0.0233 -0.0774 0.9967
vn -0.9145 0.3813 -0.1355
vn -0.3988 0.3534 -0.8462
vn -0.7459 0.6508 -0.1418
vn -0.6748 0.6660 0.3181
vn -0.1436 0.6394 0.7553
vn 0.3219 0.6560 0.6827
vn 0.7571 0.6372 0.1439
vn 0.6333 0.6428 -0.4310
vn 0.0209 0.6688 -0.7432
vn -0.3166 0.6705 -0.6709
vn -0.8321 0.5193 -0.1946
vn -0.6796 0.3512 0.6440
vn -0.8551 0.3832 0.3494
vn 0.6960 0.3272 0.6392
vn 0.2928 0.3539 0.8883
vn 0.8840 0.3228 -0.3383
vn 0.4163 0.4477 -0.7913
vn 0.5743 -0.3220 0.7527
vn -0.9883 -0.1447 -0.0488
vn 0.0567 -0.1633 -0.9850
vn -0.4360 -0.6529 0.6194
vn -0.6373 -0.6857 0.3516
vn -0.7040 -0.5791 -0.4112
vn -0.3523 -0.6862 -0.6364
vn 0.4121 -0.5749 -0.7068
vn 0.6437 -0.6821 -0.3470
vn 0.1556 -0.9851 0.0739
vn 0.3005 -0.7084 0.6387
vn 0.7076 -0.2699 0.6531
vn 0.9520 0.0423 0.3031
vn -0.9637 0.1722 0.2042
vn 0.3067 -0.1616 -0.9380
vn -0.7703 -0.5229 0.3650
vn 0.9337 -0.0711 -0.3509
vn 0.7112 0.0011 0.7030
vn 0.3532 -0.5210 -0.7771
vn 0.0314 0.3296 -0.9436
vn 0.7771 -0.5205 -0.3538
vn 0.3028 0.0450 -0.9520
vn 0.3650 -0.5228 0.7704
vn 0.3585 -0.0699 0.9309
vn -0.4910 0.4328 -0.7560
vn -0.8007 0.3555 0.4823
vn 0.2925 0.3623 0.8850
vn -0.3135 0.3176 0.8949
vn 0.9260 0.3674 0.0869
vn 0.9125 0.3885 -0.1285
vn -0.3193 0.4397 -0.8395
vn -0.3478 -0.2683 -0.8984
vn 0.6659 -0.2368 0.7074
vn -0.7789 -0.3341 0.5307
vn -0.9135 -0.4049 -0.0386
vn -0.6529 -0.3808 -0.6547
vn 0.7415 -0.4414 -0.5052
vn 0.9155 -0.4002 0.0413
vn 0.5240 -0.3662 0.7690
vn -0.3403 -0.4013 0.8504
vn 0.2169 0.3500 0.9113
vn -0.7634 0.0952 -0.6389
vn -0.9112 0.1082 -0.3975
vn -0.9041 0.0384 0.4256
vn -0.9821 0.0297 -0.1862
vn -0.4258 0.0291 -0.9044
vn 0.0290 0.0317 -0.9991
vn -0.1919 0.0831 0.9779
vn 0.8258 0.0400 -0.5626
vn 0.1067 0.0232 -0.9940
vn 0.9813 0.0485 0.1860
vn 0.4252 -0.0556 0.9034
vn -0.1861 0.0473 0.9814
vn 0.5855 0.2077 -0.7836
vn 0.1580 -0.1799 0.9709
vn -0.9039 0.3917 -0.1716
vn 0.6028 0.0521 -0.7962
vn 0.1867 0.4248 -0.8858
vn 0.4090 -0.0976 0.9073
vn -0.3595 -0.0916 0.9287
vn 0.9282 -0.0976 0.3592
vn 0.3545 -0.0986 -0.9298
vn -0.4053 -0.1400 -0.9034
vn -0.9079 -0.0972 0.4078
vn -0.4825 -0.8533 0.1978
vn -0.1976 -0.8515 -0.4856
vn 0.1920 -0.8532 -0.4849
vn 0.4833 -0.8521 0.2010
vn -0.2053 -0.8528 0.4802
vn -0.4747 -0.8568 -0.2011
vn 0.1964 -0.8505 0.4879
vn -0.7992 0.5004 0.3330
vn -0.3421 -0.0786 -0.9364
vn -0.3017 0.4888 -0.8186
vn 0.3293 0.5071 -0.7965
vn 0.8008 0.5009 0.3284
vn -0.3307 0.4982 0.8015
vn -0.8166 0.4770 -0.3250
vn -0.3034 0.3418 -0.8895
vn 0.8025 0.4950 -0.3330
vn 0.3319 0.5003 0.7997
vn 0.3676 -0.5171 0.7730
vn 0.4108 0.2423 0.8789
vn 0.7739 -0.5156 -0.3676
vn -0.8052 -0.5192 -0.2866
vn -0.8661 -0.1368 -0.4807
vn -0.9073 0.2384 -0.3463
vn -0.2874 -0.5165 0.8067
vn -0.3458 0.2514 0.9040
vn 0.8051 -0.5199 0.2855
vn 0.2863 -0.5179 -0.8062
vn -0.3672 -0.5216 -0.7701
vn -0.3673 0.2641 -0.8918
vn -0.7723 -0.5184 0.3673
vn -0.8849 0.2472 0.3948
vn 0.0199 -0.9998 0.0043
vn 0.0060 -1.0000 0.0055
vn -0.0148 -0.9999 0.0012
vn 0.0271 -0.9996 -0.0034
vn -0.0046 -1.0000 0.0055
vn -0.0179 -0.9998 -0.0020
vn -0.9201 0.2159 -0.3270
vn -0.9101 0.2571 -0.3249
vn -0.6666 -0.6795 -0.3063
vn -0.9144 -0.0220 -0.4042
vn -0.1121 0.9924 -0.0506
vn -0.8838 -0.0389 -0.4662
vn -0.9093 0.0090 -0.4160
vn -0.8918 0.2122 0.3996
vn -0.6786 -0.6901 0.2516
vn -0.9323 -0.0464 0.3586
vn -0.1175 0.9924 0.0376
vn -0.9174 -0.0656 0.3926
vn -0.9389 0.0093 0.3442
vn -0.3548 0.1976 0.9138
vn -0.3036 -0.6871 0.6601
vn -0.4077 -0.0471 0.9119
vn -0.0522 0.9926 0.1100
vn -0.3774 -0.0574 0.9243
vn -0.4200 0.0089 0.9075
vn 0.2525 -0.6921 0.6762
vn 0.3591 -0.0536 0.9318
vn 0.0389 0.9926 0.1147
vn 0.3862 -0.0476 0.9212
vn 0.3445 -0.0072 0.9387
vn 0.9040 0.2278 0.3618
vn 0.6542 -0.6957 0.2968
vn 0.9122 -0.0598 0.4055
vn 0.1081 0.9928 0.0515
vn 0.9240 -0.0671 0.3763
vn 0.9042 0.0235 0.4265
vn 0.9086 -0.1856 -0.3741
vn 0.8901 0.2478 -0.3825
vn 0.8700 0.2721 -0.4112
vn 0.6819 -0.6859 -0.2542
vn 0.9359 -0.1051 -0.3362
vn 0.1121 0.9928 -0.0433
vn 0.9524 -0.0656 -0.2978
vn 0.9387 0.0082 -0.3447
vn 0.3499 0.2275 -0.9088
vn 0.2945 -0.7014 -0.6491
vn 0.3908 -0.0721 -0.9176
vn 0.0552 0.9928 -0.1063
vn 0.3722 -0.0669 -0.9257
vn 0.4268 0.0072 -0.9043
vn -0.3967 0.2113 -0.8933
vn -0.2535 -0.6905 -0.6775
vn -0.3115 0.6484 -0.6947
vn -0.0460 0.9928 -0.1103
vn -0.3732 -0.0601 -0.9258
vn -0.3433 0.0077 -0.9392
vn -0.8338 0.3036 0.4612
vn -0.4212 0.1526 -0.8940
vn 0.2605 0.3011 -0.9173
vn 0.9176 0.3003 0.2604
vn -0.2657 0.3012 0.9158
vn -0.9150 0.3025 -0.2670
vn 0.8377 0.2958 -0.4590
vn 0.4611 0.2986 0.8356
vn 0.6070 0.7537 0.2521
vn -0.2532 0.7448 0.6174
vn -0.6232 0.7465 -0.2330
vn 0.6141 0.7454 -0.2594
vn 0.2556 0.7478 0.6127
vn -0.6139 0.7471 0.2551
vn -0.2751 0.7301 -0.6255
vn 0.2528 0.7561 -0.6037
vn 0.3867 0.0034 0.9222
vn 0.3969 0.1134 0.9108
vn 0.9164 -0.0237 -0.3996
vn 0.8748 0.1213 -0.4691
vn -0.9375 -0.0735 -0.3402
vn -0.9300 0.0908 -0.3561
vn -0.3776 -0.0482 0.9247
vn -0.3564 0.0935 0.9296
vn 0.9259 -0.0142 0.3775
vn 0.9167 0.1172 0.3820
vn 0.3717 0.0052 -0.9284
vn 0.3788 0.1238 -0.9171
vn -0.3769 -0.0209 -0.9260
vn -0.3942 0.0851 -0.9151
vn -0.9181 -0.0456 0.3937
vn -0.9091 0.0948 0.4056
vn -0.5068 -0.8405 0.1913
vn -0.1883 -0.8357 -0.5159
vn 0.2238 -0.8351 -0.5025
vn 0.4965 -0.8385 0.2243
vn -0.2273 -0.8399 0.4928
vn -0.4913 -0.8402 -0.2295
vn 0.5190 -0.8331 -0.1913
vn 0.1913 -0.8410 0.5061
vn -0.8980 0.3005 -0.3216
vn -0.8902 0.2632 -0.3718
vn 0.3108 0.2989 -0.9023
vn 0.8553 0.2944 -0.4263
vn 0.4208 0.2970 0.8572
vn -0.8619 0.3013 0.4079
vn 0.8997 0.3005 0.3164
vn -0.3131 0.2994 0.9013
vn 0.9178 -0.2979 0.2626
vn -0.5261 -0.1742 0.8324
vn 0.2647 -0.3055 -0.9146
vn 0.8415 -0.1677 0.5135
vn 0.8081 -0.4567 -0.3721
vn 0.5331 -0.0800 -0.8423
vn 0.8098 0.5059 -0.2973
vn 0.9549 0.1306 0.2668
vn -0.8152 -0.3156 0.4855
vn -0.2221 -0.1694 -0.9602
vn -0.8314 -0.4655 -0.3035
vn -0.9736 -0.0788 0.2142
vn -0.9939 0.0116 -0.1096
vn -0.8259 -0.0089 -0.5638
vn 0.4730 -0.3062 0.8262
vn -0.9610 -0.1693 0.2187
vn -0.1147 0.0204 0.9932
vn 0.8332 -0.2929 -0.4690
vn 0.2288 -0.1788 0.9569
vn -0.4573 -0.2898 -0.8408
vn 0.9793 -0.1203 -0.1630
vn -0.9247 -0.2996 -0.2347
vn 0.4974 -0.1656 -0.8516
vn -0.6295 0.0186 -0.7768
vn -0.2341 -0.3001 0.9247
vn -0.7983 -0.1205 -0.5901
vn -0.7822 0.0205 0.6227
vn -0.8972 0.1948 -0.3963
vn -0.9181 0.0334 -0.3949
vn -0.5016 0.8308 -0.2410
vn -0.9146 0.2038 0.3493
vn -0.9296 0.0108 0.3683
vn -0.5668 0.7993 0.1996
vn -0.3995 0.2011 0.8944
vn -0.4003 -0.0016 0.9164
vn -0.2592 0.7998 0.5415
vn 0.3508 0.2004 0.9147
vn 0.3902 -0.0038 0.9207
vn 0.2033 0.7969 0.5688
vn 0.9017 0.1582 0.4024
vn 0.9215 0.0088 0.3882
vn 0.5504 0.7942 0.2575
vn 0.4702 -0.8588 -0.2035
vn 0.9268 0.0285 -0.3745
vn 0.5658 0.7992 -0.2027
vn 0.3962 0.1574 -0.9046
vn 0.3805 0.0237 -0.9245
vn 0.2576 0.7897 -0.5569
vn -0.3507 0.1628 -0.9222
vn -0.3625 0.0092 -0.9319
vn -0.2057 0.7969 -0.5680
usemtl 4CAF50
s off
f 1//1 3//1 4//1
f 7//2 9//2 6//2
f 8//3 11//3 9//3
f 12//4 14//4 11//4
f 13//5 16//5 14//5
f 17//6 18//6 16//6
f 18//7 19//7 1//7
f 8//8 20//8 10//8
f 3//9 21//9 5//9
f 13//10 23//10 15//10
f 2//11 21//11 3//11
f 5//12 6//12 3//12
f 18//13 31//13 27//13
f 18//14 26//14 33//14
f 14//15 15//15 25//15
f 14//16 24//16 34//16
f 9//17 10//17 30//17
f 9//18 29//18 35//18
f 4//19 2//19 32//19
f 1//20 31//20 32//20
f 30//21 7//21 29//21
f 16//22 15//22 33//22
f 31//23 22//23 27//23
f 11//24 10//24 34//24
f 9//25 11//25 34//25
f 6//26 28//26 35//26
f 23//27 13//27 25//27
f 27//28 17//28 26//28
f 4//29 6//29 35//29
f 24//30 11//30 34//30
f 1//31 4//31 32//31
f 26//32 16//32 33//32
f 5//33 21//33 28//33
f 14//34 16//34 33//34
f 25//35 12//35 24//35
f 2//36 1//36 32//36
f 20//37 8//37 30//37
f 29//38 6//38 35//38
f 36//39 38//39 39//39
f 43//40 46//40 44//40
f 47//41 48//41 46//41
f 58//42 50//42 48//42
f 51//43 52//43 50//43
f 52//44 53//44 36//44
f 38//45 55//45 40//45
f 54//46 38//46 37//46
f 57//47 58//47 47//47
f 59//48 57//48 47//48
f 61//49 54//49 37//49
f 59//50 58//50 57//50
f 61//51 55//51 54//51
f 66//52 53//52 63//52
f 66//53 60//53 68//53
f 59//54 47//54 69//54
f 70//55 64//55 65//55
f 70//56 62//56 71//56
f 72//57 40//57 61//57
f 72//58 37//58 67//58
f 43//59 62//59 65//59
f 36//60 53//60 67//60
f 50//61 49//61 68//61
f 46//62 64//62 69//62
f 56//63 60//63 63//63
f 45//64 65//64 64//64
f 70//65 46//65 69//65
f 71//66 44//66 70//66
f 72//67 41//67 71//67
f 47//68 46//68 69//68
f 36//69 72//69 67//69
f 52//70 67//70 66//70
f 60//71 50//71 68//71
f 68//72 52//72 66//72
f 59//73 50//73 68//73
f 37//74 36//74 67//74
f 69//75 48//75 59//75
f 62//76 41//76 71//76
f 44//77 42//77 43//77
f 38//78 41//78 39//78
f 41//79 44//79 171//79
f 46//80 171//80 44//80
f 46//81 48//81 171//81
f 171//82 48//82 50//82
f 50//83 52//83 171//83
f 52//84 36//84 171//84
f 171//85 36//85 39//85
f 171//86 39//86 41//86
f 1//87 2//87 3//87
f 7//88 8//88 9//88
f 8//89 10//89 11//89
f 12//90 13//90 14//90
f 13//91 15//91 16//91
f 17//92 22//92 18//92
f 18//93 22//93 19//93
f 2//94 28//94 21//94
f 25//95 15//95 23//95
f 30//96 10//96 20//96
f 18//97 32//97 31//97
f 18//98 27//98 26//98
f 14//99 33//99 15//99
f 14//100 25//100 24//100
f 9//101 34//101 10//101
f 9//102 30//102 29//102
f 4//103 35//103 28//103
f 4//104 28//104 2//104
f 1//105 19//105 31//105
f 30//106 8//106 7//106
f 22//107 17//107 27//107
f 6//108 5//108 28//108
f 35//109 6//109 9//109
f 24//110 12//110 11//110
f 19//111 22//111 31//111
f 18//112 1//112 32//112
f 26//113 17//113 16//113
f 33//114 16//114 18//114
f 25//115 13//115 12//115
f 34//116 11//116 14//116
f 29//117 7//117 6//117
f 36//118 37//118 38//118
f 43//119 45//119 46//119
f 47//120 58//120 48//120
f 58//121 49//121 50//121
f 51//122 56//122 52//122
f 52//123 56//123 53//123
f 38//124 54//124 55//124
f 59//125 49//125 58//125
f 61//126 40//126 55//126
f 66//127 67//127 53//127
f 66//128 63//128 60//128
f 59//129 68//129 49//129
f 70//130 69//130 64//130
f 70//131 65//131 62//131
f 72//132 71//132 40//132
f 72//133 61//133 37//133
f 62//134 43//134 42//134
f 46//135 45//135 64//135
f 56//136 51//136 60//136
f 70//137 44//137 46//137
f 71//138 41//138 44//138
f 72//139 39//139 41//139
f 36//140 39//140 72//140
f 53//141 56//141 63//141
f 52//142 36//142 67//142
f 60//143 51//143 50//143
f 68//144 50//144 52//144
f 59//145 48//145 50//145
f 69//146 46//146 48//146
f 65//147 45//147 43//147
f 62//148 42//148 41//148
f 44//149 41//149 42//149
f 40//150 71//150 41//150
f 38//151 40//151 41//151
usemtl DD9944
f 92//152 93//152 112//152
f 112//153 113//153 138//153
f 119//154 120//154 92//154
f 125//155 126//155 168//155
f 131//156 132//156 125//156
f 138//157 139//157 170//157
f 151//158 144//158 152//158
f 153//159 146//159 154//159
f 145//160 148//160 146//160
f 155//161 150//161 158//161
f 156//162 152//162 157//162
f 143//163 154//163 144//163
f 149//164 157//164 150//164
f 78//165 160//165 73//165
f 128//166 135//166 161//166
f 75//167 161//167 74//167
f 79//168 162//168 75//168
f 80//169 163//169 76//169
f 73//170 164//170 77//170
f 87//171 165//171 78//171
f 135//172 165//172 87//172
f 76//173 166//173 79//173
f 77//174 167//174 80//174
f 149//175 91//175 90//175
f 92//176 112//176 91//176
f 147//177 97//177 96//177
f 143//178 103//178 102//178
f 105//179 132//179 104//179
f 107//180 108//180 134//180
f 156//181 111//181 110//181
f 114//182 115//182 141//182
f 155//183 118//183 117//183
f 145//184 124//184 123//184
f 153//185 130//185 129//185
f 133//186 134//186 127//186
f 151//187 137//187 136//187
f 140//188 141//188 108//188
f 158//189 146//189 148//189
f 157//190 146//190 150//190
f 144//191 146//191 152//191
f 150//192 146//192 158//192
f 152//193 146//193 157//193
f 154//194 146//194 144//194
f 105//195 104//195 106//195
f 131//196 103//196 170//196
f 143//197 102//197 153//197
f 109//198 165//198 135//198
f 83//199 159//199 88//199
f 131//200 104//200 132//200
f 102//201 103//201 131//201
f 170//202 137//202 138//202
f 151//203 136//203 143//203
f 142//204 160//204 109//204
f 86//205 159//205 83//205
f 170//206 139//206 106//206
f 136//207 137//207 170//207
f 138//208 111//208 112//208
f 156//209 110//209 151//209
f 116//210 164//210 142//210
f 82//211 159//211 86//211
f 138//212 113//212 139//212
f 110//213 111//213 138//213
f 149//214 90//214 156//214
f 95//215 167//215 116//215
f 85//216 159//216 82//216
f 112//217 93//217 113//217
f 90//218 91//218 112//218
f 92//219 118//219 119//219
f 155//220 117//220 149//220
f 122//221 163//221 95//221
f 81//222 159//222 85//222
f 92//223 120//223 93//223
f 117//224 118//224 92//224
f 100//225 169//225 121//225
f 120//226 98//226 99//226
f 119//227 97//227 168//227
f 147//228 96//228 155//228
f 101//229 166//229 122//229
f 84//230 159//230 81//230
f 119//231 98//231 120//231
f 96//232 97//232 119//232
f 168//233 124//233 125//233
f 145//234 123//234 147//234
f 128//235 162//235 101//235
f 89//236 159//236 84//236
f 168//237 126//237 99//237
f 123//238 124//238 168//238
f 125//239 130//239 131//239
f 153//240 129//240 145//240
f 75//241 74//241 87//241
f 88//242 159//242 89//242
f 125//243 132//243 126//243
f 129//244 130//244 125//244
f 160//245 142//245 73//245
f 161//246 135//246 74//246
f 162//247 128//247 75//247
f 163//248 122//248 76//248
f 164//249 116//249 77//249
f 165//250 109//250 78//250
f 166//251 101//251 79//251
f 167//252 95//252 80//252
f 80//253 76//253 81//253
f 73//254 77//254 82//254
f 87//255 78//255 83//255
f 76//256 79//256 84//256
f 77//257 80//257 85//257
f 78//258 73//258 86//258
f 75//259 87//259 88//259
f 79//260 75//260 89//260
f 113//261 93//261 94//261
f 115//262 94//262 95//262
f 120//263 99//263 100//263
f 169//264 100//264 101//264
f 105//265 106//265 107//265
f 134//266 108//266 109//266
f 139//267 113//267 114//267
f 141//268 115//268 116//268
f 93//269 120//269 121//269
f 94//270 121//270 122//270
f 99//271 126//271 127//271
f 100//272 127//272 128//272
f 126//273 132//273 133//273
f 127//274 134//274 135//274
f 106//275 139//275 140//275
f 108//276 141//276 142//276
f 151//277 143//277 144//277
f 153//278 145//278 146//278
f 145//279 147//279 148//279
f 155//280 149//280 150//280
f 156//281 151//281 152//281
f 143//282 153//282 154//282
f 147//283 155//283 158//283
f 149//284 156//284 157//284
f 78//285 109//285 160//285
f 87//286 74//286 135//286
f 75//287 128//287 161//287
f 79//288 101//288 162//288
f 80//289 95//289 163//289
f 73//290 142//290 164//290
f 76//291 122//291 166//291
f 77//292 116//292 167//292
f 149//293 92//293 91//293
f 156//294 90//294 112//294
f 147//295 168//295 97//295
f 155//296 96//296 119//296
f 119//297 168//297 98//297
f 168//298 99//298 98//298
f 101//299 122//299 169//299
f 122//300 121//300 169//300
f 143//301 170//301 103//301
f 153//302 102//302 131//302
f 131//303 170//303 104//303
f 170//304 106//304 104//304
f 106//305 108//305 107//305
f 132//306 105//306 134//306
f 156//307 112//307 111//307
f 151//308 110//308 138//308
f 113//309 115//309 114//309
f 155//310 119//310 118//310
f 149//311 117//311 92//311
f 145//312 125//312 124//312
f 147//313 123//313 168//313
f 153//314 131//314 130//314
f 145//315 129//315 125//315
f 132//316 134//316 133//316
f 151//317 138//317 137//317
f 143//318 136//318 170//318
f 139//319 141//319 140//319
f 134//320 109//320 135//320
f 105//321 107//321 134//321
f 87//322 83//322 88//322
f 108//323 142//323 109//323
f 106//324 140//324 108//324
f 78//325 86//325 83//325
f 141//326 116//326 142//326
f 139//327 114//327 141//327
f 73//328 82//328 86//328
f 115//329 95//329 116//329
f 113//330 94//330 115//330
f 77//331 85//331 82//331
f 94//332 122//332 95//332
f 93//333 121//333 94//333
f 80//334 81//334 85//334
f 147//335 158//335 148//335
f 120//336 100//336 121//336
f 76//337 84//337 81//337
f 100//338 128//338 101//338
f 99//339 127//339 100//339
f 79//340 89//340 84//340
f 127//341 135//341 128//341
f 126//342 133//342 127//342
f 75//343 88//343 89//343
